SplineFontDB: 3.2
FontName: NVCharter-BoldItalic
FullName: NV Charter Bold Italic
FamilyName: NV Charter
Weight: Bold
Copyright: Copyright (c) 1989-1992, Bitstream Inc., Cambridge, MA.\nCopyright (c) 2009, 2010, 2011, 2012 Andrey V. Panov \nCopyright (c) 2013-2024 Michael Sharpe\n\nThis font is an extension of Bitstream Charter, whose original license is reproduced below, as required under the terms of that license. The extension provides small caps, oldstyle figures and superior figures in all four styles, accompanied by LaTeX font support files.\n\n---\n\nYou are hereby granted permission under all Bitstream propriety rights\nto use, copy, modify, sublicense, sell, and redistribute the 4 Bitstream\nCharter (r) Type 1 outline fonts and the 4 Courier Type 1 outline fonts\nfor any purpose and without restriction; provided, that this notice is\nleft intact on all copies of such fonts and that Bitstream's trademark\nis acknowledged as shown below on all unmodified copies of the 4 Charter\nType 1 fonts.\n\nBITSTREAM CHARTER is a registered trademark of Bitstream Inc.
Version: 1.221
ItalicAngle: -11
UnderlinePosition: -109
UnderlineWidth: 90
Ascent: 800
Descent: 200
InvalidEm: 0
sfntRevision: 0x00013893
LayerCount: 2
Layer: 0 0 "Back" 1
Layer: 1 0 "Fore" 0
XUID: [1021 782 532578852 51291]
StyleMap: 0x0021
FSType: 0
OS2Version: 4
OS2_WeightWidthSlopeOnly: 0
OS2_UseTypoMetrics: 1
CreationTime: 1136849748
ModificationTime: 1739032537
PfmFamily: 17
TTFWeight: 700
TTFWidth: 5
LineGap: 90
VLineGap: 0
Panose: 2 0 8 3 0 0 0 0 0 0
OS2TypoAscent: 800
OS2TypoAOffset: 0
OS2TypoDescent: -200
OS2TypoDOffset: 0
OS2TypoLinegap: 90
OS2WinAscent: 971
OS2WinAOffset: 0
OS2WinDescent: 236
OS2WinDOffset: 0
HheadAscent: 971
HheadAOffset: 0
HheadDescent: -236
HheadDOffset: 0
OS2SubXSize: 650
OS2SubYSize: 700
OS2SubXOff: 26
OS2SubYOff: 140
OS2SupXSize: 650
OS2SupYSize: 700
OS2SupXOff: -91
OS2SupYOff: 480
OS2StrikeYSize: 49
OS2StrikeYPos: 258
OS2CapHeight: 671
OS2XHeight: 489
OS2Vendor: 'PfEd'

StartChar: .notdef
Encoding: 65536 -1 0
Width: 500
GlyphClass: 1
Flags: MW
HStem: 0 50<100 400 100 450> 483 50<100 400 100 100>
VStem: 50 50<50 50 50 483> 400 50<50 483 483 483>
LayerCount: 2
Fore
SplineSet
50 0 m 1
 50 533 l 1
 450 533 l 1
 450 0 l 1
 50 0 l 1
100 50 m 1
 400 50 l 1
 400 483 l 1
 100 483 l 1
 100 50 l 1
EndSplineSet
EndChar

StartChar: exclam
Encoding: 33 33 2
Width: 340
GlyphClass: 2
Flags: MW
HStem: -7 152<105 131.5> 664 20G<198 251>
VStem: 43 151<55 83> 135 159<553 643.5>
LayerCount: 2
Fore
SplineSet
279 555 m 2xd0
 166 198 l 1
 114 198 l 1
 135 553 l 2
 140 641 165 684 231 684 c 0
 271 684 294 662 294 625 c 0
 294 608 288 585 279 555 c 2xd0
127 145 m 0
 165 145 194 116 194 78 c 0
 194 32 154 -7 109 -7 c 0
 73 -7 43 22 43 60 c 0xe0
 43 106 83 145 127 145 c 0
EndSplineSet
EndChar

StartChar: quotedbl
Encoding: 34 34 3
Width: 339
GlyphClass: 2
Flags: MW
HStem: 418 296<78 78 78 97 242 261 242 242>
VStem: 41 93<658 678> 78 19<418 418> 205 94<658.5 678> 242 19<418 418>
LayerCount: 2
Fore
SplineSet
78 418 m 1xa0
 42 642 l 2
 41 649 41 655 41 661 c 0
 41 695 58 714 87 714 c 0
 117 714 134 696 134 661 c 0xc0
 134 655 134 648 133 642 c 2
 97 418 l 1
 78 418 l 1xa0
242 418 m 1x88
 206 642 l 2
 205 649 205 655 205 661 c 0
 205 695 223 714 252 714 c 0
 281 714 299 695 299 662 c 0x90
 299 655 298 649 297 642 c 2
 261 418 l 1
 242 418 l 1x88
EndSplineSet
EndChar

StartChar: numbersign
Encoding: 35 35 4
Width: 751
GlyphClass: 2
Flags: MW
HStem: 221 61<57 197 57 217 284 397 57 263 486 647> 417 61<107 261 107 282 349 464 107 329 552 689>
LayerCount: 2
Fore
SplineSet
362 710 m 1
 425 692 l 1
 349 478 l 1
 487 478 l 1
 564 709 l 1
 628 692 l 1
 552 478 l 1
 689 478 l 1
 689 417 l 1
 532 417 l 1
 486 282 l 1
 647 282 l 1
 647 221 l 1
 465 221 l 1
 384 -23 l 1
 321 -7 l 1
 397 221 l 1
 263 221 l 1
 181 -23 l 1
 118 -7 l 1
 197 221 l 1
 57 221 l 1
 57 282 l 1
 217 282 l 1
 261 417 l 1
 107 417 l 1
 107 478 l 1
 282 478 l 1
 362 710 l 1
329 417 m 1
 284 282 l 1
 417 282 l 1
 464 417 l 1
 329 417 l 1
EndSplineSet
EndChar

StartChar: dollar
Encoding: 36 36 5
Width: 586
GlyphClass: 2
Flags: MW
HStem: 1 56<204 216 216 256> 615 55<327 337 337 378>
VStem: 58 68<206 206> 104 114<480 515.5> 184 53<-104 -104> 352 52<744 744> 387 116<163 197> 446 64<479 479>
LayerCount: 2
Fore
SplineSet
352 744 m 1xd4
 404 744 l 1
 390 671 l 1
 441 668 491 658 543 640 c 1
 510 479 l 1
 446 479 l 1xd5
 450 592 l 1
 438 602 l 1
 419 609 398 613 378 615 c 1
 336 392 l 1
 447 355 503 297 503 223 c 0
 503 103 410 14 256 1 c 1
 237 -104 l 1
 184 -104 l 1
 204 1 l 1
 136 5 77 18 25 40 c 1
 58 206 l 1
 126 206 l 1xea
 122 87 l 1
 134 78 l 1
 163 66 191 59 216 57 c 1
 260 290 l 1
 156 329 104 385 104 460 c 0
 104 571 195 661 337 670 c 1
 352 744 l 1xd4
327 615 m 1
 260 607 218 560 218 501 c 0
 218 459 240 429 287 410 c 1
 327 615 l 1
311 273 m 1
 269 57 l 1
 342 66 387 116 387 175 c 0xc2
 387 219 360 255 311 273 c 1
EndSplineSet
Substitution2: "'smcp' Lowercase to Small Capitals in Latin lookup 2 subtable" dollar.sc
EndChar

StartChar: percent
Encoding: 37 37 6
Width: 898
GlyphClass: 2
Flags: MW
HStem: -12 45<625 656 625 694> 0 21G<142 218 142 142> 263 45<180 222 180 249> 363 44<685.5 716> 638 45<240.5 271> 651 20G<681 756 756 756>
VStem: 55 93<363.5 422 363.5 487> 142 76<0 0> 303 97<482.5 581.5 456 583.5> 500 94<87 145.5 87 213> 681 75<671 671> 749 97<249 306.5 181 307.5>
LayerCount: 2
Fore
SplineSet
265 683 m 0x3ac0
 349 683 400 627 400 536 c 0
 400 376 308 263 190 263 c 0
 107 263 55 319 55 403 c 0
 55 571 146 683 265 683 c 0x3ac0
681 671 m 1x75e0
 756 671 l 1
 218 0 l 1
 142 0 l 1
 681 671 l 1x75e0
255 638 m 0x3ac0
 226 638 202 615 183 569 c 0
 161 516 148 453 148 391 c 0
 148 336 163 308 197 308 c 0
 247 308 303 409 303 556 c 0
 303 611 287 638 255 638 c 0x3ac0
711 407 m 0
 795 407 846 352 846 261 c 0
 846 101 753 -12 635 -12 c 0xb0d0
 552 -12 500 44 500 129 c 0
 500 297 592 407 711 407 c 0
700 363 m 0
 671 363 648 340 629 294 c 0
 607 242 594 177 594 114 c 0
 594 60 609 33 641 33 c 0
 671 33 694 56 714 102 c 0
 735 152 749 218 749 280 c 0
 749 335 732 363 700 363 c 0
EndSplineSet
EndChar

StartChar: ampersand
Encoding: 38 38 7
Width: 730
GlyphClass: 2
Flags: MW
HStem: -13 82<235 236> -7 56<533 660.5> 325 48<493 697> 629 55<313 362.5>
VStem: 19 127<158.5 201.5> 127 117<502.5 546.5> 414 114<511 569>
LayerCount: 2
Fore
SplineSet
697 373 m 1xb6
 697 324 l 1
 627 315 l 1
 593 255 552 199 504 148 c 1
 551 80 594 49 658 49 c 0
 663 49 668 50 673 50 c 1
 673 2 l 1
 614 -4 l 2
 598 -5 581 -7 564 -7 c 0x76
 502 -7 457 19 417 74 c 1
 347 17 272 -13 200 -13 c 0
 94 -13 19 62 19 158 c 0xba
 19 245 78 315 190 358 c 1
 148 404 127 449 127 495 c 0
 127 598 223 684 354 684 c 0
 463 684 528 625 528 542 c 0
 528 461 461 391 338 362 c 1
 471 189 l 1
 495 211 522 248 549 301 c 1
 540 318 l 1
 493 325 l 1
 493 373 l 1
 697 373 l 1xb6
387 112 m 1
 222 322 l 1
 171 289 146 248 146 195 c 0
 146 122 199 69 271 69 c 0xba
 311 69 351 84 387 112 c 1
305 394 m 1
 377 429 414 480 414 542 c 0
 414 596 385 629 340 629 c 0
 286 629 244 586 244 520 c 0x36
 244 485 265 443 305 394 c 1
EndSplineSet
EndChar

StartChar: quotesingle
Encoding: 39 39 8
Width: 175
GlyphClass: 2
Flags: MW
HStem: 418 296<78 78 78 97>
VStem: 41 93<658 678> 78 19<418 418>
LayerCount: 2
Fore
SplineSet
78 418 m 1xa0
 42 642 l 2
 41 649 41 655 41 661 c 0
 41 695 58 714 87 714 c 0
 117 714 134 696 134 661 c 0xc0
 134 655 134 648 133 642 c 2
 97 418 l 1
 78 418 l 1xa0
EndSplineSet
EndChar

StartChar: parenleft
Encoding: 40 40 9
Width: 420
GlyphClass: 2
Flags: MW
HStem: -142 51<296 306> 667 51<449 458>
VStem: 66 113<56.5 149 49.5 188.5>
LayerCount: 2
Fore
SplineSet
458 718 m 1
 449 667 l 1
 398 662 349 634 313 587 c 0
 276 539 248 482 229 414 c 0
 193 287 179 185 179 113 c 0
 179 -14 225 -84 306 -91 c 1
 296 -142 l 1
 152 -140 66 -34 66 147 c 0
 66 230 83 328 120 433 c 0
 147 511 189 576 247 630 c 0
 306 686 378 716 458 718 c 1
EndSplineSet
Substitution2: "'sups' Superscript lookup 13 subtable" uni207D
Substitution2: "'subs' Subscript lookup 12 subtable" uni208D
EndChar

StartChar: parenright
Encoding: 41 41 10
Width: 420
GlyphClass: 2
Flags: MW
HStem: -142 51<-61 -52> 667 51<91 101>
VStem: 218 113<432.5 522 392.5 528>
LayerCount: 2
Fore
SplineSet
101 718 m 1
 244 715 331 611 331 433 c 0
 331 352 314 256 280 153 c 0
 253 71 210 2 150 -54 c 0
 90 -110 19 -140 -61 -142 c 1
 -52 -91 l 1
 -1 -87 47 -59 84 -11 c 0
 123 39 152 99 171 171 c 0
 205 298 218 399 218 466 c 0
 218 590 171 660 91 667 c 1
 101 718 l 1
EndSplineSet
Substitution2: "'sups' Superscript lookup 13 subtable" uni207E
Substitution2: "'subs' Subscript lookup 12 subtable" uni208E
EndChar

StartChar: asterisk
Encoding: 42 42 11
Width: 500
GlyphClass: 2
Flags: MW
HStem: 473 20G<262 262 295 295>
LayerCount: 2
Fore
SplineSet
320 718 m 1
 357 657 l 1
 294 532 l 1
 278 532 l 1
 262 657 l 1
 320 718 l 1
423 598 m 1
 490 572 l 1
 435 508 l 1
 304 506 l 1
 303 522 l 1
 423 598 l 1
295 493 m 1
 386 415 l 1
 369 338 l 1
 299 360 l 1
 280 484 l 1
 295 493 l 1
262 493 m 1
 273 484 l 1
 209 359 l 1
 131 338 l 1
 143 415 l 1
 262 493 l 1
174 598 m 1
 266 522 l 1
 258 507 l 1
 128 508 l 1
 97 571 l 1
 174 598 l 1
EndSplineSet
EndChar

StartChar: plus
Encoding: 43 43 12
Width: 833
GlyphClass: 2
Flags: MW
HStem: 0 21G<375 458 375 375> 258 81<124 375 124 375 458 709>
VStem: 375 83<0 258 0 258 339 596>
LayerCount: 2
Fore
SplineSet
458 596 m 1
 458 339 l 1
 709 339 l 1
 709 258 l 1
 458 258 l 1
 458 0 l 1
 375 0 l 1
 375 258 l 1
 124 258 l 1
 124 339 l 1
 375 339 l 1
 375 596 l 1
 458 596 l 1
EndSplineSet
Substitution2: "'sups' Superscript lookup 13 subtable" uni207A
Substitution2: "'subs' Subscript lookup 12 subtable" uni208A
EndChar

StartChar: comma
Encoding: 44 44 13
Width: 292
GlyphClass: 2
Flags: MW
HStem: -175 46<-57 -49>
VStem: 12 156<37 69>
LayerCount: 2
Fore
SplineSet
-57 -175 m 1
 -49 -129 l 1
 28 -115 73 -69 84 7 c 1
 23 7 l 1
 15 18 12 30 12 44 c 0
 12 94 47 129 94 129 c 0
 141 129 168 100 168 52 c 0
 168 -53 76 -159 -57 -175 c 1
EndSplineSet
EndChar

StartChar: hyphen
Encoding: 45 45 14
Width: 320
GlyphClass: 2
Flags: MW
HStem: 192 98<28 264 10 281>
VStem: 10 271<192 290>
LayerCount: 2
Fore
SplineSet
28 290 m 1
 281 290 l 1
 264 192 l 1
 10 192 l 1
 28 290 l 1
EndSplineSet
Substitution2: "'sups' Superscript lookup 13 subtable" uni207B
Substitution2: "'subs' Subscript lookup 12 subtable" uni208B
EndChar

StartChar: period
Encoding: 46 46 15
Width: 294
GlyphClass: 2
Flags: MW
HStem: -6 155<77.5 119>
VStem: 22 152<49.5 92.5>
LayerCount: 2
Fore
SplineSet
98 149 m 0
 141 149 174 115 174 71 c 0
 174 27 140 -6 98 -6 c 0
 57 -6 22 28 22 71 c 0
 22 114 56 149 98 149 c 0
EndSplineSet
EndChar

StartChar: slash
Encoding: 47 47 16
Width: 481
GlyphClass: 2
Flags: MW
HStem: 651 20G<443 525 525 525>
VStem: -119 83<-93 -93> 443 82<671 671>
LayerCount: 2
Fore
SplineSet
443 671 m 1
 525 671 l 1
 -36 -93 l 1
 -119 -93 l 1
 443 671 l 1
EndSplineSet
EndChar

StartChar: zero
Encoding: 48 48 17
Width: 586
GlyphClass: 2
Flags: MW
HStem: -12 59<216 269.5 216 278.5> 625 58<319 373>
VStem: 29 128<147.5 232.5 134 277> 428 127<439 519 385 540>
LayerCount: 2
Fore
SplineSet
352 683 m 0
 479 683 555 594 555 444 c 0
 555 326 524 216 471 131 c 0
 411 36 329 -12 228 -12 c 0
 111 -12 29 80 29 215 c 0
 29 339 61 453 117 541 c 0
 175 633 262 683 352 683 c 0
346 625 m 0
 292 625 253 584 219 501 c 0
 182 409 157 288 157 177 c 0
 157 91 188 47 244 47 c 0
 295 47 334 87 367 168 c 0
 404 260 428 380 428 498 c 0
 428 582 400 625 346 625 c 0
EndSplineSet
Substitution2: "'pnum' Proportional Numbers lookup 15 subtable" zero.lf
Substitution2: "'onum' Oldstyle Figures lookup 14 subtable" zero.tosf
Substitution2: "'sups' Superscript lookup 13 subtable" uni2070
Substitution2: "'subs' Subscript lookup 12 subtable" uni2080
Substitution2: "'numr' Numerators lookup 11 subtable" zero.numerator
Substitution2: "'dnom' Denominators lookup 10 subtable" zero.denominator
EndChar

StartChar: one
Encoding: 49 49 18
Width: 586
GlyphClass: 2
Flags: MW
HStem: 0 50<79 425> 561 49<142 142> 661 20G<377 437 437 437>
LayerCount: 2
Fore
SplineSet
377 681 m 1
 437 681 l 1
 322 72 l 1
 332 56 l 1
 425 50 l 1
 425 0 l 1
 79 0 l 1
 79 52 l 1
 185 58 l 1
 201 75 l 1
 295 574 l 1
 284 579 l 1
 142 561 l 1
 142 610 l 1
 377 681 l 1
EndSplineSet
Substitution2: "'pnum' Proportional Numbers lookup 15 subtable" one.lf
Substitution2: "'onum' Oldstyle Figures lookup 14 subtable" one.tosf
Substitution2: "'sups' Superscript lookup 13 subtable" one.superior
Substitution2: "'subs' Subscript lookup 12 subtable" uni2081
Substitution2: "'numr' Numerators lookup 11 subtable" one.numerator
Substitution2: "'dnom' Denominators lookup 10 subtable" one.denominator
EndChar

StartChar: two
Encoding: 50 50 19
Width: 586
GlyphClass: 2
Flags: MW
HStem: 0 101<132 411 132 475> 618 64<296 328.5>
VStem: 401 130<447.5 545.5>
LayerCount: 2
Fore
SplineSet
132 101 m 1
 411 101 l 1
 444 191 l 1
 510 191 l 1
 475 0 l 1
 -3 0 l 1
 3 75 l 1
 262 254 401 373 401 513 c 0
 401 578 361 618 296 618 c 0
 279 618 259 615 238 609 c 1
 213 473 l 1
 194 463 174 458 155 458 c 0
 116 458 94 482 94 519 c 0
 94 546 108 576 135 603 c 0
 184 652 257 682 335 682 c 0
 455 682 531 613 531 513 c 0
 531 382 397 254 132 101 c 1
EndSplineSet
Substitution2: "'pnum' Proportional Numbers lookup 15 subtable" two.lf
Substitution2: "'onum' Oldstyle Figures lookup 14 subtable" two.tosf
Substitution2: "'sups' Superscript lookup 13 subtable" two.superior
Substitution2: "'subs' Subscript lookup 12 subtable" uni2082
Substitution2: "'numr' Numerators lookup 11 subtable" two.numerator
Substitution2: "'dnom' Denominators lookup 10 subtable" two.denominator
EndChar

StartChar: three
Encoding: 51 51 20
Width: 586
GlyphClass: 2
Flags: MW
HStem: -11 58<190 242> 313 66<240 279.5 220 287> 622 61<287 328>
VStem: 12 117<77.5 171> 366 139<187.5 242> 402 137<496 553>
LayerCount: 2
Fore
SplineSet
339 357 m 1xf4
 450 350 505 303 505 215 c 0
 505 160 473 101 414 56 c 0
 358 14 282 -11 202 -11 c 0
 85 -11 12 47 12 108 c 0
 12 150 43 182 83 182 c 0
 96 182 111 178 129 171 c 1
 141 63 l 1
 163 53 182 47 198 47 c 0
 298 47 366 114 366 209 c 0xf8
 366 275 325 313 249 313 c 0
 231 313 210 311 186 307 c 1
 198 380 l 1
 207 379 216 379 224 379 c 0
 335 379 402 439 402 524 c 0
 402 582 360 622 296 622 c 0
 278 622 258 617 238 609 c 1
 218 491 l 1
 196 482 179 476 164 476 c 0
 128 476 103 501 103 536 c 0
 103 607 202 683 348 683 c 0
 468 683 539 619 539 537 c 0
 539 455 468 383 339 357 c 1xf4
EndSplineSet
Substitution2: "'pnum' Proportional Numbers lookup 15 subtable" three.lf
Substitution2: "'onum' Oldstyle Figures lookup 14 subtable" three.tosf
Substitution2: "'sups' Superscript lookup 13 subtable" three.superior
Substitution2: "'subs' Subscript lookup 12 subtable" uni2083
Substitution2: "'numr' Numerators lookup 11 subtable" three.numerator
Substitution2: "'dnom' Denominators lookup 10 subtable" three.denominator
EndChar

StartChar: four
Encoding: 52 52 21
Width: 586
GlyphClass: 2
Flags: MW
HStem: 180 79<14 14 107 309 -2 14 439 536> 656 20G<420 518 518 518>
VStem: 270 114<-32 -32>
LayerCount: 2
Fore
SplineSet
420 676 m 1
 518 676 l 1
 439 259 l 1
 550 259 l 1
 536 180 l 1
 425 180 l 1
 384 -32 l 1
 270 -32 l 1
 309 180 l 1
 -2 180 l 1
 14 259 l 1
 420 676 l 1
381 543 m 1
 107 259 l 1
 325 259 l 1
 381 543 l 1
EndSplineSet
Substitution2: "'pnum' Proportional Numbers lookup 15 subtable" four.lf
Substitution2: "'onum' Oldstyle Figures lookup 14 subtable" four.tosf
Substitution2: "'sups' Superscript lookup 13 subtable" uni2074
Substitution2: "'subs' Subscript lookup 12 subtable" uni2084
Substitution2: "'numr' Numerators lookup 11 subtable" four.numerator
Substitution2: "'dnom' Denominators lookup 10 subtable" four.denominator
EndChar

StartChar: five
Encoding: 53 53 22
Width: 586
GlyphClass: 2
Flags: MW
HStem: -10 57<186.5 249 186.5 283.5> 343 77<199 370.5> 570 101<224 532 224 224>
VStem: 373 131<183 256.5>
LayerCount: 2
Fore
SplineSet
166 671 m 1
 551 671 l 1
 532 570 l 1
 224 570 l 1
 189 400 l 1
 239 414 279 420 310 420 c 0
 431 420 504 354 504 256 c 0
 504 110 373 -10 194 -10 c 0
 87 -10 20 43 20 104 c 0
 20 143 49 173 92 173 c 0
 106 173 119 170 132 164 c 1
 147 56 l 1
 161 50 177 47 196 47 c 0
 302 47 373 124 373 218 c 0
 373 295 317 343 217 343 c 0
 181 343 142 339 100 334 c 1
 166 671 l 1
EndSplineSet
Substitution2: "'pnum' Proportional Numbers lookup 15 subtable" five.lf
Substitution2: "'onum' Oldstyle Figures lookup 14 subtable" five.tosf
Substitution2: "'sups' Superscript lookup 13 subtable" uni2075
Substitution2: "'subs' Subscript lookup 12 subtable" uni2085
Substitution2: "'numr' Numerators lookup 11 subtable" five.numerator
Substitution2: "'dnom' Denominators lookup 10 subtable" five.denominator
EndChar

StartChar: six
Encoding: 54 54 23
Width: 586
GlyphClass: 2
Flags: MW
HStem: -12 63<234 301.5 234 325.5> 377 79<263.5 407> 656 63<508 516>
VStem: 31 130<160.5 237 160.5 298.5> 402 129<193 284>
LayerCount: 2
Fore
SplineSet
508 719 m 1
 516 656 l 1
 357 641 238 548 194 405 c 1
 247 439 300 456 353 456 c 0
 461 456 531 384 531 268 c 0
 531 118 406 -12 245 -12 c 0
 115 -12 31 75 31 226 c 0
 31 371 99 510 217 605 c 0
 295 668 391 706 508 719 c 1
180 349 m 1
 168 308 161 261 161 213 c 0
 161 108 202 51 266 51 c 0
 337 51 402 130 402 238 c 0
 402 330 361 377 280 377 c 0
 247 377 214 368 180 349 c 1
EndSplineSet
Substitution2: "'pnum' Proportional Numbers lookup 15 subtable" six.lf
Substitution2: "'onum' Oldstyle Figures lookup 14 subtable" six.tosf
Substitution2: "'sups' Superscript lookup 13 subtable" uni2076
Substitution2: "'subs' Subscript lookup 12 subtable" uni2086
Substitution2: "'numr' Numerators lookup 11 subtable" six.numerator
Substitution2: "'dnom' Denominators lookup 10 subtable" six.denominator
EndChar

StartChar: seven
Encoding: 55 55 24
Width: 586
GlyphClass: 2
Flags: MW
HStem: 563 108<197 483 197 197>
LayerCount: 2
Fore
SplineSet
136 671 m 1
 612 671 l 1
 602 610 l 1
 185 -7 l 1
 183 -34 l 1
 74 -34 l 1
 483 563 l 1
 197 563 l 1
 163 464 l 1
 97 464 l 1
 136 671 l 1
EndSplineSet
Substitution2: "'pnum' Proportional Numbers lookup 15 subtable" seven.lf
Substitution2: "'onum' Oldstyle Figures lookup 14 subtable" seven.tosf
Substitution2: "'sups' Superscript lookup 13 subtable" uni2077
Substitution2: "'subs' Subscript lookup 12 subtable" uni2087
Substitution2: "'numr' Numerators lookup 11 subtable" seven.numerator
Substitution2: "'dnom' Denominators lookup 10 subtable" seven.denominator
EndChar

StartChar: eight
Encoding: 56 56 25
Width: 586
GlyphClass: 2
Flags: MW
HStem: -18 61<230 305 230 329.5> 628 58<309 371>
VStem: 24 120<128.5 194> 102 124<482 533> 397 128<144.5 201.5> 436 113<497 557>
LayerCount: 2
Fore
SplineSet
354 379 m 1xd4
 407 413 436 468 436 526 c 0
 436 588 399 628 343 628 c 0
 275 628 226 579 226 510 c 0
 226 454 267 421 354 379 c 1xd4
399 358 m 1
 484 316 525 272 525 206 c 0
 525 83 412 -18 247 -18 c 0
 104 -18 24 51 24 155 c 0xe8
 24 233 82 302 189 338 c 1
 130 370 102 415 102 475 c 0
 102 591 208 686 355 686 c 0
 478 686 549 625 549 536 c 0
 549 457 498 395 399 358 c 1
230 313 m 1
 172 274 144 226 144 166 c 0
 144 91 193 43 267 43 c 0
 343 43 397 95 397 169 c 0
 397 234 341 262 230 313 c 1
EndSplineSet
Substitution2: "'pnum' Proportional Numbers lookup 15 subtable" eight.lf
Substitution2: "'onum' Oldstyle Figures lookup 14 subtable" eight.tosf
Substitution2: "'sups' Superscript lookup 13 subtable" uni2078
Substitution2: "'subs' Subscript lookup 12 subtable" uni2088
Substitution2: "'numr' Numerators lookup 11 subtable" eight.numerator
Substitution2: "'dnom' Denominators lookup 10 subtable" eight.denominator
EndChar

StartChar: nine
Encoding: 57 57 26
Width: 586
GlyphClass: 2
Flags: MW
HStem: -58 56<56 72> 223 76<177.5 315.5> 624 60<306.5 352>
VStem: 48 132<391.5 449> 427 130<450 518>
LayerCount: 2
Fore
SplineSet
408 333 m 1
 422 388 427 433 427 467 c 0
 427 569 383 624 321 624 c 0
 251 624 180 543 180 434 c 0
 180 349 225 299 298 299 c 0
 333 299 370 310 408 333 c 1
72 -58 m 1
 56 -2 l 1
 211 45 321 136 387 270 c 1
 323 239 272 223 233 223 c 0
 122 223 48 297 48 407 c 0
 48 491 92 575 168 629 c 0
 219 665 275 684 338 684 c 0
 478 684 557 603 557 464 c 0
 557 241 382 31 72 -58 c 1
EndSplineSet
Substitution2: "'pnum' Proportional Numbers lookup 15 subtable" nine.lf
Substitution2: "'onum' Oldstyle Figures lookup 14 subtable" nine.tosf
Substitution2: "'sups' Superscript lookup 13 subtable" uni2079
Substitution2: "'subs' Subscript lookup 12 subtable" uni2089
Substitution2: "'numr' Numerators lookup 11 subtable" nine.numerator
Substitution2: "'dnom' Denominators lookup 10 subtable" nine.denominator
EndChar

StartChar: colon
Encoding: 58 58 27
Width: 346
GlyphClass: 2
Flags: MW
HStem: -6 155<104.5 146> 332 154<165.5 206 164.5 207>
VStem: 50 152<49.5 92.5> 110 152<387.5 430.5>
LayerCount: 2
Fore
SplineSet
185 486 m 0xd0
 227 486 262 452 262 409 c 0
 262 366 228 332 186 332 c 0
 145 332 110 366 110 409 c 0
 110 452 144 486 185 486 c 0xd0
125 149 m 0
 167 149 202 115 202 71 c 0
 202 28 167 -6 125 -6 c 0
 84 -6 50 28 50 71 c 0xe0
 50 114 83 149 125 149 c 0
EndSplineSet
EndChar

StartChar: semicolon
Encoding: 59 59 28
Width: 346
GlyphClass: 2
Flags: MW
HStem: -175 46<-24 -16> 332 154<165.5 206 164.5 207>
VStem: 44 157<38 69.5> 110 152<387.5 430.5>
LayerCount: 2
Fore
SplineSet
185 486 m 0xd0
 227 486 262 452 262 409 c 0
 262 366 228 332 186 332 c 0
 145 332 110 366 110 409 c 0
 110 452 144 486 185 486 c 0xd0
-24 -175 m 1
 -16 -129 l 1
 61 -115 106 -68 116 7 c 1
 56 7 l 1
 48 18 44 31 44 45 c 0
 44 94 80 129 126 129 c 0
 173 129 201 99 201 52 c 0xe0
 201 -52 109 -159 -24 -175 c 1
EndSplineSet
EndChar

StartChar: less
Encoding: 60 60 29
Width: 833
GlyphClass: 2
Flags: MW
VStem: 129 119<298 298 298 337 298 337>
LayerCount: 2
Fore
SplineSet
704 484 m 1
 248 298 l 1
 704 112 l 1
 704 23 l 1
 129 259 l 1
 129 337 l 1
 704 574 l 1
 704 484 l 1
EndSplineSet
EndChar

StartChar: equal
Encoding: 61 61 30
Width: 833
GlyphClass: 2
Flags: MW
HStem: 157 81<124 709 124 709> 358 82<124 709 124 709>
LayerCount: 2
Fore
SplineSet
709 440 m 1
 709 358 l 1
 124 358 l 1
 124 440 l 1
 709 440 l 1
709 238 m 1
 709 157 l 1
 124 157 l 1
 124 238 l 1
 709 238 l 1
EndSplineSet
Substitution2: "'sups' Superscript lookup 13 subtable" uni207C
Substitution2: "'subs' Subscript lookup 12 subtable" uni208C
EndChar

StartChar: greater
Encoding: 62 62 31
Width: 833
GlyphClass: 2
Flags: MW
VStem: 585 119<298 298>
LayerCount: 2
Fore
SplineSet
704 337 m 1
 704 259 l 1
 129 23 l 1
 129 112 l 1
 585 298 l 1
 129 484 l 1
 129 574 l 1
 704 337 l 1
EndSplineSet
EndChar

StartChar: question
Encoding: 63 63 32
Width: 492
GlyphClass: 2
Flags: MW
HStem: -7 152<136 161.5> 625 58<229 232 229 229>
VStem: 74 150<55.5 82> 136 65<193 193> 341 129<485 559.5>
LayerCount: 2
Fore
SplineSet
218 284 m 1xd8
 201 193 l 1
 136 193 l 1
 161 328 l 1
 278 366 341 441 341 529 c 0
 341 590 303 625 232 625 c 2
 229 625 l 1
 163 512 l 1
 156 511 149 511 143 511 c 0
 101 511 79 528 79 560 c 0
 79 623 157 683 279 683 c 0
 399 683 470 624 470 529 c 0
 470 422 385 335 218 284 c 1xd8
158 145 m 0
 196 145 224 116 224 78 c 0
 224 33 185 -7 138 -7 c 0
 104 -7 74 22 74 59 c 0xe8
 74 105 114 145 158 145 c 0
EndSplineSet
EndChar

StartChar: at
Encoding: 64 64 33
Width: 936
GlyphClass: 2
Flags: MW
HStem: -153 55<421 524> 54 64<595.5 681.5> 57 70<360.5 466.5> 444 48<485.5 528.5> 643 50<482.5 620.5>
VStem: 76 76<187 312.5> 272 104<198.5 248.5> 820 51<336 453>
LayerCount: 2
Fore
SplineSet
545 442 m 1xbf
 538 443 532 444 525 444 c 0
 443 444 376 356 376 233 c 0
 376 164 402 127 450 127 c 0
 483 127 514 148 545 190 c 1
 582 389 l 1
 545 442 l 1xbf
542 135 m 1
 490 83 443 57 397 57 c 0xbf
 324 57 272 118 272 217 c 0
 272 280 291 339 327 388 c 0
 376 454 450 492 521 492 c 0
 553 492 585 483 619 465 c 1
 637 488 l 1
 705 488 l 1
 693 458 687 423 678 384 c 2
 641 214 l 2
 636 190 632 169 632 152 c 0
 632 133 648 118 668 118 c 0
 695 118 726 135 753 169 c 0
 795 222 820 295 820 375 c 0
 820 531 707 643 534 643 c 0
 431 643 343 610 274 546 c 0
 192 470 152 375 152 259 c 0
 152 44 293 -98 504 -98 c 0
 592 -98 680 -74 764 -26 c 1
 781 -65 l 1
 675 -124 571 -153 477 -153 c 0
 365 -153 265 -114 188 -40 c 0
 114 31 76 128 76 246 c 0
 76 379 125 490 221 578 c 0
 301 651 412 693 534 693 c 0
 737 693 871 562 871 373 c 0
 871 299 852 233 815 176 c 0
 765 99 688 54 622 54 c 0xdf
 569 54 542 81 542 135 c 1
EndSplineSet
EndChar

StartChar: A
Encoding: 65 65 34
Width: 634
GlyphClass: 2
Flags: MW
HStem: 0 49<-68 147> 236 55<200 383 200 393 170 383> 657 20G<339 442 442 442>
AnchorPoint: "Anchor-3" 495 0 basechar 0
AnchorPoint: "Anchor-2" 267 0 basechar 0
AnchorPoint: "Anchor-1" 392 684 basechar 0
LayerCount: 2
Fore
SplineSet
339 677 m 1
 442 677 l 1
 544 69 l 1
 554 56 l 1
 612 49 l 1
 612 0 l 1
 349 0 l 1
 349 49 l 1
 410 55 l 1
 421 70 l 1
 393 236 l 1
 170 236 l 1
 78 68 l 1
 88 53 l 1
 147 49 l 1
 147 0 l 1
 -68 0 l 1
 -68 48 l 1
 -12 56 l 1
 339 677 l 1
342 551 m 1
 200 291 l 1
 383 291 l 1
 342 551 l 1
EndSplineSet
Substitution2: "'c2sc' Capitals to Small Capitals in Latin lookup 4 subtable" a.sc
Position2: "'cpsp' Capital Spacing in Latin lookup 2 subtable" dx=7 dy=0 dh=14 dv=0
EndChar

StartChar: B
Encoding: 66 66 35
Width: 628
GlyphClass: 2
Flags: MW
HStem: 0 53<226.5 275> 321 52<274.5 329 269.5 330> 620 51<316 362.5>
VStem: 423 138<162.5 252.5> 443 136<499.5 559>
AnchorPoint: "Anchor-2" 218 0 basechar 0
AnchorPoint: "Anchor-1" 351 684 basechar 0
LayerCount: 2
Fore
SplineSet
82 671 m 1xf0
 382 671 l 2
 514 671 579 630 579 544 c 0xe8
 579 455 520 388 406 358 c 1
 508 353 561 305 561 220 c 0
 561 82 462 0 275 0 c 2
 -23 0 l 1
 -23 49 l 1
 41 54 l 1
 56 69 l 1
 157 605 l 1
 146 619 l 1
 82 624 l 1
 82 671 l 1xf0
239 375 m 1
 252 374 264 373 275 373 c 0
 383 373 443 431 443 528 c 0
 443 590 403 620 322 620 c 0
 310 620 298 619 284 618 c 1
 239 375 l 1
180 56 m 1
 199 54 218 53 235 53 c 0
 360 53 423 108 423 217 c 0xf0
 423 288 377 321 283 321 c 0
 266 321 249 320 230 318 c 1
 180 56 l 1
EndSplineSet
Substitution2: "'c2sc' Capitals to Small Capitals in Latin lookup 4 subtable" b.sc
Position2: "'cpsp' Capital Spacing in Latin lookup 2 subtable" dx=7 dy=0 dh=14 dv=0
EndChar

StartChar: C
Encoding: 67 67 36
Width: 625
GlyphClass: 2
Flags: MW
HStem: -13 60<310 354> 622 62<425.5 471.5>
VStem: 37 139<195 320> 539 66<481 481>
AnchorPoint: "Anchor-2" 325 0 basechar 0
AnchorPoint: "Anchor-1" 439 684 basechar 0
LayerCount: 2
Fore
SplineSet
636 650 m 1
 605 481 l 1
 539 481 l 1
 538 590 l 1
 528 608 l 1
 503 617 481 622 462 622 c 0
 389 622 328 597 281 549 c 0
 216 483 176 381 176 263 c 0
 176 127 250 47 370 47 c 0
 387 47 406 49 427 54 c 1
 446 72 l 1
 492 196 l 1
 559 196 l 1
 527 23 l 1
 456 -1 386 -13 322 -13 c 0
 150 -13 37 100 37 272 c 0
 37 368 68 457 131 537 c 0
 203 628 319 684 440 684 c 0
 505 684 569 672 636 650 c 1
EndSplineSet
Substitution2: "'c2sc' Capitals to Small Capitals in Latin lookup 4 subtable" c.sc
Position2: "'cpsp' Capital Spacing in Latin lookup 2 subtable" dx=7 dy=0 dh=14 dv=0
EndChar

StartChar: D
Encoding: 68 68 37
Width: 702
GlyphClass: 2
Flags: MW
HStem: 0 49<-25 224 -25 -25> 0 57<181 222 222 224> 615 56<285 285 285 339> 623 48<82 352>
VStem: 519 141<369 481>
AnchorPoint: "Anchor-2" 251 0 basechar 0
AnchorPoint: "Anchor-1" 384 684 basechar 0
LayerCount: 2
Fore
SplineSet
82 671 m 1x98
 352 671 l 2
 555 671 660 581 660 416 c 0
 660 299 615 188 536 108 c 0
 460 32 360 0 224 0 c 2x68
 -25 0 l 1
 -25 49 l 1
 41 54 l 1
 55 69 l 1
 156 603 l 1
 146 618 l 1
 82 623 l 1
 82 671 l 1x98
285 615 m 1
 181 57 l 1
 222 57 l 2
 321 57 391 88 440 155 c 0
 488 221 519 320 519 418 c 0
 519 544 453 615 339 615 c 2
 285 615 l 1
EndSplineSet
Substitution2: "'c2sc' Capitals to Small Capitals in Latin lookup 4 subtable" d.sc
Position2: "'cpsp' Capital Spacing in Latin lookup 2 subtable" dx=7 dy=0 dh=14 dv=0
EndChar

StartChar: E
Encoding: 69 69 38
Width: 581
GlyphClass: 2
Flags: MW
HStem: 0 48<-22 491 -22 -22> 0 58<180 406 180 491> 319 56<241 351 230 363> 615 56<286 474 286 286> 622 49<85 580>
VStem: 362 54<230 230> 486 64<515 515>
AnchorPoint: "Anchor-3" 223 0 basechar 0
AnchorPoint: "Anchor-2" 223 0 basechar 0
AnchorPoint: "Anchor-1" 356 684 basechar 0
LayerCount: 2
Fore
SplineSet
85 671 m 1xae
 580 671 l 1xae
 550 515 l 1
 486 515 l 1
 485 600 l 1
 474 615 l 1
 286 615 l 1
 241 375 l 1
 363 375 l 1
 378 389 l 1
 403 463 l 1
 460 463 l 1
 416 230 l 1
 362 230 l 1
 364 305 l 1
 351 319 l 1
 230 319 l 1
 180 58 l 1
 406 58 l 1x76
 420 72 l 1
 458 179 l 1
 524 179 l 1
 491 0 l 1
 -22 0 l 1
 -22 48 l 1
 43 54 l 1
 57 69 l 1
 158 601 l 1
 149 617 l 1
 85 622 l 1
 85 671 l 1xae
EndSplineSet
Substitution2: "'c2sc' Capitals to Small Capitals in Latin lookup 4 subtable" e.sc
Position2: "'cpsp' Capital Spacing in Latin lookup 2 subtable" dx=7 dy=0 dh=14 dv=0
EndChar

StartChar: F
Encoding: 70 70 39
Width: 539
GlyphClass: 2
Flags: MW
HStem: 0 50<-23 261> 306 58<237 345 227 356> 614 57<285 461 285 285> 623 48<83 569>
VStem: 357 55<216 216> 473 63<503 503>
AnchorPoint: "Anchor-2" 196 0 basechar 0
AnchorPoint: "Anchor-1" 329 684 basechar 0
LayerCount: 2
Fore
SplineSet
83 671 m 1xdc
 569 671 l 1xdc
 536 503 l 1
 473 503 l 1
 471 601 l 1
 461 614 l 1
 285 614 l 1xec
 237 364 l 1
 356 364 l 1
 374 376 l 1
 400 451 l 1
 457 451 l 1
 412 216 l 1
 357 216 l 1
 359 294 l 1
 345 306 l 1
 227 306 l 1
 182 70 l 1
 194 55 l 1
 261 50 l 1
 257 0 l 1
 -23 0 l 1
 -23 48 l 1
 43 55 l 1
 56 69 l 1
 158 605 l 1
 148 618 l 1
 83 623 l 1
 83 671 l 1xdc
EndSplineSet
Substitution2: "'c2sc' Capitals to Small Capitals in Latin lookup 4 subtable" f.sc
Position2: "'cpsp' Capital Spacing in Latin lookup 2 subtable" dx=7 dy=0 dh=14 dv=0
EndChar

StartChar: G
Encoding: 71 71 40
Width: 693
GlyphClass: 2
Flags: MW
HStem: -12 63<314.5 359.5> 281 49<388 671> 623 62<439.5 486.5>
VStem: 38 139<200.5 326.5 200.5 337.5> 554 72<481 481>
AnchorPoint: "Anchor-2" 328 0 basechar 0
AnchorPoint: "Anchor-1" 461 684 basechar 0
LayerCount: 2
Fore
SplineSet
657 652 m 1
 626 481 l 1
 554 481 l 1
 556 592 l 1
 544 611 l 1
 519 619 497 623 476 623 c 0
 403 623 341 599 293 556 c 0
 220 490 177 386 177 267 c 0
 177 134 253 51 376 51 c 0
 389 51 406 52 429 54 c 1
 467 261 l 1
 456 275 l 1
 388 281 l 1
 388 330 l 1
 671 330 l 1
 671 282 l 1
 608 276 l 1
 593 262 l 1
 548 30 l 1
 468 2 393 -12 326 -12 c 0
 149 -12 38 99 38 270 c 0
 38 405 98 526 202 602 c 0
 277 656 365 685 462 685 c 0
 531 685 598 674 657 652 c 1
EndSplineSet
Substitution2: "'c2sc' Capitals to Small Capitals in Latin lookup 4 subtable" g.sc
Position2: "'cpsp' Capital Spacing in Latin lookup 2 subtable" dx=7 dy=0 dh=14 dv=0
EndChar

StartChar: H
Encoding: 72 72 41
Width: 747
GlyphClass: 2
Flags: MW
HStem: 0 49<-25 256 -25 -25> 321 60<240 508 228 520> 623 48<84 360>
AnchorPoint: "Anchor-2" 306 0 basechar 0
AnchorPoint: "Anchor-1" 439 684 basechar 0
LayerCount: 2
Fore
SplineSet
84 671 m 1
 360 671 l 1
 360 623 l 1
 295 618 l 1
 282 605 l 1
 240 381 l 1
 520 381 l 1
 562 603 l 1
 549 618 l 1
 489 624 l 1
 489 671 l 1
 767 671 l 1
 767 623 l 1
 701 618 l 1
 688 605 l 1
 587 70 l 1
 596 55 l 1
 660 48 l 1
 660 0 l 1
 383 0 l 1
 383 49 l 1
 446 55 l 1
 462 70 l 1
 508 321 l 1
 228 321 l 1
 181 70 l 1
 192 53 l 1
 256 49 l 1
 256 0 l 1
 -25 0 l 1
 -25 49 l 1
 39 54 l 1
 55 70 l 1
 156 603 l 1
 146 618 l 1
 84 622 l 1
 84 671 l 1
EndSplineSet
Substitution2: "'c2sc' Capitals to Small Capitals in Latin lookup 4 subtable" h.sc
Position2: "'cpsp' Capital Spacing in Latin lookup 2 subtable" dx=7 dy=0 dh=14 dv=0
EndChar

StartChar: I
Encoding: 73 73 42
Width: 353
GlyphClass: 2
Flags: MW
HStem: 0 49<-20 263 -20 -20> 623 48<87 369 87 369>
AnchorPoint: "Anchor-3" 110 0 basechar 0
AnchorPoint: "Anchor-2" 108 0 basechar 0
AnchorPoint: "Anchor-1" 241 684 basechar 0
LayerCount: 2
Fore
SplineSet
87 671 m 1
 369 671 l 1
 369 623 l 1
 303 619 l 1
 287 605 l 1
 186 67 l 1
 198 53 l 1
 263 49 l 1
 263 0 l 1
 -20 0 l 1
 -20 49 l 1
 46 54 l 1
 61 69 l 1
 162 605 l 1
 152 619 l 1
 87 623 l 1
 87 671 l 1
EndSplineSet
Substitution2: "'c2sc' Capitals to Small Capitals in Latin lookup 4 subtable" i.sc
Position2: "'cpsp' Capital Spacing in Latin lookup 2 subtable" dx=7 dy=0 dh=14 dv=0
EndChar

StartChar: J
Encoding: 74 74 43
Width: 474
GlyphClass: 2
Flags: MW
HStem: -13 57<74 76 76 129.5 74 175> 623 48<214 496 214 496>
VStem: -11 71<192 192>
AnchorPoint: "Anchor-2" 163 0 basechar 0
AnchorPoint: "Anchor-1" 373 684 basechar 0
LayerCount: 2
Fore
SplineSet
214 671 m 1
 496 671 l 1
 496 623 l 1
 429 617 l 1
 415 601 l 1
 358 268 l 2
 326 79 248 -13 102 -13 c 0
 46 -13 -3 -4 -45 14 c 1
 -11 192 l 1
 60 192 l 1
 61 56 l 1
 74 44 l 1
 76 44 l 2
 183 44 204 118 231 270 c 2
 291 604 l 1
 281 619 l 1
 214 623 l 1
 214 671 l 1
EndSplineSet
Substitution2: "'c2sc' Capitals to Small Capitals in Latin lookup 4 subtable" j.sc
Position2: "'cpsp' Capital Spacing in Latin lookup 2 subtable" dx=7 dy=0 dh=14 dv=0
EndChar

StartChar: K
Encoding: 75 75 44
Width: 653
GlyphClass: 2
Flags: MW
HStem: -7 54 0 49<-26 253 -26 -26> 293 50<231 261 231 284 221 261> 624 47<81 360 81 360>
AnchorPoint: "Anchor-2" 294 0 basechar 0
AnchorPoint: "Anchor-1" 427 684 basechar 0
LayerCount: 2
Fore
SplineSet
81 671 m 1x70
 360 671 l 1
 360 624 l 1
 294 619 l 1
 281 605 l 1
 231 343 l 1
 261 343 l 1
 512 601 l 1
 506 617 l 1
 444 622 l 1
 444 671 l 1
 694 671 l 1
 694 622 l 1
 614 614 l 1
 380 377 l 1
 508 121 l 2
 534 69 555 47 616 47 c 0
 623 47 630 48 637 48 c 1
 637 1 l 1
 580 -3 541 -7 518 -7 c 0xb0
 436 -7 412 27 375 103 c 2
 284 293 l 1
 221 293 l 1
 180 69 l 1
 191 53 l 1
 253 49 l 1
 253 0 l 1
 -26 0 l 1
 -26 49 l 1
 38 54 l 1
 53 69 l 1
 154 605 l 1
 144 619 l 1
 81 624 l 1
 81 671 l 1x70
EndSplineSet
Substitution2: "'c2sc' Capitals to Small Capitals in Latin lookup 4 subtable" k.sc
Position2: "'cpsp' Capital Spacing in Latin lookup 2 subtable" dx=7 dy=0 dh=14 dv=0
EndChar

StartChar: L
Encoding: 76 76 45
Width: 529
GlyphClass: 2
Flags: MW
HStem: 0 48<-25 450 -25 -25> 0 58<178 359 178 450> 624 47<81 360>
VStem: 416 72<197 197>
AnchorPoint: "Anchor-2" 200 0 basechar 0
AnchorPoint: "Anchor-1" 333 684 basechar 0
LayerCount: 2
Fore
SplineSet
81 671 m 1xb0
 360 671 l 1
 360 623 l 1
 297 618 l 1
 280 605 l 1
 178 58 l 1
 359 58 l 1x70
 377 72 l 1
 416 197 l 1
 488 197 l 1
 450 0 l 1
 -25 0 l 1
 -25 48 l 1
 37 54 l 1
 53 67 l 1
 154 605 l 1
 144 619 l 1
 81 624 l 1
 81 671 l 1xb0
EndSplineSet
Substitution2: "'c2sc' Capitals to Small Capitals in Latin lookup 4 subtable" l.sc
Position2: "'cpsp' Capital Spacing in Latin lookup 2 subtable" dx=7 dy=0 dh=14 dv=0
EndChar

StartChar: M
Encoding: 77 77 46
Width: 894
GlyphClass: 2
Flags: MW
HStem: 0 49<-24 199 -24 -24> 623 48<85 343>
AnchorPoint: "Anchor-2" 380 0 basechar 0
AnchorPoint: "Anchor-1" 513 684 basechar 0
LayerCount: 2
Fore
SplineSet
85 671 m 1
 343 671 l 1
 343 641 l 1
 417 178 l 1
 661 644 l 1
 661 671 l 1
 912 671 l 1
 912 622 l 1
 848 617 l 1
 833 603 l 1
 737 69 l 1
 747 54 l 1
 809 48 l 1
 809 0 l 1
 539 0 l 1
 539 50 l 1
 605 55 l 1
 619 69 l 1
 715 607 l 1
 398 0 l 1
 326 0 l 1
 231 602 l 1
 127 68 l 1
 139 54 l 1
 199 49 l 1
 199 0 l 1
 -24 0 l 1
 -24 49 l 1
 40 56 l 1
 55 71 l 1
 160 602 l 1
 151 618 l 1
 85 623 l 1
 85 671 l 1
EndSplineSet
Substitution2: "'c2sc' Capitals to Small Capitals in Latin lookup 4 subtable" m.sc
Position2: "'cpsp' Capital Spacing in Latin lookup 2 subtable" dx=7 dy=0 dh=14 dv=0
EndChar

StartChar: N
Encoding: 78 78 47
Width: 712
GlyphClass: 2
Flags: MW
HStem: 0 50<-26 202 -26 -26> 624 47<80 301>
AnchorPoint: "Anchor-2" 292 0 basechar 0
AnchorPoint: "Anchor-1" 425 684 basechar 0
LayerCount: 2
Fore
SplineSet
80 671 m 1
 301 671 l 1
 301 647 l 1
 506 162 l 1
 591 605 l 1
 579 618 l 1
 514 625 l 1
 514 671 l 1
 743 671 l 1
 743 624 l 1
 679 619 l 1
 663 606 l 1
 550 0 l 1
 447 0 l 1
 217 542 l 1
 127 72 l 1
 136 55 l 1
 202 49 l 1
 202 0 l 1
 -26 0 l 1
 -26 50 l 1
 39 55 l 1
 53 70 l 1
 155 605 l 1
 144 619 l 1
 80 624 l 1
 80 671 l 1
EndSplineSet
Substitution2: "'c2sc' Capitals to Small Capitals in Latin lookup 4 subtable" n.sc
Position2: "'cpsp' Capital Spacing in Latin lookup 2 subtable" dx=7 dy=0 dh=14 dv=0
EndChar

StartChar: O
Encoding: 79 79 48
Width: 729
GlyphClass: 2
Flags: MW
HStem: -13 61<281 353.5 281 369.5> 624 60<373 447.5>
VStem: 38 138<191 302.5 191 316.5> 549 141<367.5 482.5>
AnchorPoint: "Anchor-3" 316 0 basechar 0
AnchorPoint: "Anchor-2" 316 0 basechar 0
AnchorPoint: "Anchor-1" 412 684 basechar 0
LayerCount: 2
Fore
SplineSet
412 684 m 0
 579 684 690 573 690 408 c 0
 690 305 657 207 598 130 c 0
 527 38 426 -13 313 -13 c 0
 148 -13 38 98 38 265 c 0
 38 368 70 464 130 543 c 0
 197 632 302 684 412 684 c 0
549 416 m 0
 549 549 492 624 403 624 c 0
 343 624 288 586 244 512 c 0
 202 443 176 349 176 256 c 0
 176 126 238 48 324 48 c 0
 383 48 440 86 485 161 c 0
 524 226 549 319 549 416 c 0
EndSplineSet
Substitution2: "'c2sc' Capitals to Small Capitals in Latin lookup 4 subtable" o.sc
Position2: "'cpsp' Capital Spacing in Latin lookup 2 subtable" dx=7 dy=0 dh=14 dv=0
EndChar

StartChar: P
Encoding: 80 80 49
Width: 581
GlyphClass: 2
Flags: MW
HStem: 0 49<-24 256 -24 -24> 248 57<271.5 316 251 374.5> 616 55<305 342 342 355.5> 624 47<84 342>
VStem: 446 137<437 537.5>
AnchorPoint: "Anchor-2" 203 0 basechar 0
AnchorPoint: "Anchor-1" 336 684 basechar 0
LayerCount: 2
Fore
SplineSet
84 671 m 1xd8
 342 671 l 2xe8
 396 671 444 670 491 650 c 0
 547 626 583 571 583 504 c 0
 583 356 469 248 280 248 c 0
 263 248 241 248 215 250 c 1
 181 70 l 1
 190 53 l 1
 256 49 l 1
 256 0 l 1
 -24 0 l 1
 -24 49 l 1
 40 54 l 1
 55 68 l 1
 156 602 l 1
 146 619 l 1
 84 624 l 1
 84 671 l 1xd8
284 615 m 1
 225 306 l 1
 236 305 246 305 256 305 c 0
 376 305 446 377 446 497 c 0
 446 578 402 616 309 616 c 0
 301 616 293 616 284 615 c 1
EndSplineSet
Substitution2: "'c2sc' Capitals to Small Capitals in Latin lookup 4 subtable" p.sc
Position2: "'cpsp' Capital Spacing in Latin lookup 2 subtable" dx=7 dy=0 dh=14 dv=0
EndChar

StartChar: Q
Encoding: 81 81 50
Width: 729
GlyphClass: 2
Flags: MW
HStem: -164 73<488 615.5> -11 66<288 313.5> 617 67<373.5 440.5>
VStem: 36 142<218 291 203 318.5> 546 143<345 469.5>
AnchorPoint: "Anchor-2" 255 -218 basechar 0
AnchorPoint: "Anchor-1" 414 684 basechar 0
LayerCount: 2
Fore
SplineSet
704 -70 m 1
 704 -116 l 1
 632 -147 575 -164 529 -164 c 0
 447 -164 391 -115 343 -10 c 1
 331 -11 319 -11 308 -11 c 0
 247 -11 196 2 155 32 c 0
 79 87 36 170 36 266 c 0
 36 371 75 476 143 557 c 0
 211 638 309 684 414 684 c 0
 578 684 689 572 689 409 c 0
 689 243 611 105 472 29 c 1
 512 -54 543 -91 605 -91 c 0
 626 -91 660 -85 704 -70 c 1
178 271 m 0
 178 135 243 55 333 55 c 0
 379 55 420 79 459 125 c 0
 509 184 546 288 546 402 c 0
 546 537 484 617 397 617 c 0
 350 617 309 593 269 546 c 0
 243 515 218 468 200 407 c 0
 185 356 178 311 178 271 c 0
EndSplineSet
Substitution2: "'c2sc' Capitals to Small Capitals in Latin lookup 4 subtable" q.sc
Position2: "'cpsp' Capital Spacing in Latin lookup 2 subtable" dx=7 dy=0 dh=14 dv=0
EndChar

StartChar: R
Encoding: 82 82 51
Width: 645
GlyphClass: 2
Flags: MW
HStem: 0 48<-22 259 -22 -22> 295 56<226 324 226 324> 616 55<305.5 356.5> 623 48<82 372>
VStem: 448 138<475.5 547.5>
AnchorPoint: "Anchor-2" 203 0 basechar 0
AnchorPoint: "Anchor-1" 336 684 basechar 0
LayerCount: 2
Fore
SplineSet
82 671 m 1xd8
 372 671 l 2xe8
 516 671 586 627 586 527 c 0
 586 424 510 347 375 326 c 1
 463 308 483 247 510 150 c 0
 531 74 544 47 619 47 c 2
 632 47 l 1
 632 1 l 1
 596 -4 565 -6 540 -6 c 0
 446 -6 406 35 379 137 c 0
 365 190 364 238 329 268 c 0
 306 287 277 295 239 295 c 2
 226 295 l 1
 183 68 l 1
 192 54 l 1
 259 49 l 1
 259 0 l 1
 -22 0 l 1
 -22 48 l 1
 41 54 l 1
 56 67 l 1
 158 603 l 1
 147 618 l 1
 82 623 l 1
 82 671 l 1xd8
237 352 m 1
 247 351 256 351 266 351 c 0
 382 351 448 414 448 511 c 0
 448 584 404 616 309 616 c 0
 302 616 295 615 287 615 c 1
 237 352 l 1
EndSplineSet
Substitution2: "'c2sc' Capitals to Small Capitals in Latin lookup 4 subtable" r.sc
Position2: "'cpsp' Capital Spacing in Latin lookup 2 subtable" dx=7 dy=0 dh=14 dv=0
EndChar

StartChar: S
Encoding: 83 83 52
Width: 553
GlyphClass: 2
Flags: MW
HStem: -7 65<197.5 256 197.5 291> 624 59<305.5 358.5>
VStem: 50 66<207 207> 89 119<485 535> 354 125<154 187.5> 422 60<487 487>
AnchorPoint: "Anchor-2" 213 0 basechar 0
AnchorPoint: "Anchor-1" 347 684 basechar 0
LayerCount: 2
Fore
SplineSet
23 45 m 1xd8
 50 207 l 1
 116 207 l 1
 115 88 l 1
 122 78 l 1
 152 65 182 58 213 58 c 0
 299 58 354 110 354 178 c 0xe8
 354 197 345 219 327 241 c 0
 309 264 263 284 202 320 c 0
 125 366 89 403 89 475 c 0
 89 595 191 683 347 683 c 0
 397 683 451 674 509 656 c 1
 482 487 l 1
 422 487 l 1xd4
 424 597 l 1
 416 607 l 1
 394 619 371 624 346 624 c 0
 265 624 208 574 208 513 c 0
 208 457 255 433 334 388 c 0
 426 335 479 302 479 215 c 0
 479 93 370 -7 212 -7 c 0
 145 -7 82 10 23 45 c 1xd8
EndSplineSet
Substitution2: "'c2sc' Capitals to Small Capitals in Latin lookup 4 subtable" s.sc
Position2: "'cpsp' Capital Spacing in Latin lookup 2 subtable" dx=7 dy=0 dh=14 dv=0
EndChar

StartChar: T
Encoding: 84 84 53
Width: 584
GlyphClass: 2
Flags: MW
HStem: 0 50<90 378 90 90> 495 176<71 107 37 627 527 594 527 527> 616 55<161 274 161 161 402 515 402 402>
VStem: 527 67<495 495>
AnchorPoint: "Anchor-2" 220 0 basechar 0
AnchorPoint: "Anchor-1" 353 684 basechar 0
LayerCount: 2
Fore
SplineSet
71 671 m 1xd0
 627 671 l 1xb0
 594 495 l 1
 527 495 l 1xd0
 529 603 l 1
 515 616 l 1
 402 616 l 1
 299 69 l 1
 310 55 l 1
 378 49 l 1
 378 0 l 1
 90 0 l 1
 90 50 l 1
 159 54 l 1
 173 70 l 1
 274 616 l 1
 161 616 l 1xb0
 143 603 l 1
 107 495 l 1
 37 495 l 1
 71 671 l 1xd0
EndSplineSet
Substitution2: "'c2sc' Capitals to Small Capitals in Latin lookup 4 subtable" t.sc
Position2: "'cpsp' Capital Spacing in Latin lookup 2 subtable" dx=7 dy=0 dh=14 dv=0
EndChar

StartChar: U
Encoding: 85 85 54
Width: 701
GlyphClass: 2
Flags: MW
HStem: -13 79<290 334> 624 47<76 353>
VStem: 72 129<147 176.5>
AnchorPoint: "Anchor-3" 289 0 basechar 0
AnchorPoint: "Anchor-2" 289 0 basechar 0
AnchorPoint: "Anchor-1" 418 684 basechar 0
LayerCount: 2
Fore
SplineSet
76 671 m 1
 353 671 l 1
 353 624 l 1
 290 619 l 1
 276 607 l 1
 210 258 l 2
 205 230 201 206 201 185 c 0
 201 109 248 66 332 66 c 0
 444 66 492 125 516 249 c 2
 585 600 l 1
 575 617 l 1
 509 624 l 1
 509 671 l 1
 735 671 l 1
 735 624 l 1
 671 617 l 1
 656 603 l 1
 588 251 l 2
 574 177 560 116 506 62 c 0
 458 14 382 -13 286 -13 c 0
 148 -13 72 50 72 164 c 0
 72 189 75 218 82 254 c 2
 149 605 l 1
 137 618 l 1
 76 623 l 1
 76 671 l 1
EndSplineSet
Substitution2: "'c2sc' Capitals to Small Capitals in Latin lookup 4 subtable" u.sc
Position2: "'cpsp' Capital Spacing in Latin lookup 2 subtable" dx=7 dy=0 dh=14 dv=0
EndChar

StartChar: V
Encoding: 86 86 55
Width: 617
GlyphClass: 2
Flags: MW
HStem: -3 21G<191 288 191 191> 623 48<27 285 27 285>
AnchorPoint: "Anchor-2" 240 0 basechar 0
AnchorPoint: "Anchor-1" 369 684 basechar 0
LayerCount: 2
Fore
SplineSet
27 671 m 1
 285 671 l 1
 285 623 l 1
 224 619 l 1
 215 603 l 1
 289 137 l 1
 531 606 l 1
 524 619 l 1
 466 623 l 1
 466 671 l 1
 677 671 l 1
 677 625 l 1
 619 616 l 1
 288 -3 l 1
 191 -3 l 1
 92 603 l 1
 83 616 l 1
 27 623 l 1
 27 671 l 1
EndSplineSet
Substitution2: "'c2sc' Capitals to Small Capitals in Latin lookup 4 subtable" v.sc
Position2: "'cpsp' Capital Spacing in Latin lookup 2 subtable" dx=7 dy=0 dh=14 dv=0
EndChar

StartChar: W
Encoding: 87 87 56
Width: 921
GlyphClass: 2
Flags: MW
HStem: 0 21G<155 246 155 155 537 627 537 537> 623 48<43 299>
AnchorPoint: "Anchor-2" 386 0 basechar 0
AnchorPoint: "Anchor-1" 519 684 basechar 0
LayerCount: 2
Fore
SplineSet
43 671 m 1
 299 671 l 1
 299 624 l 1
 238 618 l 1
 227 601 l 1
 259 184 l 1
 483 671 l 1
 579 671 l 1
 630 175 l 1
 817 604 l 1
 809 618 l 1
 751 623 l 1
 751 671 l 1
 963 671 l 1
 963 625 l 1
 900 615 l 1
 627 0 l 1
 537 0 l 1
 484 515 l 1
 246 0 l 1
 155 0 l 1
 108 604 l 1
 98 616 l 1
 43 623 l 1
 43 671 l 1
EndSplineSet
Substitution2: "'c2sc' Capitals to Small Capitals in Latin lookup 4 subtable" w.sc
Position2: "'cpsp' Capital Spacing in Latin lookup 2 subtable" dx=7 dy=0 dh=14 dv=0
EndChar

StartChar: X
Encoding: 88 88 57
Width: 608
GlyphClass: 2
Flags: MW
HStem: 0 48<-65 174 -65 -65> 624 47<52 326>
AnchorPoint: "Anchor-2" 243 0 basechar 0
AnchorPoint: "Anchor-1" 376 684 basechar 0
LayerCount: 2
Fore
SplineSet
52 671 m 1
 326 671 l 1
 326 624 l 1
 265 618 l 1
 254 603 l 1
 333 420 l 1
 495 605 l 1
 489 619 l 1
 433 624 l 1
 433 671 l 1
 658 671 l 1
 658 624 l 1
 593 618 l 1
 363 360 l 1
 495 61 l 1
 504 52 l 1
 565 47 l 1
 565 0 l 1
 288 0 l 1
 288 48 l 1
 352 53 l 1
 364 68 l 1
 278 267 l 1
 101 67 l 1
 111 53 l 1
 174 48 l 1
 174 0 l 1
 -65 0 l 1
 -65 48 l 1
 -7 54 l 1
 6 63 l 1
 246 332 l 1
 123 609 l 1
 115 618 l 1
 52 622 l 1
 52 671 l 1
EndSplineSet
Substitution2: "'c2sc' Capitals to Small Capitals in Latin lookup 4 subtable" x.sc
Position2: "'cpsp' Capital Spacing in Latin lookup 2 subtable" dx=7 dy=0 dh=14 dv=0
EndChar

StartChar: Y
Encoding: 89 89 58
Width: 586
GlyphClass: 2
Flags: MW
HStem: 0 49<93 377 93 93> 623 48<26 299 26 299>
AnchorPoint: "Anchor-2" 219 0 basechar 0
AnchorPoint: "Anchor-1" 352 684 basechar 0
LayerCount: 2
Fore
SplineSet
26 671 m 1
 299 671 l 1
 299 623 l 1
 237 617 l 1
 225 603 l 1
 310 343 l 1
 495 600 l 1
 486 616 l 1
 422 622 l 1
 422 671 l 1
 656 671 l 1
 656 624 l 1
 591 615 l 1
 581 606 l 1
 337 276 l 1
 298 68 l 1
 309 55 l 1
 377 49 l 1
 377 0 l 1
 93 0 l 1
 93 49 l 1
 160 55 l 1
 176 71 l 1
 212 262 l 1
 98 609 l 1
 89 617 l 1
 26 623 l 1
 26 671 l 1
EndSplineSet
Substitution2: "'c2sc' Capitals to Small Capitals in Latin lookup 4 subtable" y.sc
Position2: "'cpsp' Capital Spacing in Latin lookup 2 subtable" dx=7 dy=0 dh=14 dv=0
EndChar

StartChar: Z
Encoding: 90 90 59
Width: 572
GlyphClass: 2
Flags: MW
HStem: 0 59<141 382 141 470> 493 21G<84 156 84 84> 612 59<208 421 208 208>
VStem: 84 72<493 493> 436 71<196 196>
AnchorPoint: "Anchor-2" 223 0 basechar 0
AnchorPoint: "Anchor-1" 356 684 basechar 0
LayerCount: 2
Fore
SplineSet
118 671 m 1
 580 671 l 1
 577 622 l 1
 141 59 l 1
 382 59 l 1
 398 73 l 1
 436 196 l 1
 507 196 l 1
 470 0 l 1
 -17 0 l 1
 -14 50 l 1
 421 612 l 1
 208 612 l 1
 190 602 l 1
 156 493 l 1
 84 493 l 1
 118 671 l 1
EndSplineSet
Substitution2: "'c2sc' Capitals to Small Capitals in Latin lookup 4 subtable" z.sc
Position2: "'cpsp' Capital Spacing in Latin lookup 2 subtable" dx=7 dy=0 dh=14 dv=0
EndChar

StartChar: bracketleft
Encoding: 91 91 60
Width: 449
GlyphClass: 2
Flags: MW
HStem: -132 55<176 321> 652 56<308 462 308 308>
LayerCount: 2
Fore
SplineSet
203 708 m 1
 472 708 l 1
 462 652 l 1
 308 652 l 1
 176 -77 l 1
 330 -77 l 1
 321 -132 l 1
 51 -132 l 1
 203 708 l 1
EndSplineSet
EndChar

StartChar: backslash
Encoding: 92 92 61
Width: 481
GlyphClass: 2
Flags: MW
HStem: 651 20G<21 102 102 102>
LayerCount: 2
Fore
SplineSet
102 671 m 1
 504 -93 l 1
 425 -93 l 1
 21 671 l 1
 102 671 l 1
EndSplineSet
EndChar

StartChar: bracketright
Encoding: 93 93 62
Width: 449
GlyphClass: 2
Flags: MW
HStem: -132 55<-32 122 -32 227 -42 122> 653 55<109 253 99 378>
LayerCount: 2
Fore
SplineSet
109 708 m 1
 378 708 l 1
 227 -132 l 1
 -42 -132 l 1
 -32 -77 l 1
 122 -77 l 1
 253 653 l 1
 99 653 l 1
 109 708 l 1
EndSplineSet
EndChar

StartChar: asciicircum
Encoding: 94 94 63
Width: 1000
GlyphClass: 2
Flags: MW
HStem: 632 82<499 499>
LayerCount: 2
Fore
SplineSet
552 714 m 1
 797 438 l 1
 746 438 l 1
 499 632 l 1
 252 438 l 1
 201 438 l 1
 447 714 l 1
 552 714 l 1
EndSplineSet
EndChar

StartChar: underscore
Encoding: 95 95 64
Width: 500
GlyphClass: 2
Flags: MW
HStem: -236 84<0 500 0 500>
LayerCount: 2
Fore
SplineSet
500 -152 m 1
 500 -236 l 1
 0 -236 l 1
 0 -152 l 1
 500 -152 l 1
EndSplineSet
EndChar

StartChar: grave
Encoding: 96 96 65
Width: 500
GlyphClass: 2
Flags: MW
HStem: 552 190<281 288 164 348 281 281>
VStem: 164 184
LayerCount: 2
Fore
SplineSet
164 742 m 1
 288 742 l 1
 348 552 l 1
 281 552 l 1
 164 742 l 1
EndSplineSet
EndChar

StartChar: a
Encoding: 97 97 66
Width: 572
GlyphClass: 2
Flags: MW
HStem: -8 81<117 237.5> -6 61<371.5 491> 446 48<270.5 318.5 255.5 319.5>
VStem: 18 128<150 210>
AnchorPoint: "Anchor-3" 164 0 basechar 0
AnchorPoint: "Anchor-2" 203 0 basechar 0
AnchorPoint: "Anchor-1" 299 493 basechar 0
LayerCount: 2
Fore
SplineSet
453 493 m 1xb0
 512 493 l 1
 506 475 493 424 478 341 c 2
 448 179 l 2
 442 146 439 122 439 109 c 0
 439 75 458 55 481 55 c 0
 501 55 523 59 547 66 c 1
 547 29 l 1
 484 6 434 -6 396 -6 c 0x70
 347 -6 321 19 321 67 c 2
 321 72 l 1
 265 19 211 -8 162 -8 c 0
 72 -8 18 59 18 174 c 0
 18 246 38 312 78 373 c 0
 128 449 211 494 300 494 c 0
 337 494 375 485 416 469 c 1
 453 493 l 1xb0
330 445 m 2
 326 445 322 446 317 446 c 0
 224 446 146 340 146 188 c 0
 146 112 173 73 222 73 c 0xb0
 253 73 285 89 323 120 c 1
 370 385 l 1
 330 445 l 2
EndSplineSet
Substitution2: "'smcp' Lowercase to Small Capitals in Latin lookup 2 subtable" a.sc
EndChar

StartChar: b
Encoding: 98 98 67
Width: 556
GlyphClass: 2
Flags: MW
HStem: -9 48<210 240.5> 416 78<286 411.5> 663 35<53 53> 716 20G<224 268 268 268>
VStem: 382 126<270 338>
AnchorPoint: "Anchor-2" 234 0 basechar 0
AnchorPoint: "Anchor-1" 378 736 basechar 0
LayerCount: 2
Fore
SplineSet
135 650 m 1
 53 663 l 1
 53 698 l 1
 224 736 l 1
 268 736 l 1
 263 709 257 669 247 615 c 2
 212 424 l 1
 273 471 326 494 373 494 c 0
 450 494 508 425 508 316 c 0
 508 224 471 134 407 70 c 0
 355 18 283 -9 198 -9 c 0
 134 -9 78 6 27 35 c 1
 135 650 l 1
151 67 m 1
 172 49 197 39 223 39 c 0
 300 39 382 151 382 300 c 0
 382 376 354 416 298 416 c 0
 274 416 244 404 206 381 c 1
 151 67 l 1
EndSplineSet
Substitution2: "'smcp' Lowercase to Small Capitals in Latin lookup 2 subtable" b.sc
EndChar

StartChar: c
Encoding: 99 99 68
Width: 437
GlyphClass: 2
Flags: MW
HStem: -10 80<209 216> 85 59<394 394> 473 20G<259 334.5>
VStem: 16 125<161.5 218.5>
AnchorPoint: "Anchor-2" 187 0 basechar 0
AnchorPoint: "Anchor-1" 298 493 basechar 0
LayerCount: 2
Fore
SplineSet
326 339 m 1
 262 441 l 1
 195 422 141 329 141 205 c 0
 141 118 178 70 240 70 c 0
 283 70 337 94 394 144 c 1
 394 85 l 1
 322 21 247 -10 185 -10 c 0
 84 -10 16 65 16 182 c 0
 16 255 38 321 82 381 c 0
 132 449 219 493 299 493 c 0
 370 493 409 461 409 412 c 0
 409 372 377 341 326 339 c 1
EndSplineSet
Substitution2: "'smcp' Lowercase to Small Capitals in Latin lookup 2 subtable" c.sc
EndChar

StartChar: d
Encoding: 100 100 69
Width: 579
GlyphClass: 2
Flags: MW
HStem: -8 80<122 238.5> -6 61<378 501> 451 45<273 316> 663 34<335 335> 716 20G<509 551 551 551>
VStem: 21 126<151.5 211.5>
AnchorPoint: "Anchor-2" 266 0 basechar 0
AnchorPoint: "Anchor-1" 343 736 basechar 0
LayerCount: 2
Fore
SplineSet
509 736 m 1xbc
 551 736 l 1
 458 179 l 2
 452 142 449 118 449 106 c 0
 449 75 468 55 491 55 c 0
 511 55 534 59 558 66 c 1
 558 29 l 1
 495 6 444 -6 406 -6 c 0x7c
 350 -6 325 19 325 74 c 2
 325 77 l 1
 268 20 214 -8 163 -8 c 0
 81 -8 21 62 21 177 c 0
 21 246 40 312 76 368 c 0
 129 450 213 496 309 496 c 0
 334 496 362 490 391 479 c 1
 419 650 l 1
 335 663 l 1
 335 697 l 1
 509 736 l 1xbc
333 449 m 1
 326 450 319 451 313 451 c 0
 233 451 147 339 147 189 c 0
 147 114 177 72 223 72 c 0xbc
 254 72 292 91 332 128 c 1
 375 389 l 1
 333 449 l 1
EndSplineSet
Substitution2: "'smcp' Lowercase to Small Capitals in Latin lookup 2 subtable" d.sc
EndChar

StartChar: e
Encoding: 101 101 70
Width: 464
GlyphClass: 2
Flags: MW
HStem: -9 75<212.5 226> 75 61<401 403> 226 43 441 50<277 296>
VStem: 19 120<154.5 201.5 154.5 228> 330 101<361 405.5>
AnchorPoint: "Anchor-3" 198 0 basechar 0
AnchorPoint: "Anchor-2" 198 0 basechar 0
AnchorPoint: "Anchor-1" 307 493 basechar 0
LayerCount: 2
Fore
SplineSet
141 227 m 1
 140 216 139 206 139 197 c 0
 139 112 179 66 246 66 c 0
 289 66 343 89 403 136 c 1
 401 75 l 1
 328 18 256 -9 196 -9 c 0
 85 -9 19 62 19 181 c 0
 19 275 58 361 132 424 c 0
 183 467 247 491 307 491 c 0
 385 491 431 448 431 382 c 0
 431 287 339 226 172 226 c 0
 162 226 152 227 141 227 c 1
149 269 m 1
 261 274 330 332 330 390 c 0
 330 421 311 441 281 441 c 0
 229 441 177 382 149 269 c 1
EndSplineSet
Substitution2: "'smcp' Lowercase to Small Capitals in Latin lookup 2 subtable" e.sc
EndChar

StartChar: f
Encoding: 102 102 71
Width: 325
GlyphClass: 2
Flags: MW
HStem: 408 59<225 361 225 361 216 361> 713 20G<298 379>
AnchorPoint: "Anchor-2" -66 -218 basechar 0
AnchorPoint: "Anchor-1" 336 736 basechar 0
LayerCount: 2
Fore
SplineSet
383 598 m 1
 299 686 l 1
 270 651 245 578 225 467 c 1
 361 467 l 1
 361 408 l 1
 216 408 l 1
 179 147 l 2
 166 58 145 -15 107 -75 c 0
 50 -165 -23 -214 -85 -214 c 0
 -125 -214 -154 -187 -154 -152 c 0
 -154 -123 -140 -100 -114 -89 c 1
 -7 -146 l 1
 24 -105 40 -22 58 102 c 2
 101 408 l 1
 34 400 l 1
 35 444 l 1
 113 478 l 1
 141 636 246 733 350 733 c 0
 408 733 447 701 447 664 c 0
 447 634 423 607 383 598 c 1
EndSplineSet
Substitution2: "'smcp' Lowercase to Small Capitals in Latin lookup 2 subtable" f.sc
EndChar

StartChar: g
Encoding: 103 103 72
Width: 517
GlyphClass: 2
Flags: MW
HStem: -218 50<167 240 167 250> 161 46 411 52<425 527 425 425> 448 44<240 282>
VStem: -30 107<-89.5 -53.5> 44 120<266.5 328.5 258.5 352.5> 319 120<-101 -78>
AnchorPoint: "Anchor-2" 169 -218 basechar 0
AnchorPoint: "Anchor-1" 275 493 basechar 0
LayerCount: 2
Fore
SplineSet
390 463 m 1xe6
 527 463 l 1
 527 411 l 1
 425 411 l 1
 431 390 435 371 435 354 c 0
 435 245 345 162 209 161 c 1
 201 148 197 136 197 123 c 2
 197 119 l 1
 348 47 l 2
 409 18 439 -12 439 -61 c 0
 439 -141 331 -218 169 -218 c 0
 46 -218 -30 -163 -30 -85 c 0xea
 -30 -22 18 23 116 62 c 1
 116 66 l 2
 116 102 130 133 158 168 c 1
 84 188 44 236 44 297 c 0
 44 408 136 492 266 492 c 0xd6
 308 492 349 482 390 463 c 1xe6
319 371 m 0
 319 422 300 448 264 448 c 0
 216 448 164 374 164 283 c 0xd6
 164 234 184 207 219 207 c 0
 267 207 319 278 319 371 c 0
141 29 m 1
 98 6 77 -22 77 -59 c 0xca
 77 -120 128 -168 206 -168 c 0
 274 -168 319 -132 319 -90 c 0
 319 -66 300 -44 261 -26 c 2
 141 29 l 1
EndSplineSet
Substitution2: "'smcp' Lowercase to Small Capitals in Latin lookup 2 subtable" g.sc
EndChar

StartChar: h
Encoding: 104 104 73
Width: 595
GlyphClass: 2
Flags: MW
HStem: -6 61<382.5 504> 408 86<318.5 437> 665 32<63 64> 716 20G<241 286 286 286>
VStem: 20 124<0 0> 328 124<41.5 114> 381 123<343.5 427.5>
AnchorPoint: "Anchor-2" 225 0 basechar 0
AnchorPoint: "Anchor-1" 368 736 basechar 0
LayerCount: 2
Fore
SplineSet
241 736 m 1xfa
 286 736 l 1
 273 682 261 625 249 564 c 2
 215 395 l 1
 295 461 359 494 408 494 c 0
 466 494 504 457 504 398 c 0xfa
 504 378 500 351 493 317 c 2
 463 179 l 2
 456 146 452 122 452 106 c 0
 452 75 471 55 494 55 c 0
 514 55 536 59 560 66 c 1
 560 29 l 1
 497 6 447 -6 409 -6 c 0
 356 -6 328 18 328 65 c 0xfc
 328 79 331 97 336 118 c 2
 372 284 l 2
 378 313 381 336 381 351 c 0
 381 388 363 408 333 408 c 0
 304 408 260 387 206 342 c 1
 144 0 l 1
 20 0 l 1
 151 655 l 1
 64 665 l 1
 63 697 l 1
 241 736 l 1xfa
EndSplineSet
Substitution2: "'smcp' Lowercase to Small Capitals in Latin lookup 2 subtable" h.sc
EndChar

StartChar: i
Encoding: 105 105 74
Width: 318
GlyphClass: 2
Flags: MW
HStem: -7 66<97.5 231.5> 420 36<29 29> 473 20G<200 244 244 244> 586 139<198 232.5>
VStem: 48 127<45.5 119> 143 144<640 671>
AnchorPoint: "Anchor-3" 123 0 basechar 0
AnchorPoint: "Anchor-2" 89 0 basechar 0
AnchorPoint: "Anchor-1" 227 705 basechar 0
LayerCount: 2
Fore
SplineSet
220 725 m 0xf4
 262 725 287 700 287 661 c 0
 287 619 254 586 211 586 c 0
 170 586 143 612 143 649 c 0
 143 693 176 725 220 725 c 0xf4
200 493 m 1
 244 493 l 1
 180 155 l 2
 177 138 175 124 175 114 c 0
 175 78 192 59 224 59 c 0
 239 59 263 64 293 73 c 1
 293 32 l 1
 230 7 175 -7 122 -7 c 0
 73 -7 48 20 48 71 c 0xf8
 48 88 52 111 57 138 c 2
 111 407 l 1
 29 420 l 1
 29 456 l 1
 200 493 l 1
EndSplineSet
Substitution2: "'smcp' Lowercase to Small Capitals in Latin lookup 2 subtable" i.sc
Substitution2: "'locl' Localized Forms in Latin lookup 1 subtable" i.TRK
EndChar

StartChar: j
Encoding: 106 106 75
Width: 297
GlyphClass: 2
Flags: MW
HStem: 420 36<26 26> 473 20G<205 249 249 249> 584 139<195 229.5>
VStem: 140 144<638 669>
AnchorPoint: "Anchor-2" -50 -218 basechar 0
LayerCount: 2
Fore
SplineSet
217 723 m 0
 259 723 284 698 284 659 c 0
 284 617 251 584 208 584 c 0
 167 584 140 611 140 648 c 0
 140 690 173 723 217 723 c 0
116 407 m 1
 26 420 l 1
 26 456 l 1
 205 493 l 1
 249 493 l 1
 195 155 l 2
 179 53 164 -33 96 -108 c 0
 31 -179 -30 -214 -78 -214 c 0
 -119 -214 -146 -190 -146 -153 c 0
 -146 -124 -134 -104 -112 -93 c 1
 5 -140 l 1
 37 -100 52 -23 69 90 c 2
 116 407 l 1
EndSplineSet
Substitution2: "'smcp' Lowercase to Small Capitals in Latin lookup 2 subtable" j.sc
EndChar

StartChar: k
Encoding: 107 107 76
Width: 559
GlyphClass: 2
Flags: MW
HStem: -7 60<370 498> 0 21G<23 142 23 23> 474 20G<439.5 478.5> 664 33<60 60> 716 20G<240 283 283 283>
VStem: 23 119<0 0>
AnchorPoint: "Anchor-2" 232 0 basechar 0
AnchorPoint: "Anchor-1" 375 736 basechar 0
LayerCount: 2
Fore
SplineSet
240 736 m 1x7c
 283 736 l 1
 186 258 l 1
 316 395 l 2
 376 458 418 494 461 494 c 0
 496 494 522 465 522 427 c 0
 522 387 495 356 441 340 c 1
 405 398 l 1
 358 362 327 335 313 321 c 1
 390 141 422 53 492 53 c 0
 504 53 521 56 543 61 c 1
 543 22 l 1
 478 3 430 -7 401 -7 c 0xbc
 339 -7 316 30 286 101 c 2
 223 247 l 1
 177 197 l 1
 142 0 l 1
 23 0 l 1
 149 656 l 1
 60 664 l 1
 60 697 l 1
 240 736 l 1x7c
EndSplineSet
Substitution2: "'smcp' Lowercase to Small Capitals in Latin lookup 2 subtable" k.sc
EndChar

StartChar: l
Encoding: 108 108 77
Width: 307
GlyphClass: 2
Flags: MW
HStem: -9 64<94.5 210.5> 663 35<58 58> 716 20G<229 273 273 273>
VStem: 34 124<41 116>
AnchorPoint: "Anchor-2" 75 0 basechar 0
AnchorPoint: "Anchor-1" 218 736 basechar 0
LayerCount: 2
Fore
SplineSet
140 650 m 1
 58 663 l 1
 58 698 l 1
 229 736 l 1
 273 736 l 1
 169 179 l 2
 163 150 158 126 158 106 c 0
 158 75 176 55 199 55 c 0
 222 55 249 60 280 70 c 1
 280 31 l 1
 208 5 156 -9 123 -9 c 0
 66 -9 34 17 34 65 c 0
 34 78 37 95 41 118 c 2
 140 650 l 1
EndSplineSet
Substitution2: "'smcp' Lowercase to Small Capitals in Latin lookup 2 subtable" l.sc
EndChar

StartChar: m
Encoding: 109 109 78
Width: 883
GlyphClass: 2
Flags: MW
HStem: -6 61<673.5 794> 409 84<202 354> 417 35<32 32>
VStem: 34 122<0 0> 323 123<0 0> 619 124<41.5 114.5> 673 121<344.5 424.5>
AnchorPoint: "Anchor-2" 376 0 basechar 0
AnchorPoint: "Anchor-1" 472 493 basechar 0
LayerCount: 2
Fore
SplineSet
202 493 m 1xda
 241 493 l 1
 222 395 l 1
 297 462 364 493 415 493 c 0
 472 493 506 460 509 398 c 1
 583 463 649 493 695 493 c 0
 756 493 794 455 794 394 c 0xda
 794 375 791 354 786 329 c 2
 754 179 l 2
 747 147 743 123 743 106 c 0
 743 75 761 55 784 55 c 0
 804 55 827 59 851 66 c 1
 851 29 l 1
 788 6 738 -6 700 -6 c 0
 647 -6 619 18 619 65 c 0xdc
 619 79 622 96 627 118 c 2
 665 295 l 2
 670 317 673 336 673 353 c 0
 673 388 655 408 623 408 c 0
 593 408 549 388 505 346 c 1
 446 0 l 1
 323 0 l 1
 381 301 l 2
 385 322 388 338 388 351 c 0
 388 388 370 409 338 409 c 0xda
 311 409 268 389 217 347 c 1
 156 0 l 1
 34 0 l 1
 112 405 l 1
 32 417 l 1
 32 452 l 1xba
 202 493 l 1xda
EndSplineSet
Substitution2: "'smcp' Lowercase to Small Capitals in Latin lookup 2 subtable" m.sc
EndChar

StartChar: n
Encoding: 110 110 79
Width: 600
GlyphClass: 2
Flags: MW
HStem: -6 61<390.5 512> 408 85<202 355> 417 33<26 26>
VStem: 29 127<0 0> 336 124<42 113> 389 123<342.5 425>
AnchorPoint: "Anchor-2" 233 0 basechar 0
AnchorPoint: "Anchor-1" 329 493 basechar 0
LayerCount: 2
Fore
SplineSet
202 493 m 1xd4
 241 493 l 1
 221 394 l 1
 301 459 364 493 421 493 c 0
 473 493 512 455 512 395 c 0xd4
 512 376 508 349 501 316 c 2
 471 179 l 2
 464 145 460 121 460 105 c 0
 460 75 479 55 502 55 c 0
 522 55 544 59 568 66 c 1
 568 28 l 1
 506 5 455 -6 417 -6 c 0
 364 -6 336 19 336 65 c 0xd8
 336 80 340 97 344 118 c 2
 380 284 l 2
 386 313 389 335 389 350 c 0
 389 387 370 408 340 408 c 0xd4
 311 408 268 387 215 342 c 1
 156 0 l 1
 29 0 l 1
 109 406 l 1
 26 417 l 1
 26 450 l 1xb4
 202 493 l 1xd4
EndSplineSet
Substitution2: "'smcp' Lowercase to Small Capitals in Latin lookup 2 subtable" n.sc
EndChar

StartChar: o
Encoding: 111 111 80
Width: 550
GlyphClass: 2
Flags: MW
HStem: -11 52<205.5 259> 441 52<261.5 314>
VStem: 19 129<135 236> 372 129<246.5 346>
AnchorPoint: "Anchor-3" 224 0 basechar 0
AnchorPoint: "Anchor-2" 224 0 basechar 0
AnchorPoint: "Anchor-1" 298 493 basechar 0
LayerCount: 2
Fore
SplineSet
298 493 m 0
 423 493 501 413 501 287 c 0
 501 206 470 127 414 69 c 0
 364 17 296 -11 222 -11 c 0
 97 -11 19 70 19 197 c 0
 19 275 51 355 106 412 c 0
 156 464 225 493 298 493 c 0
285 441 m 0
 213 441 148 338 148 181 c 0
 148 89 178 41 233 41 c 0
 307 41 372 145 372 298 c 0
 372 394 343 441 285 441 c 0
EndSplineSet
Substitution2: "'smcp' Lowercase to Small Capitals in Latin lookup 2 subtable" o.sc
EndChar

StartChar: p
Encoding: 112 112 81
Width: 565
GlyphClass: 2
Flags: MW
HStem: -218 40<-63 216 -63 -63> -3 56<220 267.5> 419 74<194 339> 421 35<27 27>
VStem: 394 125<271.5 342.5>
AnchorPoint: "Anchor-2" 204 -218 basechar 0
AnchorPoint: "Anchor-1" 342 493 basechar 0
LayerCount: 2
Fore
SplineSet
194 493 m 1xe8
 238 493 l 1xe8
 224 425 l 1
 280 471 334 494 385 494 c 0
 464 494 519 428 519 319 c 0
 519 224 490 148 428 83 c 0
 377 29 304 -3 231 -3 c 0
 205 -3 179 3 153 13 c 1
 123 -161 l 1
 216 -179 l 1
 216 -218 l 1
 -63 -218 l 1
 -63 -178 l 1
 -2 -162 l 1
 7 -149 l 1
 105 411 l 1
 27 421 l 1
 27 456 l 1xd8
 194 493 l 1xe8
162 70 m 1
 187 58 209 53 231 53 c 0
 318 53 394 158 394 306 c 0
 394 379 363 419 315 419 c 0
 288 419 256 405 217 376 c 1
 162 70 l 1
EndSplineSet
Substitution2: "'smcp' Lowercase to Small Capitals in Latin lookup 2 subtable" p.sc
EndChar

StartChar: q
Encoding: 113 113 82
Width: 562
GlyphClass: 2
Flags: MW
HStem: -218 38<210 491> -6 79<123.5 248.5> 449 47<295 318>
VStem: 24 123<152.5 220>
AnchorPoint: "Anchor-2" 160 -218 basechar 0
AnchorPoint: "Anchor-1" 298 493 basechar 0
LayerCount: 2
Fore
SplineSet
462 496 m 1
 515 496 l 1
 507 453 495 389 481 306 c 2
 401 -163 l 1
 491 -180 l 1
 491 -218 l 1
 210 -218 l 1
 210 -178 l 1
 272 -166 l 1
 283 -152 l 1
 322 66 l 1
 264 18 214 -6 167 -6 c 0
 80 -6 24 61 24 177 c 0
 24 263 51 339 101 398 c 0
 154 461 226 496 303 496 c 0
 338 496 375 488 417 473 c 1
 462 496 l 1
334 448 m 1
 328 449 321 449 315 449 c 0
 275 449 240 430 209 389 c 0
 175 345 147 265 147 191 c 0
 147 114 179 73 233 73 c 0
 264 73 295 88 332 117 c 1
 377 386 l 1
 334 448 l 1
EndSplineSet
Substitution2: "'smcp' Lowercase to Small Capitals in Latin lookup 2 subtable" q.sc
EndChar

StartChar: r
Encoding: 114 114 83
Width: 449
GlyphClass: 2
Flags: MW
HStem: 0 21G<29 152 29 29> 334 158<352.5 353 351 397.5> 418 34<26 26>
VStem: 29 123<0 0>
AnchorPoint: "Anchor-2" 90 0 basechar 0
AnchorPoint: "Anchor-1" 285 493 basechar 0
LayerCount: 2
Fore
SplineSet
198 493 m 1xb0
 233 493 l 1
 205 359 l 1
 269 448 329 492 376 492 c 0
 419 492 450 463 450 419 c 0
 450 371 412 334 353 334 c 2
 351 334 l 1xd0
 324 410 l 1
 243 376 206 321 191 232 c 2
 152 0 l 1
 29 0 l 1
 109 406 l 1
 26 418 l 1
 26 452 l 1
 198 493 l 1xb0
EndSplineSet
Substitution2: "'smcp' Lowercase to Small Capitals in Latin lookup 2 subtable" r.sc
EndChar

StartChar: s
Encoding: 115 115 84
Width: 403
GlyphClass: 2
Flags: MW
HStem: -9 46<142 175 142 197> 449 44<202.5 227>
VStem: 49 102<377 377.5> 228 109<111 134.5>
AnchorPoint: "Anchor-2" 142 0 basechar 0
AnchorPoint: "Anchor-1" 247 493 basechar 0
LayerCount: 2
Fore
SplineSet
104 134 m 1
 86 61 l 1
 109 45 131 37 153 37 c 0
 197 37 228 68 228 109 c 0
 228 160 192 179 145 211 c 0
 83 254 49 284 49 333 c 0
 49 422 133 493 247 493 c 0
 320 493 362 463 362 419 c 0
 362 384 335 359 291 357 c 1
 244 447 l 1
 237 448 230 449 224 449 c 0
 181 449 151 423 151 392 c 0
 151 362 181 338 231 302 c 0
 296 255 337 224 337 156 c 0
 337 66 254 -9 140 -9 c 0
 48 -9 -12 37 -12 95 c 0
 -12 132 13 157 48 157 c 0
 70 157 88 149 104 134 c 1
EndSplineSet
Substitution2: "'smcp' Lowercase to Small Capitals in Latin lookup 2 subtable" s.sc
EndChar

StartChar: t
Encoding: 116 116 85
Width: 366
GlyphClass: 2
Flags: MW
HStem: -8 65<112.5 241> 35 40<317 317> 415 58<233 370 233 370 222 370>
VStem: 48 123<56 127>
AnchorPoint: "Anchor-2" 127 0 basechar 0
AnchorPoint: "Anchor-1" 201 601 basechar 0
LayerCount: 2
Fore
SplineSet
191 601 m 1xb0
 256 601 l 1
 233 473 l 1
 370 473 l 1
 370 415 l 1
 222 415 l 1
 177 170 l 2
 173 150 171 134 171 120 c 0
 171 78 191 57 230 57 c 0xb0
 252 57 281 63 317 75 c 1
 317 35 l 1x70
 237 7 180 -8 144 -8 c 0
 81 -8 48 25 48 87 c 0
 48 106 50 127 55 151 c 2
 105 415 l 1
 39 412 l 1
 39 448 l 1
 125 491 l 1
 191 601 l 1xb0
EndSplineSet
Substitution2: "'smcp' Lowercase to Small Capitals in Latin lookup 2 subtable" t.sc
EndChar

StartChar: u
Encoding: 117 117 86
Width: 599
GlyphClass: 2
Flags: MW
HStem: -10 85<123.5 240.5> -9 64<390.5 515> 419 31<28 28> 469 20G<533 533>
VStem: 53 120<60.5 135>
AnchorPoint: "Anchor-3" 158 0 basechar 0
AnchorPoint: "Anchor-2" 233 0 basechar 0
AnchorPoint: "Anchor-1" 329 493 basechar 0
LayerCount: 2
Fore
SplineSet
201 487 m 1xb8
 239 487 l 1
 181 188 l 2
 176 161 173 141 173 129 c 0
 173 93 192 75 226 75 c 0xb8
 255 75 296 90 346 123 c 1
 414 475 l 1
 533 489 l 1
 474 179 l 2
 468 150 463 126 463 106 c 0
 463 75 482 55 505 55 c 0
 525 55 548 59 572 66 c 1
 572 29 l 1
 502 5 450 -9 415 -9 c 0x78
 366 -9 340 18 340 68 c 2
 340 77 l 1
 262 18 199 -10 156 -10 c 0
 91 -10 53 28 53 93 c 0
 53 108 55 126 59 147 c 2
 108 407 l 1
 28 419 l 1
 28 450 l 1
 201 487 l 1xb8
EndSplineSet
Substitution2: "'smcp' Lowercase to Small Capitals in Latin lookup 2 subtable" u.sc
EndChar

StartChar: v
Encoding: 118 118 87
Width: 492
GlyphClass: 2
Flags: MW
HStem: -1 21G<108 194 108 108> 424 32<-8 -8> 473 21G
VStem: 343 129<389.5 469>
AnchorPoint: "Anchor-2" 151 0 basechar 0
AnchorPoint: "Anchor-1" 284 493 basechar 0
LayerCount: 2
Fore
SplineSet
150 493 m 1
 191 481 196 450 201 392 c 2
 226 108 l 1
 287 183 334 255 366 321 c 1
 343 469 l 1
 364 486 385 494 405 494 c 0
 446 494 472 468 472 425 c 0
 472 354 383 205 194 -1 c 1
 108 -1 l 1
 115 22 119 41 119 60 c 0
 119 64 118 69 118 73 c 2
 97 281 l 2
 90 348 84 392 73 412 c 1
 -8 424 l 1
 -8 456 l 1
 150 493 l 1
EndSplineSet
Substitution2: "'smcp' Lowercase to Small Capitals in Latin lookup 2 subtable" v.sc
EndChar

StartChar: w
Encoding: 119 119 88
Width: 768
GlyphClass: 2
Flags: MW
HStem: 0 21G<94 188 94 94 395 481 395 395> 423 33<-2 -2> 474 20G<141 187 187 187>
VStem: 613 127<382 467>
AnchorPoint: "Anchor-2" 288 0 basechar 0
AnchorPoint: "Anchor-1" 425 493 basechar 0
LayerCount: 2
Fore
SplineSet
141 494 m 1
 187 494 l 1
 207 129 l 1
 270 245 329 358 380 471 c 1
 474 479 l 1
 478 387 485 260 496 95 c 1
 567 189 614 263 637 317 c 1
 613 467 l 1
 630 485 651 493 675 493 c 0
 714 493 740 465 740 423 c 0
 740 341 647 208 481 0 c 1
 395 0 l 1
 375 345 l 1
 314 227 252 112 188 0 c 1
 94 0 l 1
 103 31 l 1
 81 411 l 1
 -2 423 l 1
 -2 456 l 1
 141 494 l 1
EndSplineSet
Substitution2: "'smcp' Lowercase to Small Capitals in Latin lookup 2 subtable" w.sc
EndChar

StartChar: x
Encoding: 120 120 89
Width: 510
GlyphClass: 2
Flags: MW
HStem: -6 60<304.5 428.5> 416 34<25 25> 474 20G<162 169 169 197>
AnchorPoint: "Anchor-2" 204 0 basechar 0
AnchorPoint: "Anchor-1" 300 493 basechar 0
LayerCount: 2
Fore
SplineSet
162 494 m 1
 169 494 l 2
 225 494 243 437 274 315 c 1
 335 429 391 487 448 487 c 0
 485 487 511 460 511 423 c 0
 511 388 488 359 447 347 c 1
 408 400 l 1
 370 383 332 338 297 265 c 1
 339 120 353 54 420 54 c 0
 437 54 455 56 475 61 c 1
 475 22 l 1
 417 4 374 -6 343 -6 c 0
 266 -6 236 50 208 178 c 1
 143 59 90 -1 33 -1 c 0
 -6 -1 -38 29 -38 64 c 0
 -38 96 -14 125 26 135 c 1
 69 82 l 1
 110 110 151 160 186 230 c 1
 157 322 135 382 116 409 c 1
 25 416 l 1
 25 450 l 1
 162 494 l 1
EndSplineSet
Substitution2: "'smcp' Lowercase to Small Capitals in Latin lookup 2 subtable" x.sc
EndChar

StartChar: y
Encoding: 121 121 90
Width: 494
GlyphClass: 2
Flags: MW
HStem: 426 33<-14 -14> 474 21G
AnchorPoint: "Anchor-2" -8 -218 basechar 0
AnchorPoint: "Anchor-1" 288 493 basechar 0
LayerCount: 2
Fore
SplineSet
140 494 m 1
 183 486 201 436 216 340 c 2
 250 122 l 1
 291 225 341 349 403 493 c 1
 434 493 l 1
 513 467 l 1
 513 440 l 1
 454 407 l 1
 376 303 336 159 259 21 c 0
 171 -137 88 -216 6 -216 c 0
 -42 -216 -78 -179 -78 -139 c 0
 -78 -105 -56 -79 -20 -72 c 1
 47 -135 l 1
 92 -131 142 -77 196 26 c 1
 158 26 l 1
 98 343 l 2
 93 371 84 397 73 418 c 1
 -14 426 l 1
 -14 459 l 1
 140 494 l 1
EndSplineSet
Substitution2: "'smcp' Lowercase to Small Capitals in Latin lookup 2 subtable" y.sc
EndChar

StartChar: z
Encoding: 122 122 91
Width: 465
GlyphClass: 2
Flags: MW
HStem: -14 21G<50 50> -2 92<233 324> 398 97<120.5 205>
AnchorPoint: "Anchor-2" 178 0 basechar 0
AnchorPoint: "Anchor-1" 274 493 basechar 0
LayerCount: 2
Fore
SplineSet
387 502 m 1xa0
 461 456 l 1
 130 108 l 1
 217 132 l 1
 255 104 286 90 313 90 c 0
 335 90 355 99 372 115 c 1
 308 187 l 1
 322 216 342 231 366 231 c 0
 398 231 424 203 424 162 c 0
 424 127 408 87 378 52 c 0
 346 15 311 -2 264 -2 c 0x60
 202 -2 146 39 97 39 c 0
 90 39 82 38 74 36 c 1
 50 -14 l 1
 -20 27 l 1
 307 379 l 1
 220 361 l 1
 184 386 155 398 131 398 c 0
 110 398 93 391 79 376 c 1
 137 309 l 1
 122 281 102 267 77 267 c 0
 47 267 27 292 27 331 c 0
 27 354 36 381 53 410 c 0
 86 465 133 495 181 495 c 0
 229 495 264 469 296 456 c 0
 315 448 332 444 349 444 c 0
 354 444 359 444 364 445 c 1
 387 502 l 1xa0
EndSplineSet
Substitution2: "'smcp' Lowercase to Small Capitals in Latin lookup 2 subtable" z.sc
EndChar

StartChar: braceleft
Encoding: 123 123 92
Width: 487
GlyphClass: 2
Flags: MW
HStem: -135 54<320.5 429> 263 57<47 67 47 67> 654 51<407 429>
VStem: 187 117<51 119 -1.5 132 -1.5 180.5>
LayerCount: 2
Fore
SplineSet
429 705 m 1
 429 654 l 1
 328 651 303 620 303 529 c 2
 303 467 l 2
 303 362 260 309 156 292 c 1
 258 276 304 221 304 119 c 2
 304 46 l 2
 304 -49 325 -80 429 -81 c 1
 429 -134 l 1
 418 -134 408 -135 398 -135 c 0
 243 -135 187 -88 187 51 c 2
 187 132 l 2
 187 229 157 263 67 263 c 2
 47 263 l 1
 47 320 l 1
 67 320 l 2
 159 320 187 354 187 448 c 2
 187 532 l 2
 187 661 249 705 407 705 c 2
 429 705 l 1
EndSplineSet
EndChar

StartChar: bar
Encoding: 124 124 93
Width: 500
GlyphClass: 2
Flags: MW
VStem: 207 87<-236 764 -236 764>
LayerCount: 2
Fore
SplineSet
294 764 m 1
 294 -236 l 1
 207 -236 l 1
 207 764 l 1
 294 764 l 1
EndSplineSet
EndChar

StartChar: braceright
Encoding: 125 125 94
Width: 487
GlyphClass: 2
Flags: MW
HStem: -135 54<59 167.5> 263 56<376 421 421 421.5 373.5 441> 654 51<59 81>
VStem: 184 117<46 51 51 119 119 132 -18.5 170 467 529 529 532>
LayerCount: 2
Fore
SplineSet
59 705 m 1
 81 705 l 2
 239 705 301 661 301 532 c 2
 301 448 l 2
 301 355 329 319 418 319 c 0
 425 319 433 320 441 320 c 1
 441 263 l 1
 421 263 l 2
 331 263 301 229 301 132 c 2
 301 51 l 2
 301 -88 245 -135 90 -135 c 0
 80 -135 70 -134 59 -134 c 1
 59 -81 l 1
 163 -80 184 -49 184 46 c 2
 184 119 l 2
 184 221 231 276 332 292 c 1
 228 309 184 361 184 467 c 2
 184 529 l 2
 184 620 159 651 59 654 c 1
 59 705 l 1
EndSplineSet
EndChar

StartChar: asciitilde
Encoding: 126 126 95
Width: 833
GlyphClass: 2
Flags: MW
HStem: 212 91<87 87> 224 84<546.5 591> 290 83<247 304.5 247 307> 293 90<747 747>
LayerCount: 2
Fore
SplineSet
747 293 m 1x10
 682 248 621 224 561 224 c 0x40
 532 224 500 230 468 241 c 0
 399 264 339 290 275 290 c 0x20
 217 290 158 262 87 212 c 1
 87 303 l 1x80
 156 350 218 373 276 373 c 0x20
 333 373 378 358 419 344 c 0
 468 327 513 308 562 308 c 0x40
 620 308 679 334 747 383 c 1
 747 293 l 1x10
EndSplineSet
EndChar

StartChar: exclamdown
Encoding: 161 161 96
Width: 340
GlyphClass: 2
Flags: MW
HStem: -7 21G<86 139> 533 151<205.5 232>
VStem: 43 159<33.5 125> 143 151<594 622>
LayerCount: 2
Fore
SplineSet
210 533 m 0xd0
 172 533 143 561 143 599 c 0
 143 645 183 684 228 684 c 0
 264 684 294 655 294 617 c 0
 294 571 254 533 210 533 c 0xd0
58 122 m 2
 171 480 l 1
 223 480 l 1
 202 125 l 2
 197 37 172 -7 106 -7 c 0
 66 -7 43 15 43 52 c 0xe0
 43 71 49 93 58 122 c 2
EndSplineSet
Substitution2: "'smcp' Lowercase to Small Capitals in Latin lookup 2 subtable" exclamdown.sc
EndChar

StartChar: cent
Encoding: 162 162 97
Width: 586
GlyphClass: 2
Flags: MW
HStem: 0 54<299 309> 458 52<385 395>
VStem: 46 121<160.5 267.5 160.5 288> 225 54<-103 -103> 360 54<609 609> 413 64<161 161> 448 61<351 351>
LayerCount: 2
Fore
SplineSet
360 609 m 1xf8
 414 609 l 1
 395 510 l 1
 459 505 506 496 535 481 c 1
 509 351 l 1
 448 351 l 1xfa
 450 440 l 1
 430 451 408 457 385 458 c 1
 309 54 l 1
 333 55 358 60 384 71 c 1
 413 161 l 1
 477 161 l 1xf4
 450 25 l 1
 401 9 351 1 299 0 c 1
 279 -103 l 1
 225 -103 l 1
 244 2 l 1
 119 18 46 98 46 209 c 0
 46 367 162 493 341 509 c 1
 360 609 l 1xf8
332 455 m 1
 236 436 167 334 167 201 c 0
 167 120 199 70 257 56 c 1
 332 455 l 1
EndSplineSet
Substitution2: "'smcp' Lowercase to Small Capitals in Latin lookup 2 subtable" cent.sc
EndChar

StartChar: sterling
Encoding: 163 163 98
Width: 586
GlyphClass: 2
Flags: MW
HStem: 0 75<-2 -2 -2 478 -11 -2> 0 100<122 122 225 478> 299 60<76 138 69 144 267 439> 625 51<371 415 415 422>
LayerCount: 2
Fore
SplineSet
461 509 m 1xb0
 422 625 l 1
 415 625 l 2
 327 625 283 538 267 359 c 1
 447 359 l 1
 439 299 l 1
 258 299 l 1
 246 207 202 143 122 100 c 1
 125 94 l 1
 167 99 201 100 225 100 c 2
 490 100 l 1
 478 0 l 1x70
 -11 0 l 1
 -2 75 l 1
 92 92 123 159 138 299 c 1
 69 299 l 1
 76 359 l 1
 144 359 l 1
 158 565 259 676 413 676 c 0
 504 676 562 627 562 574 c 0
 562 535 531 508 480 508 c 0
 474 508 467 508 461 509 c 1xb0
EndSplineSet
EndChar

StartChar: currency
Encoding: 164 164 99
Width: 606
GlyphClass: 2
Flags: MW
HStem: 226 65<281 327> 574 65<280 326 280 343>
VStem: 97 65<409.5 454.5> 446 64<409.5 454.5 409.5 470.5>
LayerCount: 2
Fore
SplineSet
181 599 m 1
 217 626 257 639 303 639 c 0
 349 639 390 626 426 599 c 1
 525 698 l 1
 571 653 l 1
 471 553 l 1
 497 518 510 477 510 432 c 0
 510 387 497 346 471 311 c 1
 571 211 l 1
 525 166 l 1
 426 266 l 1
 389 239 350 226 304 226 c 0
 258 226 217 239 181 266 c 1
 82 166 l 1
 37 211 l 1
 136 311 l 1
 110 346 97 387 97 432 c 0
 97 477 110 518 136 553 c 1
 37 653 l 1
 82 698 l 1
 181 599 l 1
446 432 m 0
 446 509 382 574 304 574 c 0
 226 574 162 509 162 432 c 0
 162 354 225 291 304 291 c 0
 383 291 446 354 446 432 c 0
EndSplineSet
EndChar

StartChar: yen
Encoding: 165 165 100
Width: 601
GlyphClass: 2
Flags: MW
HStem: 0 49<99 392 99 99> 234 49<10 219 10 220 10 219 347 556> 378 50<37 166 37 187 37 166 458 585> 619 49<49 312 49 312>
LayerCount: 2
Fore
SplineSet
49 668 m 1
 312 668 l 1
 312 619 l 1
 251 613 l 1
 240 602 l 1
 325 349 l 1
 502 593 l 1
 498 609 l 1
 449 620 l 1
 449 668 l 1
 651 668 l 1
 651 619 l 1
 591 608 l 1
 458 428 l 1
 585 428 l 1
 585 378 l 1
 417 378 l 1
 347 283 l 1
 556 283 l 1
 556 234 l 1
 341 234 l 1
 312 69 l 1
 326 54 l 1
 392 49 l 1
 392 0 l 1
 99 0 l 1
 99 49 l 1
 170 54 l 1
 191 69 l 1
 220 234 l 1
 10 234 l 1
 10 283 l 1
 219 283 l 1
 187 378 l 1
 37 378 l 1
 37 428 l 1
 166 428 l 1
 105 609 l 1
 49 619 l 1
 49 668 l 1
EndSplineSet
EndChar

StartChar: brokenbar
Encoding: 166 166 101
Width: 500
GlyphClass: 2
Flags: MW
VStem: 207 87<-171 199 -171 199 329 699>
LayerCount: 2
Fore
SplineSet
294 699 m 1
 294 329 l 1
 207 329 l 1
 207 699 l 1
 294 699 l 1
294 199 m 1
 294 -171 l 1
 207 -171 l 1
 207 199 l 1
 294 199 l 1
EndSplineSet
EndChar

StartChar: section
Encoding: 167 167 102
Width: 500
GlyphClass: 2
Flags: MW
HStem: -141 52<139.5 187 139.5 215.5> 669 51<299.5 345>
VStem: 14 57<28 28> 34 93<272.5 298.5> 108 111<553.5 599> 268 109<-12 30.5> 356 95<294.5 316> 411 54<559 559>
LayerCount: 2
Fore
SplineSet
489 695 m 1xc8
 465 559 l 1
 411 559 l 1xc9
 416 641 l 1
 387 659 359 669 331 669 c 0
 268 669 219 625 219 579 c 0
 219 528 267 515 342 474 c 0
 416 433 451 392 451 330 c 0xca
 451 259 395 182 298 144 c 1
 352 112 377 80 377 36 c 0
 377 -60 287 -141 144 -141 c 0
 91 -141 40 -130 -10 -109 c 1
 14 28 l 1
 71 28 l 1xe4
 68 -64 l 1
 97 -81 125 -89 154 -89 c 0
 220 -89 268 -45 268 2 c 0
 268 59 211 77 127 122 c 0
 64 156 34 199 34 260 c 0xd4
 34 337 86 405 184 443 c 1
 132 474 108 505 108 551 c 0
 108 647 197 720 342 720 c 0
 390 720 438 711 489 695 c 1xc8
231 416 m 1
 163 391 127 348 127 300 c 0
 127 245 169 215 254 172 c 1
 322 207 356 249 356 292 c 0xd2
 356 340 314 378 231 416 c 1
EndSplineSet
EndChar

StartChar: dieresis
Encoding: 168 168 103
Width: 500
GlyphClass: 2
Flags: MW
HStem: 579 131<184 218.5 390.5 425>
VStem: 138 127<626.5 662 626.5 662.5> 344 128<626 662.5>
LayerCount: 2
Fore
SplineSet
201 710 m 0
 236 710 265 680 265 644 c 0
 265 609 236 579 201 579 c 0
 167 579 138 608 138 644 c 0
 138 681 166 710 201 710 c 0
408 710 m 0
 442 710 472 681 472 644 c 0
 472 608 443 579 408 579 c 0
 373 579 344 608 344 644 c 0
 344 681 373 710 408 710 c 0
EndSplineSet
EndChar

StartChar: copyright
Encoding: 169 169 104
Width: 894
GlyphClass: 2
Flags: MW
HStem: -50 46<406 498 406 500.5> 103 49<435.5 490 435.5 492> 428 121<559 612 559 612> 525 49<435.5 489.5 393 492.5> 685 44<407.5 497>
VStem: 63 48<293 386 293 391.5> 216 110<281 393.5 281 407.5> 560 52<128 253> 793 48<295 386>
LayerCount: 2
Fore
SplineSet
453 729 m 0xcf80
 555 729 657 687 730 613 c 0
 800 542 841 441 841 336 c 0
 841 237 799 137 722 61 c 0
 649 -11 554 -50 447 -50 c 0
 349 -50 251 -9 177 65 c 0
 102 139 63 235 63 340 c 0
 63 443 102 539 176 614 c 0
 249 688 349 729 453 729 c 0xcf80
453 685 m 0
 362 685 275 648 211 583 c 0
 146 516 111 432 111 340 c 0
 111 246 145 163 211 97 c 0
 278 31 360 -4 452 -4 c 0
 544 -4 628 31 692 97 c 0
 757 164 793 250 793 340 c 0
 793 432 756 521 693 584 c 0
 629 648 541 685 453 685 c 0
612 549 m 1xef80
 612 428 l 1
 559 428 l 1xef80
 544 507 l 1
 524 519 504 525 481 525 c 0
 390 525 326 450 326 337 c 0
 326 225 392 152 479 152 c 0
 501 152 522 158 545 168 c 1
 560 253 l 1
 612 253 l 1
 612 128 l 1
 564 111 515 103 469 103 c 0
 315 103 216 200 216 339 c 0
 216 476 317 574 469 574 c 0xdf80
 510 574 557 568 612 549 c 1xef80
EndSplineSet
EndChar

StartChar: ordfeminine
Encoding: 170 170 105
Width: 429
GlyphClass: 2
Flags: MW
HStem: 319 57<88 178.5> 321 42<278.5 368.5> 637 34<203 239 191.5 240>
VStem: 14 96<430 472>
LayerCount: 2
Fore
SplineSet
340 670 m 1xb0
 384 670 l 1
 380 657 370 622 359 564 c 2
 336 450 l 2
 332 427 329 410 329 401 c 0
 329 377 344 363 361 363 c 0
 376 363 392 366 410 371 c 1
 410 345 l 1
 363 329 326 321 297 321 c 0x70
 260 321 241 338 241 372 c 2
 241 375 l 1
 199 338 158 319 122 319 c 0
 54 319 14 366 14 447 c 0
 14 497 29 543 59 586 c 0
 96 639 158 671 225 671 c 0
 253 671 281 664 312 653 c 1
 340 670 l 1xb0
248 636 m 2
 245 636 242 637 238 637 c 0
 168 637 110 563 110 457 c 0
 110 403 130 376 167 376 c 0xb0
 190 376 214 387 242 409 c 1
 278 594 l 1
 248 636 l 2
EndSplineSet
EndChar

StartChar: guillemotleft
Encoding: 171 171 106
Width: 450
GlyphClass: 2
Flags: W
LayerCount: 2
Fore
SplineSet
227 425 m 1
 212 342 l 1
 83 240 l 1
 174 138 l 1
 159 55 l 1
 10 198 l 1
 26 282 l 1
 227 425 l 1
428 425 m 1
 413 342 l 1
 284 240 l 1
 375 138 l 1
 360 55 l 1
 211 198 l 1
 227 282 l 1
 428 425 l 1
EndSplineSet
EndChar

StartChar: logicalnot
Encoding: 172 172 107
Width: 833
GlyphClass: 2
Flags: MW
HStem: 340 81<124 628 124 709>
VStem: 628 81<176 340 340 340>
LayerCount: 2
Fore
SplineSet
709 421 m 1
 709 176 l 1
 628 176 l 1
 628 340 l 1
 124 340 l 1
 124 421 l 1
 709 421 l 1
EndSplineSet
EndChar

StartChar: registered
Encoding: 174 174 108
Width: 894
GlyphClass: 2
Flags: MW
HStem: -50 46<405.5 498 405.5 500.5> 116 43 313 41<398 455 398 455> 520 39<412.5 452.5> 685 44<408 498>
VStem: 63 48<296 388 296 391.5> 304 94<169 313 169 355 355 512 512 512> 528 103<421.5 462.5> 793 48<294.5 385>
LayerCount: 2
Fore
SplineSet
453 729 m 0
 555 729 657 687 730 613 c 0
 800 542 841 441 841 336 c 0
 841 237 799 137 722 61 c 0
 649 -11 554 -50 447 -50 c 0
 349 -50 251 -9 177 65 c 0
 102 139 63 235 63 340 c 0
 63 443 102 539 176 614 c 0
 249 688 349 729 453 729 c 0
453 685 m 0
 363 685 276 649 211 583 c 0
 146 518 111 432 111 344 c 0
 111 248 143 166 208 100 c 0
 276 31 359 -4 452 -4 c 0
 544 -4 627 31 692 97 c 0
 757 163 793 249 793 340 c 0
 793 430 757 518 696 581 c 0
 632 647 543 685 453 685 c 0
249 559 m 1
 473 559 l 2
 578 559 631 522 631 451 c 0
 631 392 590 352 510 338 c 1
 588 323 598 277 620 219 c 0
 637 175 654 159 704 159 c 2
 709 159 l 1
 709 122 l 1
 681 118 661 116 648 116 c 0
 616 116 590 122 568 136 c 0
 528 162 524 201 509 242 c 0
 490 293 464 313 410 313 c 2
 398 313 l 1
 398 169 l 1
 456 158 l 1
 456 121 l 1
 252 121 l 1
 252 157 l 1
 304 169 l 1
 304 512 l 1
 249 524 l 1
 249 559 l 1
398 519 m 1
 398 355 l 1
 405 354 412 354 419 354 c 0
 491 354 528 384 528 436 c 0
 528 489 490 520 415 520 c 0
 410 520 404 519 398 519 c 1
EndSplineSet
EndChar

StartChar: macron
Encoding: 175 175 109
Width: 500
GlyphClass: 2
Flags: MW
HStem: 607 68<150 469 138 481>
LayerCount: 2
Fore
SplineSet
150 675 m 1
 481 675 l 1
 469 607 l 1
 138 607 l 1
 150 675 l 1
EndSplineSet
EndChar

StartChar: degree
Encoding: 176 176 110
Width: 329
GlyphClass: 2
Flags: MW
HStem: 424 54<140 190.5 140 204.5> 659 54<140 190>
VStem: 21 53<544 594 544 608.5> 255 54<544.5 594>
LayerCount: 2
Fore
SplineSet
165 713 m 0
 245 713 309 648 309 568 c 0
 309 490 245 424 164 424 c 0
 84 424 21 487 21 568 c 0
 21 649 85 713 165 713 c 0
255 569 m 0
 255 619 215 659 165 659 c 0
 115 659 74 619 74 569 c 0
 74 519 115 478 165 478 c 0
 216 478 255 520 255 569 c 0
EndSplineSet
EndChar

StartChar: plusminus
Encoding: 177 177 111
Width: 833
GlyphClass: 2
Flags: MW
HStem: 7 82<124 709 124 709> 345 81<124 375 124 375 458 709>
VStem: 375 83<182 345 182 345 426 589>
LayerCount: 2
Fore
SplineSet
458 589 m 1
 458 426 l 1
 709 426 l 1
 709 345 l 1
 458 345 l 1
 458 182 l 1
 375 182 l 1
 375 345 l 1
 124 345 l 1
 124 426 l 1
 375 426 l 1
 375 589 l 1
 458 589 l 1
709 89 m 1
 709 7 l 1
 124 7 l 1
 124 89 l 1
 709 89 l 1
EndSplineSet
EndChar

StartChar: two.superior
Encoding: 178 178 112
Width: 395
GlyphClass: 2
Flags: MW
HStem: 268 64<88 275 88 320> 637 40<199 220.5>
VStem: 62 83<551 587.5> 269 89<538 594>
LayerCount: 2
Fore
SplineSet
88 332 m 1
 275 332 l 1
 298 385 l 1
 344 385 l 1
 320 268 l 1
 -2 268 l 1
 2 315 l 1
 176 421 269 492 269 575 c 0
 269 613 242 637 199 637 c 0
 188 637 175 635 161 631 c 1
 145 551 l 1
 131 545 118 543 104 543 c 0
 78 543 62 557 62 579 c 0
 62 596 72 614 90 630 c 0
 123 659 173 677 225 677 c 0
 306 677 358 636 358 577 c 0
 358 499 267 422 88 332 c 1
EndSplineSet
Substitution2: "'subs' Subscript lookup 12 subtable" uni2082
Substitution2: "'numr' Numerators lookup 11 subtable" two.numerator
Substitution2: "'dnom' Denominators lookup 10 subtable" two.denominator
EndChar

StartChar: three.superior
Encoding: 179 179 113
Width: 397
GlyphClass: 2
Flags: MW
HStem: 261 37<129.5 163> 454 41<162 189 149.5 193.5> 639 39<193 220.5>
VStem: 8 81<314.5 371> 71 77<562 610> 246 96<380.5 412.5> 270 96<565.5 598.5>
LayerCount: 2
Fore
SplineSet
228 481 m 1xea
 304 477 342 450 342 397 c 0
 342 364 320 329 280 302 c 0
 242 276 190 261 136 261 c 0
 57 261 8 296 8 333 c 0
 8 358 29 377 57 377 c 0
 65 377 76 375 89 371 c 1
 97 308 l 1
 112 302 124 298 135 298 c 0
 201 298 246 337 246 393 c 0xf4
 246 432 219 454 168 454 c 0
 156 454 143 453 127 450 c 1
 135 496 l 1
 141 495 147 495 152 495 c 0
 226 495 270 531 270 581 c 0
 270 616 242 639 199 639 c 0
 187 639 174 636 161 631 c 1
 148 562 l 1
 133 556 122 553 112 553 c 0
 88 553 71 568 71 589 c 0
 71 631 138 678 237 678 c 0
 318 678 366 639 366 590 c 0
 366 541 317 497 228 481 c 1xea
EndSplineSet
Substitution2: "'subs' Subscript lookup 12 subtable" uni2083
Substitution2: "'numr' Numerators lookup 11 subtable" three.numerator
Substitution2: "'dnom' Denominators lookup 10 subtable" three.denominator
EndChar

StartChar: acute
Encoding: 180 180 114
Width: 500
GlyphClass: 2
Flags: MW
HStem: 552 190<248 505 248 505>
VStem: 248 257<552 742>
LayerCount: 2
Fore
SplineSet
382 742 m 1
 505 742 l 1
 315 552 l 1
 248 552 l 1
 382 742 l 1
EndSplineSet
EndChar

StartChar: mu
Encoding: 181 181 115
Width: 578
GlyphClass: 2
Flags: MW
HStem: -12 81<175 223>
VStem: 86 101<432 432> 355 102<432 432>
LayerCount: 2
Fore
SplineSet
33 182 m 2
 86 432 l 1
 187 432 l 1
 138 204 l 2
 131 172 128 149 128 136 c 0
 128 94 154 69 196 69 c 0
 253 69 285 103 301 177 c 2
 355 432 l 1
 457 432 l 1
 402 172 l 2
 398 153 393 133 393 111 c 0
 393 83 409 67 435 67 c 0
 462 67 481 81 498 111 c 0
 513 138 516 164 534 164 c 0
 542 164 545 159 545 149 c 0
 545 135 535 91 517 58 c 0
 491 12 456 -12 410 -12 c 0
 356 -12 325 24 324 91 c 1
 296 23 252 -12 194 -12 c 0
 130 -12 91 26 84 98 c 1
 46 -107 61 -205 -5 -205 c 0
 -35 -205 -53 -187 -53 -156 c 0
 -53 -104 -5 4 33 182 c 2
EndSplineSet
EndChar

StartChar: paragraph
Encoding: 182 182 116
Width: 491
GlyphClass: 2
Flags: MW
HStem: 623 48<269 339 269 269>
VStem: 19 250<402 537.5> 212 57<-79 262 262 264 264 264> 339 57<-79 618 -79 623 -79 623>
LayerCount: 2
Fore
SplineSet
261 671 m 2xd0
 457 671 l 1
 457 628 l 1
 396 618 l 1
 396 -79 l 1
 339 -79 l 1
 339 623 l 1
 269 623 l 1
 269 262 l 1
 269 -79 l 1
 212 -79 l 1
 212 264 l 1xb0
 82 274 19 340 19 464 c 0
 19 611 95 671 261 671 c 2xd0
EndSplineSet
EndChar

StartChar: periodcentered
Encoding: 183 183 117
Width: 292
GlyphClass: 2
Flags: MW
HStem: 259 154<125.5 167>
VStem: 71 152<313.5 356.5>
LayerCount: 2
Fore
SplineSet
146 413 m 0
 188 413 223 379 223 335 c 0
 223 292 188 259 146 259 c 0
 105 259 71 292 71 335 c 0
 71 378 105 413 146 413 c 0
EndSplineSet
EndChar

StartChar: cedilla
Encoding: 184 184 118
Width: 500
GlyphClass: 2
Flags: MW
HStem: -230 50<124 149.5 119.5 179> -20 20G<156 205 205 205>
VStem: 156 49<0 0> 196 82<-146 -128>
LayerCount: 2
Fore
SplineSet
156 0 m 1xe0
 205 0 l 1xe0
 194 -57 l 1
 200 -56 205 -56 210 -56 c 0
 255 -56 278 -76 278 -115 c 0
 278 -177 221 -230 137 -230 c 0
 111 -230 85 -226 58 -219 c 1
 67 -172 l 1
 91 -177 112 -180 127 -180 c 0
 172 -180 196 -162 196 -136 c 0xd0
 196 -120 182 -110 156 -110 c 0
 150 -110 143 -111 135 -112 c 1
 156 0 l 1xe0
EndSplineSet
EndChar

StartChar: one.superior
Encoding: 185 185 119
Width: 399
GlyphClass: 2
Flags: MW
HStem: 268 33<52 291 52 52> 604 30<101 101> 657 20G<259 301 301 301>
VStem: 52 249
LayerCount: 2
Fore
SplineSet
259 677 m 1
 301 677 l 1
 220 313 l 1
 227 304 l 1
 291 300 l 1
 291 268 l 1
 52 268 l 1
 52 301 l 1
 126 305 l 1
 136 315 l 1
 202 611 l 1
 194 614 l 1
 101 604 l 1
 101 634 l 1
 259 677 l 1
EndSplineSet
Substitution2: "'subs' Subscript lookup 12 subtable" uni2081
Substitution2: "'numr' Numerators lookup 11 subtable" one.numerator
Substitution2: "'dnom' Denominators lookup 10 subtable" one.denominator
EndChar

StartChar: ordmasculine
Encoding: 186 186 120
Width: 413
GlyphClass: 2
Flags: MW
HStem: 317 37<154.5 194.5> 634 36<196.5 235.5>
VStem: 14 97<419.5 490> 279 97<497.5 567.5>
LayerCount: 2
Fore
SplineSet
224 670 m 0
 317 670 376 614 376 526 c 0
 376 469 353 414 311 373 c 0
 273 337 222 317 167 317 c 0
 73 317 14 374 14 463 c 0
 14 517 38 573 80 613 c 0
 117 650 169 670 224 670 c 0
214 634 m 0
 160 634 111 562 111 452 c 0
 111 387 134 354 175 354 c 0
 230 354 279 426 279 534 c 0
 279 601 257 634 214 634 c 0
EndSplineSet
EndChar

StartChar: guillemotright
Encoding: 187 187 121
Width: 450
GlyphClass: 2
Flags: W
LayerCount: 2
Fore
SplineSet
55 425 m 1
 204 282 l 1
 188 198 l 1
 -13 55 l 1
 2 138 l 1
 131 240 l 1
 40 342 l 1
 55 425 l 1
256 425 m 1
 405 282 l 1
 390 198 l 1
 188 55 l 1
 203 138 l 1
 332 240 l 1
 241 342 l 1
 256 425 l 1
EndSplineSet
EndChar

StartChar: onequarter
Encoding: 188 188 122
Width: 905
GlyphClass: 2
Flags: MW
HStem: 0 21G<179 249 179 179> 101 44<545 545 603 731 535 545 813 874> 295 29<50 268 50 50> 609 28<89 89> 656 21G
VStem: 179 70<0 0> 652 70<671 671> 706 72<-18 -18>
LayerCount: 2
Fore
SplineSet
237 676 m 1xfc
 275 676 l 1
 203 335 l 1
 209 326 l 1
 268 323 l 1
 268 295 l 1
 50 295 l 1
 50 324 l 1
 116 327 l 1
 127 337 l 1
 186 616 l 1
 179 619 l 1
 89 609 l 1
 89 637 l 1
 237 676 l 1xfc
652 671 m 1xfe
 722 671 l 1
 249 0 l 1
 179 0 l 1
 652 671 l 1xfe
801 379 m 1
 862 379 l 1
 813 145 l 1
 882 145 l 1
 874 101 l 1
 804 101 l 1
 778 -18 l 1
 706 -18 l 1xfd
 731 101 l 1
 535 101 l 1
 545 145 l 1
 801 379 l 1
776 304 m 1
 603 145 l 1
 741 145 l 1
 776 304 l 1
EndSplineSet
EndChar

StartChar: onehalf
Encoding: 189 189 123
Width: 905
GlyphClass: 2
Flags: MW
HStem: 0 57<619 795 619 835> 295 29<50 268 50 50> 346 36<722.5 742.5> 609 28<89 89> 656 21G
VStem: 179 70<0 0> 595 75<265 298.5> 652 70<671 671> 789 82<250.5 305.5>
LayerCount: 2
Fore
SplineSet
237 676 m 1xfc80
 275 676 l 1
 203 335 l 1
 209 326 l 1
 268 323 l 1
 268 295 l 1
 50 295 l 1
 50 324 l 1
 116 327 l 1
 127 337 l 1
 186 616 l 1
 179 619 l 1
 89 609 l 1
 89 637 l 1
 237 676 l 1xfc80
652 671 m 1xfd80
 722 671 l 1
 249 0 l 1
 179 0 l 1
 652 671 l 1xfd80
619 57 m 1
 795 57 l 1
 816 107 l 1
 857 107 l 1
 835 0 l 1
 534 0 l 1
 538 42 l 1
 701 142 789 209 789 287 c 0
 789 324 763 346 722 346 c 0xfd80
 712 346 699 344 686 341 c 1
 670 265 l 1
 658 259 646 256 634 256 c 0
 609 256 595 270 595 291 c 0xfe80
 595 306 604 323 621 338 c 0
 652 365 698 382 747 382 c 0
 823 382 871 343 871 287 c 0
 871 214 786 142 619 57 c 1
EndSplineSet
EndChar

StartChar: threequarters
Encoding: 190 190 124
Width: 905
GlyphClass: 2
Flags: MW
HStem: 0 21G<179 249 179 179> 101 44<545 545 603 731 535 545 813 874> 289 32<120 152.5> 470 37<151.5 176 138.5 181> 643 34<180.5 206.5>
VStem: 8 73<338 391> 65 72<570 615> 179 70<0 0> 231 87<400 430.5> 253 87<573 604.5> 652 70<671 671> 706 72<-18 -18>
LayerCount: 2
Fore
SplineSet
214 495 m 1xfa40
 283 491 318 465 318 415 c 0
 318 385 298 352 261 326 c 0
 226 303 178 289 127 289 c 0
 54 289 8 321 8 355 c 0
 8 379 27 397 52 397 c 0
 60 397 70 395 81 391 c 1
 89 330 l 1
 103 325 115 321 125 321 c 0
 188 321 231 359 231 412 c 0xfc80
 231 449 205 470 157 470 c 0
 146 470 132 469 117 467 c 1
 125 508 l 1
 130 507 136 507 141 507 c 0
 211 507 253 541 253 588 c 0
 253 621 227 643 186 643 c 0
 175 643 163 641 150 636 c 1
 137 570 l 1
 123 565 113 562 103 562 c 0
 81 562 65 576 65 595 c 0
 65 635 127 677 219 677 c 0
 295 677 340 642 340 596 c 0
 340 550 295 509 214 495 c 1xfa40
652 671 m 1xf920
 722 671 l 1
 249 0 l 1
 179 0 l 1
 652 671 l 1xf920
801 379 m 1
 862 379 l 1
 813 145 l 1
 882 145 l 1
 874 101 l 1
 804 101 l 1
 778 -18 l 1
 706 -18 l 1xf810
 731 101 l 1
 535 101 l 1
 545 145 l 1
 801 379 l 1
776 304 m 1
 603 145 l 1
 741 145 l 1
 776 304 l 1
EndSplineSet
EndChar

StartChar: questiondown
Encoding: 191 191 125
Width: 492
GlyphClass: 2
Flags: MW
HStem: -7 58<244 247 244 259> 531 152<304.5 344.5 304.5 345.5>
VStem: 6 130<116.5 191.5 116.5 200> 250 150<587 629 587 629> 276 65<483 483>
LayerCount: 2
Fore
SplineSet
325 683 m 0xf0
 364 683 400 650 400 608 c 0
 400 566 366 531 325 531 c 0
 283 531 250 565 250 608 c 0
 250 650 284 683 325 683 c 0xf0
276 483 m 1xe8
 341 483 l 1
 315 348 l 1
 198 310 136 236 136 147 c 0
 136 86 174 51 244 51 c 2
 247 51 l 1
 312 164 l 1
 320 165 328 166 335 166 c 0
 377 166 397 148 397 115 c 0
 397 54 320 -7 198 -7 c 0
 77 -7 6 53 6 147 c 0
 6 253 92 341 259 392 c 1
 276 483 l 1xe8
EndSplineSet
Substitution2: "'smcp' Lowercase to Small Capitals in Latin lookup 2 subtable" questiondown.sc
EndChar

StartChar: Agrave
Encoding: 192 192 126
Width: 634
GlyphClass: 2
Flags: MW
HStem: 0 49<-68 147> 236 55<200 383 200 393 170 383> 657 20G<339 442 442 442>
LayerCount: 2
Fore
SplineSet
339 677 m 1
 442 677 l 1
 544 69 l 1
 554 56 l 1
 612 49 l 1
 612 0 l 1
 349 0 l 1
 349 49 l 1
 410 55 l 1
 421 70 l 1
 393 236 l 1
 170 236 l 1
 78 68 l 1
 88 53 l 1
 147 49 l 1
 147 0 l 1
 -68 0 l 1
 -68 48 l 1
 -12 56 l 1
 339 677 l 1
342 551 m 1
 200 291 l 1
 383 291 l 1
 342 551 l 1
246 928 m 1
 370 928 l 1
 430 738 l 1
 363 738 l 1
 246 928 l 1
EndSplineSet
Position2: "'cpsp' Capital Spacing in Latin lookup 2 subtable" dx=7 dy=0 dh=14 dv=0
EndChar

StartChar: Aacute
Encoding: 193 193 127
Width: 634
GlyphClass: 2
Flags: MW
HStem: 0 49<-68 147> 236 55<200 383 200 393 170 383> 657 20G<339 442 442 442>
LayerCount: 2
Fore
SplineSet
339 677 m 1
 442 677 l 1
 544 69 l 1
 554 56 l 1
 612 49 l 1
 612 0 l 1
 349 0 l 1
 349 49 l 1
 410 55 l 1
 421 70 l 1
 393 236 l 1
 170 236 l 1
 78 68 l 1
 88 53 l 1
 147 49 l 1
 147 0 l 1
 -68 0 l 1
 -68 48 l 1
 -12 56 l 1
 339 677 l 1
342 551 m 1
 200 291 l 1
 383 291 l 1
 342 551 l 1
464 928 m 1
 587 928 l 1
 397 738 l 1
 330 738 l 1
 464 928 l 1
EndSplineSet
Position2: "'cpsp' Capital Spacing in Latin lookup 2 subtable" dx=7 dy=0 dh=14 dv=0
EndChar

StartChar: Acircumflex
Encoding: 194 194 128
Width: 634
GlyphClass: 2
Flags: MW
HStem: 0 49<-68 147> 236 55<200 383 200 393 170 383> 657 20G<339 442 442 442>
VStem: 220 78<738 738>
LayerCount: 2
Fore
SplineSet
339 677 m 1
 442 677 l 1
 544 69 l 1
 554 56 l 1
 612 49 l 1
 612 0 l 1
 349 0 l 1
 349 49 l 1
 410 55 l 1
 421 70 l 1
 393 236 l 1
 170 236 l 1
 78 68 l 1
 88 53 l 1
 147 49 l 1
 147 0 l 1
 -68 0 l 1
 -68 48 l 1
 -12 56 l 1
 339 677 l 1
342 551 m 1
 200 291 l 1
 383 291 l 1
 342 551 l 1
367 928 m 1
 454 928 l 1
 528 738 l 1
 451 738 l 1
 398 863 l 1
 298 738 l 1
 220 738 l 1
 367 928 l 1
EndSplineSet
Position2: "'cpsp' Capital Spacing in Latin lookup 2 subtable" dx=7 dy=0 dh=14 dv=0
EndChar

StartChar: Atilde
Encoding: 195 195 129
Width: 634
GlyphClass: 2
Flags: MW
HStem: 0 49<-68 147> 236 55<200 383 200 393 170 383> 657 20G<339 442 442 442> 773 72<446 477.5 446 483.5> 819 73<305 333>
VStem: 214 55<756 756> 514 53<908 908>
LayerCount: 2
Fore
SplineSet
339 677 m 1xe6
 442 677 l 1
 544 69 l 1
 554 56 l 1
 612 49 l 1
 612 0 l 1
 349 0 l 1
 349 49 l 1
 410 55 l 1
 421 70 l 1
 393 236 l 1
 170 236 l 1
 78 68 l 1
 88 53 l 1
 147 49 l 1
 147 0 l 1
 -68 0 l 1
 -68 48 l 1
 -12 56 l 1
 339 677 l 1xe6
342 551 m 1
 200 291 l 1
 383 291 l 1
 342 551 l 1
514 908 m 1
 567 908 l 1
 554 820 512 773 455 773 c 0xf6
 393 773 348 819 318 819 c 0
 292 819 274 797 269 756 c 1
 214 756 l 1
 226 844 269 892 327 892 c 0xee
 385 892 429 845 463 845 c 0xf6
 492 845 508 866 514 908 c 1
EndSplineSet
Position2: "'cpsp' Capital Spacing in Latin lookup 2 subtable" dx=7 dy=0 dh=14 dv=0
EndChar

StartChar: Adieresis
Encoding: 196 196 130
Width: 634
GlyphClass: 2
Flags: MW
HStem: 0 49<-68 147> 236 55<200 383 200 393 170 383> 657 20G<339 442 442 442> 765 131<266 300.5 472.5 507>
VStem: 220 127<812.5 848 812.5 848.5> 426 128<812 848.5>
LayerCount: 2
Fore
SplineSet
339 677 m 1
 442 677 l 1
 544 69 l 1
 554 56 l 1
 612 49 l 1
 612 0 l 1
 349 0 l 1
 349 49 l 1
 410 55 l 1
 421 70 l 1
 393 236 l 1
 170 236 l 1
 78 68 l 1
 88 53 l 1
 147 49 l 1
 147 0 l 1
 -68 0 l 1
 -68 48 l 1
 -12 56 l 1
 339 677 l 1
342 551 m 1
 200 291 l 1
 383 291 l 1
 342 551 l 1
283 896 m 0
 318 896 347 866 347 830 c 0
 347 795 318 765 283 765 c 0
 249 765 220 794 220 830 c 0
 220 867 248 896 283 896 c 0
490 896 m 0
 524 896 554 867 554 830 c 0
 554 794 525 765 490 765 c 0
 455 765 426 794 426 830 c 0
 426 867 455 896 490 896 c 0
EndSplineSet
Position2: "'cpsp' Capital Spacing in Latin lookup 2 subtable" dx=7 dy=0 dh=14 dv=0
EndChar

StartChar: Aring
Encoding: 197 197 131
Width: 634
GlyphClass: 2
Flags: MW
HStem: 0 49<-68 147> 236 55<201 383 201 393 170 383> 657 20G<339 442 442 442> 732 52<384.5 420 384.5 436> 919 52<385 421>
VStem: 285 53<833.5 871 833.5 885.5> 468 52<833.5 871>
LayerCount: 2
Fore
SplineSet
403 971 m 0
 469 971 520 920 520 852 c 0
 520 784 469 732 403 732 c 0
 338 732 285 785 285 852 c 0
 285 919 338 971 403 971 c 0
403 919 m 0
 367 919 338 890 338 852 c 0
 338 815 367 784 402 784 c 0
 438 784 468 815 468 852 c 0
 468 890 439 919 403 919 c 0
339 677 m 1
 442 677 l 1
 545 67 l 1
 558 55 l 1
 612 49 l 1
 612 0 l 1
 349 0 l 1
 349 49 l 1
 410 55 l 1
 421 70 l 1
 393 236 l 1
 170 236 l 1
 79 68 l 1
 88 53 l 1
 147 49 l 1
 147 0 l 1
 -68 0 l 1
 -68 48 l 1
 -12 56 l 1
 339 677 l 1
342 551 m 1
 201 291 l 1
 383 291 l 1
 342 551 l 1
EndSplineSet
Substitution2: "'c2sc' Capitals to Small Capitals in Latin lookup 4 subtable" aring.sc
Position2: "'cpsp' Capital Spacing in Latin lookup 2 subtable" dx=7 dy=0 dh=14 dv=0
EndChar

StartChar: AE
Encoding: 198 198 132
Width: 894
GlyphClass: 2
Flags: MW
HStem: 0 48<-102 123 -102 -102> 0 58<498 718 498 801> 252 57<238 413 195 425> 318 57<557 664 547 676> 614 57<603 787 603 603> 623 48<314 895>
VStem: 675 53<231 304> 715 57<462 462> 800 63<514 514>
AnchorPoint: "Anchor-2" 345 0 basechar 0
AnchorPoint: "Anchor-1" 532 684 basechar 0
LayerCount: 2
Fore
SplineSet
314 671 m 1xb680
 895 671 l 1xb680
 863 514 l 1
 800 514 l 1
 798 599 l 1
 787 614 l 1
 603 614 l 1
 557 375 l 1
 676 375 l 1
 692 390 l 1
 715 462 l 1
 772 462 l 1x3980
 728 231 l 1
 675 231 l 1
 675 304 l 1
 664 318 l 1
 547 318 l 1
 498 58 l 1
 718 58 l 1x7a80
 734 72 l 1
 770 179 l 1
 837 179 l 1
 801 0 l 1
 300 0 l 1
 300 47 l 1
 362 54 l 1
 378 70 l 1
 413 252 l 1
 195 252 l 1
 57 71 l 1
 61 56 l 1
 123 48 l 1
 123 0 l 1
 -102 0 l 1
 -102 48 l 1
 -36 61 l 1
 383 602 l 1
 375 616 l 1
 314 623 l 1
 314 671 l 1xb680
484 631 m 1
 238 309 l 1
 425 309 l 1
 484 631 l 1
EndSplineSet
Substitution2: "'c2sc' Capitals to Small Capitals in Latin lookup 4 subtable" ae.sc
Position2: "'cpsp' Capital Spacing in Latin lookup 2 subtable" dx=7 dy=0 dh=14 dv=0
EndChar

StartChar: Ccedilla
Encoding: 199 199 133
Width: 625
GlyphClass: 2
Flags: MW
HStem: -230 50<246 271.5 241.5 301> -13 13<278 327 278 354> 622 62<425.5 471.5>
VStem: 37 139<195 320> 318 82<-146 -128> 539 66<481 481>
AnchorPoint: "Anchor-1" 439 684 basechar 0
LayerCount: 2
Fore
SplineSet
636 650 m 1
 605 481 l 1
 539 481 l 1
 538 590 l 1
 528 608 l 1
 503 617 481 622 462 622 c 0
 389 622 328 597 281 549 c 0
 216 483 176 381 176 263 c 0
 176 127 250 47 370 47 c 0
 387 47 406 49 427 54 c 1
 446 72 l 1
 492 196 l 1
 559 196 l 1
 527 23 l 1
 456 -1 386 -13 322 -13 c 0
 150 -13 37 100 37 272 c 0
 37 368 68 457 131 537 c 0
 203 628 319 684 440 684 c 0
 505 684 569 672 636 650 c 1
278 0 m 1
 327 0 l 1
 316 -57 l 1
 322 -56 327 -56 332 -56 c 0
 377 -56 400 -76 400 -115 c 0
 400 -177 343 -230 259 -230 c 0
 233 -230 207 -226 180 -219 c 1
 189 -172 l 1
 213 -177 234 -180 249 -180 c 0
 294 -180 318 -162 318 -136 c 0
 318 -120 304 -110 278 -110 c 0
 272 -110 265 -111 257 -112 c 1
 278 0 l 1
EndSplineSet
Position2: "'cpsp' Capital Spacing in Latin lookup 2 subtable" dx=7 dy=0 dh=14 dv=0
EndChar

StartChar: Egrave
Encoding: 200 200 134
Width: 581
GlyphClass: 2
Flags: MW
HStem: 0 48<-22 491 -22 -22> 0 58<180 406 180 491> 319 56<241 351 230 363> 615 56<286 474 286 286> 622 49<85 580>
VStem: 362 54<230 230> 486 64<515 515>
LayerCount: 2
Fore
SplineSet
85 671 m 1xae
 580 671 l 1xae
 550 515 l 1
 486 515 l 1
 485 600 l 1
 474 615 l 1
 286 615 l 1
 241 375 l 1
 363 375 l 1
 378 389 l 1
 403 463 l 1
 460 463 l 1
 416 230 l 1
 362 230 l 1
 364 305 l 1
 351 319 l 1
 230 319 l 1
 180 58 l 1
 406 58 l 1x76
 420 72 l 1
 458 179 l 1
 524 179 l 1
 491 0 l 1
 -22 0 l 1
 -22 48 l 1
 43 54 l 1
 57 69 l 1
 158 601 l 1
 149 617 l 1
 85 622 l 1
 85 671 l 1xae
220 928 m 1
 344 928 l 1
 404 738 l 1
 337 738 l 1
 220 928 l 1
EndSplineSet
Position2: "'cpsp' Capital Spacing in Latin lookup 2 subtable" dx=7 dy=0 dh=14 dv=0
EndChar

StartChar: Eacute
Encoding: 201 201 135
Width: 581
GlyphClass: 2
Flags: MW
HStem: 0 48<-22 491 -22 -22> 0 58<180 406 180 491> 319 56<241 351 230 363> 615 56<286 474 286 286> 622 49<85 580>
VStem: 362 54<230 230> 486 64<515 515>
LayerCount: 2
Fore
SplineSet
85 671 m 1xae
 580 671 l 1xae
 550 515 l 1
 486 515 l 1
 485 600 l 1
 474 615 l 1
 286 615 l 1
 241 375 l 1
 363 375 l 1
 378 389 l 1
 403 463 l 1
 460 463 l 1
 416 230 l 1
 362 230 l 1
 364 305 l 1
 351 319 l 1
 230 319 l 1
 180 58 l 1
 406 58 l 1x76
 420 72 l 1
 458 179 l 1
 524 179 l 1
 491 0 l 1
 -22 0 l 1
 -22 48 l 1
 43 54 l 1
 57 69 l 1
 158 601 l 1
 149 617 l 1
 85 622 l 1
 85 671 l 1xae
438 928 m 1
 561 928 l 1
 371 738 l 1
 304 738 l 1
 438 928 l 1
EndSplineSet
Position2: "'cpsp' Capital Spacing in Latin lookup 2 subtable" dx=7 dy=0 dh=14 dv=0
EndChar

StartChar: Ecircumflex
Encoding: 202 202 136
Width: 581
GlyphClass: 2
Flags: MW
HStem: 0 48<-22 491 -22 -22> 0 58<180 406 180 491> 319 56<241 351 230 363> 615 56<286 474 286 286> 622 49<85 580>
VStem: 194 78<738 738> 362 54<230 230> 486 64<515 515>
LayerCount: 2
Fore
SplineSet
85 671 m 1xaf
 580 671 l 1xaf
 550 515 l 1
 486 515 l 1
 485 600 l 1
 474 615 l 1
 286 615 l 1
 241 375 l 1
 363 375 l 1
 378 389 l 1
 403 463 l 1
 460 463 l 1
 416 230 l 1
 362 230 l 1
 364 305 l 1
 351 319 l 1
 230 319 l 1
 180 58 l 1
 406 58 l 1x77
 420 72 l 1
 458 179 l 1
 524 179 l 1
 491 0 l 1
 -22 0 l 1
 -22 48 l 1
 43 54 l 1
 57 69 l 1
 158 601 l 1
 149 617 l 1
 85 622 l 1
 85 671 l 1xaf
341 928 m 1
 428 928 l 1
 502 738 l 1
 425 738 l 1
 372 863 l 1
 272 738 l 1
 194 738 l 1
 341 928 l 1
EndSplineSet
Position2: "'cpsp' Capital Spacing in Latin lookup 2 subtable" dx=7 dy=0 dh=14 dv=0
EndChar

StartChar: Edieresis
Encoding: 203 203 137
Width: 581
GlyphClass: 2
Flags: MW
HStem: 0 48<-22 491 -22 -22> 0 58<180 406 180 491> 319 56<241 351 230 363> 615 56<286 474 286 286> 622 49<85 580> 765 131<240 274.5 446.5 481>
VStem: 194 127<812.5 848 812.5 848.5> 362 54<230 230> 400 128<812 848.5> 486 64<515 515>
LayerCount: 2
Fore
SplineSet
85 671 m 1xaf40
 580 671 l 1xaf40
 550 515 l 1
 486 515 l 1
 485 600 l 1
 474 615 l 1
 286 615 l 1
 241 375 l 1
 363 375 l 1
 378 389 l 1
 403 463 l 1
 460 463 l 1
 416 230 l 1
 362 230 l 1
 364 305 l 1
 351 319 l 1
 230 319 l 1
 180 58 l 1
 406 58 l 1x7740
 420 72 l 1
 458 179 l 1
 524 179 l 1
 491 0 l 1
 -22 0 l 1
 -22 48 l 1
 43 54 l 1
 57 69 l 1
 158 601 l 1
 149 617 l 1
 85 622 l 1
 85 671 l 1xaf40
257 896 m 0
 292 896 321 866 321 830 c 0
 321 795 292 765 257 765 c 0
 223 765 194 794 194 830 c 0
 194 867 222 896 257 896 c 0
464 896 m 0
 498 896 528 867 528 830 c 0
 528 794 499 765 464 765 c 0
 429 765 400 794 400 830 c 0x2680
 400 867 429 896 464 896 c 0
EndSplineSet
Position2: "'cpsp' Capital Spacing in Latin lookup 2 subtable" dx=7 dy=0 dh=14 dv=0
EndChar

StartChar: Igrave
Encoding: 204 204 138
Width: 353
GlyphClass: 2
Flags: MW
HStem: 0 49<-20 263 -20 -20> 623 48<87 369 87 369>
LayerCount: 2
Fore
SplineSet
87 671 m 1
 369 671 l 1
 369 623 l 1
 303 619 l 1
 287 605 l 1
 186 67 l 1
 198 53 l 1
 263 49 l 1
 263 0 l 1
 -20 0 l 1
 -20 49 l 1
 46 54 l 1
 61 69 l 1
 162 605 l 1
 152 619 l 1
 87 623 l 1
 87 671 l 1
106 928 m 1
 230 928 l 1
 290 738 l 1
 223 738 l 1
 106 928 l 1
EndSplineSet
Position2: "'cpsp' Capital Spacing in Latin lookup 2 subtable" dx=7 dy=0 dh=14 dv=0
EndChar

StartChar: Iacute
Encoding: 205 205 139
Width: 353
GlyphClass: 2
Flags: MW
HStem: 0 49<-20 263 -20 -20> 623 48<87 369 87 369>
LayerCount: 2
Fore
SplineSet
87 671 m 1
 369 671 l 1
 369 623 l 1
 303 619 l 1
 287 605 l 1
 186 67 l 1
 198 53 l 1
 263 49 l 1
 263 0 l 1
 -20 0 l 1
 -20 49 l 1
 46 54 l 1
 61 69 l 1
 162 605 l 1
 152 619 l 1
 87 623 l 1
 87 671 l 1
324 928 m 1
 447 928 l 1
 257 738 l 1
 190 738 l 1
 324 928 l 1
EndSplineSet
Position2: "'cpsp' Capital Spacing in Latin lookup 2 subtable" dx=7 dy=0 dh=14 dv=0
EndChar

StartChar: Icircumflex
Encoding: 206 206 140
Width: 353
GlyphClass: 2
Flags: MW
HStem: 0 49<-20 263 -20 -20> 623 48<87 369 87 369>
VStem: 80 78<738 738>
LayerCount: 2
Fore
SplineSet
87 671 m 1
 369 671 l 1
 369 623 l 1
 303 619 l 1
 287 605 l 1
 186 67 l 1
 198 53 l 1
 263 49 l 1
 263 0 l 1
 -20 0 l 1
 -20 49 l 1
 46 54 l 1
 61 69 l 1
 162 605 l 1
 152 619 l 1
 87 623 l 1
 87 671 l 1
227 928 m 1
 314 928 l 1
 388 738 l 1
 311 738 l 1
 258 863 l 1
 158 738 l 1
 80 738 l 1
 227 928 l 1
EndSplineSet
Position2: "'cpsp' Capital Spacing in Latin lookup 2 subtable" dx=7 dy=0 dh=14 dv=0
EndChar

StartChar: Idieresis
Encoding: 207 207 141
Width: 353
GlyphClass: 2
Flags: MW
HStem: 0 49<-20 263 -20 -20> 623 48<87 369 87 369> 765 131<126 160.5 332.5 367>
VStem: 80 127<812.5 848 812.5 848.5> 286 128<812 848.5>
LayerCount: 2
Fore
SplineSet
87 671 m 1
 369 671 l 1
 369 623 l 1
 303 619 l 1
 287 605 l 1
 186 67 l 1
 198 53 l 1
 263 49 l 1
 263 0 l 1
 -20 0 l 1
 -20 49 l 1
 46 54 l 1
 61 69 l 1
 162 605 l 1
 152 619 l 1
 87 623 l 1
 87 671 l 1
143 896 m 0
 178 896 207 866 207 830 c 0
 207 795 178 765 143 765 c 0
 109 765 80 794 80 830 c 0
 80 867 108 896 143 896 c 0
350 896 m 0
 384 896 414 867 414 830 c 0
 414 794 385 765 350 765 c 0
 315 765 286 794 286 830 c 0
 286 867 315 896 350 896 c 0
EndSplineSet
Position2: "'cpsp' Capital Spacing in Latin lookup 2 subtable" dx=7 dy=0 dh=14 dv=0
EndChar

StartChar: Eth
Encoding: 208 208 142
Width: 702
GlyphClass: 2
Flags: MW
HStem: 0 49<-25 225 -25 -25> 0 57<181 222 222 225> 324 60<33 103 22 115 242 359> 615 56<285 285 285 339> 623 48<82 352>
VStem: 520 140<370 481.5>
LayerCount: 2
Fore
SplineSet
82 671 m 1xac
 352 671 l 2
 555 671 660 581 660 416 c 0
 660 299 615 188 536 108 c 0
 460 32 361 0 225 0 c 2x74
 -25 0 l 1
 -25 49 l 1
 41 54 l 1
 55 69 l 1
 103 324 l 1
 22 324 l 1
 33 384 l 1
 115 384 l 1
 156 603 l 1
 146 618 l 1
 82 623 l 1
 82 671 l 1xac
285 615 m 1
 242 384 l 1
 371 384 l 1
 359 324 l 1
 230 324 l 1
 181 57 l 1
 222 57 l 2
 321 57 391 88 440 155 c 0
 488 221 520 321 520 419 c 0
 520 544 453 615 339 615 c 2
 285 615 l 1
EndSplineSet
Substitution2: "'c2sc' Capitals to Small Capitals in Latin lookup 4 subtable" eth.sc
Position2: "'cpsp' Capital Spacing in Latin lookup 2 subtable" dx=7 dy=0 dh=14 dv=0
EndChar

StartChar: Ntilde
Encoding: 209 209 143
Width: 712
GlyphClass: 2
Flags: MW
HStem: 0 50<-26 202 -26 -26> 624 47<80 301> 773 72<485 516.5 485 522.5> 819 73<344 372>
VStem: 253 55<756 756> 553 53<908 908>
LayerCount: 2
Fore
SplineSet
80 671 m 1xcc
 301 671 l 1
 301 647 l 1
 506 162 l 1
 591 605 l 1
 579 618 l 1
 514 625 l 1
 514 671 l 1
 743 671 l 1
 743 624 l 1
 679 619 l 1
 663 606 l 1
 550 0 l 1
 447 0 l 1
 217 542 l 1
 127 72 l 1
 136 55 l 1
 202 49 l 1
 202 0 l 1
 -26 0 l 1
 -26 50 l 1
 39 55 l 1
 53 70 l 1
 155 605 l 1
 144 619 l 1
 80 624 l 1
 80 671 l 1xcc
553 908 m 1
 606 908 l 1
 593 820 551 773 494 773 c 0xec
 432 773 387 819 357 819 c 0
 331 819 313 797 308 756 c 1
 253 756 l 1
 265 844 308 892 366 892 c 0xdc
 424 892 468 845 502 845 c 0xec
 531 845 547 866 553 908 c 1
EndSplineSet
Position2: "'cpsp' Capital Spacing in Latin lookup 2 subtable" dx=7 dy=0 dh=14 dv=0
EndChar

StartChar: Ograve
Encoding: 210 210 144
Width: 729
GlyphClass: 2
Flags: MW
HStem: -13 61<281 353.5 281 369.5> 624 60<373 447.5>
VStem: 38 138<191 302.5 191 316.5> 549 141<367.5 482.5>
LayerCount: 2
Fore
SplineSet
412 684 m 0
 579 684 690 573 690 408 c 0
 690 305 657 207 598 130 c 0
 527 38 426 -13 313 -13 c 0
 148 -13 38 98 38 265 c 0
 38 368 70 464 130 543 c 0
 197 632 302 684 412 684 c 0
549 416 m 0
 549 549 492 624 403 624 c 0
 343 624 288 586 244 512 c 0
 202 443 176 349 176 256 c 0
 176 126 238 48 324 48 c 0
 383 48 440 86 485 161 c 0
 524 226 549 319 549 416 c 0
294 928 m 1
 418 928 l 1
 478 738 l 1
 411 738 l 1
 294 928 l 1
EndSplineSet
Position2: "'cpsp' Capital Spacing in Latin lookup 2 subtable" dx=7 dy=0 dh=14 dv=0
EndChar

StartChar: Oacute
Encoding: 211 211 145
Width: 729
GlyphClass: 2
Flags: MW
HStem: -13 61<281 353.5 281 369.5> 624 60<373 447.5>
VStem: 38 138<191 302.5 191 316.5> 549 141<367.5 482.5>
LayerCount: 2
Fore
SplineSet
412 684 m 0
 579 684 690 573 690 408 c 0
 690 305 657 207 598 130 c 0
 527 38 426 -13 313 -13 c 0
 148 -13 38 98 38 265 c 0
 38 368 70 464 130 543 c 0
 197 632 302 684 412 684 c 0
549 416 m 0
 549 549 492 624 403 624 c 0
 343 624 288 586 244 512 c 0
 202 443 176 349 176 256 c 0
 176 126 238 48 324 48 c 0
 383 48 440 86 485 161 c 0
 524 226 549 319 549 416 c 0
512 928 m 1
 635 928 l 1
 445 738 l 1
 378 738 l 1
 512 928 l 1
EndSplineSet
Position2: "'cpsp' Capital Spacing in Latin lookup 2 subtable" dx=7 dy=0 dh=14 dv=0
EndChar

StartChar: Ocircumflex
Encoding: 212 212 146
Width: 729
GlyphClass: 2
Flags: MW
HStem: -13 61<281 353.5 281 369.5> 624 60<373 447.5>
VStem: 38 138<191 302.5 191 316.5> 268 78<738 738> 549 141<367.5 482.5>
LayerCount: 2
Fore
SplineSet
412 684 m 0
 579 684 690 573 690 408 c 0
 690 305 657 207 598 130 c 0
 527 38 426 -13 313 -13 c 0
 148 -13 38 98 38 265 c 0
 38 368 70 464 130 543 c 0
 197 632 302 684 412 684 c 0
549 416 m 0
 549 549 492 624 403 624 c 0
 343 624 288 586 244 512 c 0
 202 443 176 349 176 256 c 0
 176 126 238 48 324 48 c 0
 383 48 440 86 485 161 c 0
 524 226 549 319 549 416 c 0
415 928 m 1
 502 928 l 1
 576 738 l 1
 499 738 l 1
 446 863 l 1
 346 738 l 1
 268 738 l 1
 415 928 l 1
EndSplineSet
Position2: "'cpsp' Capital Spacing in Latin lookup 2 subtable" dx=7 dy=0 dh=14 dv=0
EndChar

StartChar: Otilde
Encoding: 213 213 147
Width: 729
GlyphClass: 2
Flags: MW
HStem: -13 61<281 353.5 281 369.5> 624 60<373 447.5> 773 72<494 525.5 494 531.5> 819 73<353 381>
VStem: 38 138<191 302.5 191 316.5> 262 55<756 756> 549 141<367.5 482.5> 562 53<908 908>
LayerCount: 2
Fore
SplineSet
412 684 m 0xce
 579 684 690 573 690 408 c 0
 690 305 657 207 598 130 c 0
 527 38 426 -13 313 -13 c 0
 148 -13 38 98 38 265 c 0
 38 368 70 464 130 543 c 0
 197 632 302 684 412 684 c 0xce
549 416 m 0
 549 549 492 624 403 624 c 0
 343 624 288 586 244 512 c 0
 202 443 176 349 176 256 c 0
 176 126 238 48 324 48 c 0
 383 48 440 86 485 161 c 0
 524 226 549 319 549 416 c 0
562 908 m 1xed
 615 908 l 1
 602 820 560 773 503 773 c 0xed
 441 773 396 819 366 819 c 0
 340 819 322 797 317 756 c 1
 262 756 l 1
 274 844 317 892 375 892 c 0xdd
 433 892 477 845 511 845 c 0
 540 845 556 866 562 908 c 1xed
EndSplineSet
Position2: "'cpsp' Capital Spacing in Latin lookup 2 subtable" dx=7 dy=0 dh=14 dv=0
EndChar

StartChar: Odieresis
Encoding: 214 214 148
Width: 729
GlyphClass: 2
Flags: MW
HStem: -13 61<281 353.5 281 369.5> 624 60<373 447.5> 765 131<314 348.5 520.5 555>
VStem: 38 138<191 302.5 191 316.5> 268 127<812.5 848 812.5 848.5> 474 128<812 848.5> 549 141<367.5 482.5>
LayerCount: 2
Fore
SplineSet
412 684 m 0xfa
 579 684 690 573 690 408 c 0
 690 305 657 207 598 130 c 0
 527 38 426 -13 313 -13 c 0
 148 -13 38 98 38 265 c 0
 38 368 70 464 130 543 c 0
 197 632 302 684 412 684 c 0xfa
549 416 m 0
 549 549 492 624 403 624 c 0
 343 624 288 586 244 512 c 0
 202 443 176 349 176 256 c 0
 176 126 238 48 324 48 c 0
 383 48 440 86 485 161 c 0
 524 226 549 319 549 416 c 0
331 896 m 0
 366 896 395 866 395 830 c 0
 395 795 366 765 331 765 c 0
 297 765 268 794 268 830 c 0
 268 867 296 896 331 896 c 0
538 896 m 0
 572 896 602 867 602 830 c 0
 602 794 573 765 538 765 c 0
 503 765 474 794 474 830 c 0xfc
 474 867 503 896 538 896 c 0
EndSplineSet
Position2: "'cpsp' Capital Spacing in Latin lookup 2 subtable" dx=7 dy=0 dh=14 dv=0
EndChar

StartChar: multiply
Encoding: 215 215 149
Width: 833
GlyphClass: 2
Flags: W
LayerCount: 2
Fore
SplineSet
421 356 m 1
 646 580 l 1
 703 523 l 1
 479 298 l 1
 703 74 l 1
 646 16 l 1
 421 241 l 1
 197 16 l 1
 140 74 l 1
 364 298 l 1
 140 523 l 1
 197 580 l 1
 421 356 l 1
EndSplineSet
EndChar

StartChar: Oslash
Encoding: 216 216 150
Width: 729
GlyphClass: 2
Flags: MW
HStem: -13 58<303.5 354.5 303.5 366> 626 57<372.5 423>
VStem: 37 133<241 310.5 241 314> 556 134<360.5 441>
LayerCount: 2
Fore
SplineSet
601 750 m 1
 643 722 l 1
 584 633 l 1
 654 580 690 503 690 409 c 0
 690 302 655 199 590 120 c 0
 519 33 421 -13 311 -13 c 0
 258 -13 211 -2 171 20 c 1
 103 -81 l 1
 66 -50 l 1
 130 47 l 1
 69 103 37 176 37 256 c 0
 37 372 71 471 140 554 c 0
 208 636 308 683 417 683 c 0
 464 683 505 675 540 658 c 1
 601 750 l 1
496 593 m 1
 471 615 441 626 405 626 c 0
 340 626 289 593 244 524 c 0
 199 456 170 358 170 263 c 0
 170 219 177 177 192 137 c 1
 496 593 l 1
526 550 m 1
 221 91 l 1
 249 60 283 45 324 45 c 0
 385 45 439 78 484 146 c 0
 527 211 556 308 556 413 c 0
 556 469 547 514 526 550 c 1
EndSplineSet
Substitution2: "'c2sc' Capitals to Small Capitals in Latin lookup 4 subtable" oslash.sc
Position2: "'cpsp' Capital Spacing in Latin lookup 2 subtable" dx=7 dy=0 dh=14 dv=0
EndChar

StartChar: Ugrave
Encoding: 217 217 151
Width: 701
GlyphClass: 2
Flags: MW
HStem: -13 79<290 334> 624 47<76 353>
VStem: 72 129<147 176.5>
LayerCount: 2
Fore
SplineSet
76 671 m 1
 353 671 l 1
 353 624 l 1
 290 619 l 1
 276 607 l 1
 210 258 l 2
 205 230 201 206 201 185 c 0
 201 109 248 66 332 66 c 0
 444 66 492 125 516 249 c 2
 585 600 l 1
 575 617 l 1
 509 624 l 1
 509 671 l 1
 735 671 l 1
 735 624 l 1
 671 617 l 1
 656 603 l 1
 588 251 l 2
 574 177 560 116 506 62 c 0
 458 14 382 -13 286 -13 c 0
 148 -13 72 50 72 164 c 0
 72 189 75 218 82 254 c 2
 149 605 l 1
 137 618 l 1
 76 623 l 1
 76 671 l 1
280 928 m 1
 404 928 l 1
 464 738 l 1
 397 738 l 1
 280 928 l 1
EndSplineSet
Position2: "'cpsp' Capital Spacing in Latin lookup 2 subtable" dx=7 dy=0 dh=14 dv=0
EndChar

StartChar: Uacute
Encoding: 218 218 152
Width: 701
GlyphClass: 2
Flags: MW
HStem: -13 79<290 334> 624 47<76 353>
VStem: 72 129<147 176.5>
LayerCount: 2
Fore
SplineSet
76 671 m 1
 353 671 l 1
 353 624 l 1
 290 619 l 1
 276 607 l 1
 210 258 l 2
 205 230 201 206 201 185 c 0
 201 109 248 66 332 66 c 0
 444 66 492 125 516 249 c 2
 585 600 l 1
 575 617 l 1
 509 624 l 1
 509 671 l 1
 735 671 l 1
 735 624 l 1
 671 617 l 1
 656 603 l 1
 588 251 l 2
 574 177 560 116 506 62 c 0
 458 14 382 -13 286 -13 c 0
 148 -13 72 50 72 164 c 0
 72 189 75 218 82 254 c 2
 149 605 l 1
 137 618 l 1
 76 623 l 1
 76 671 l 1
498 928 m 1
 621 928 l 1
 431 738 l 1
 364 738 l 1
 498 928 l 1
EndSplineSet
Position2: "'cpsp' Capital Spacing in Latin lookup 2 subtable" dx=7 dy=0 dh=14 dv=0
EndChar

StartChar: Ucircumflex
Encoding: 219 219 153
Width: 701
GlyphClass: 2
Flags: MW
HStem: -13 79<290 334> 624 47<76 353>
VStem: 72 129<147 176.5> 254 78<738 738>
LayerCount: 2
Fore
SplineSet
76 671 m 1
 353 671 l 1
 353 624 l 1
 290 619 l 1
 276 607 l 1
 210 258 l 2
 205 230 201 206 201 185 c 0
 201 109 248 66 332 66 c 0
 444 66 492 125 516 249 c 2
 585 600 l 1
 575 617 l 1
 509 624 l 1
 509 671 l 1
 735 671 l 1
 735 624 l 1
 671 617 l 1
 656 603 l 1
 588 251 l 2
 574 177 560 116 506 62 c 0
 458 14 382 -13 286 -13 c 0
 148 -13 72 50 72 164 c 0
 72 189 75 218 82 254 c 2
 149 605 l 1
 137 618 l 1
 76 623 l 1
 76 671 l 1
401 928 m 1
 488 928 l 1
 562 738 l 1
 485 738 l 1
 432 863 l 1
 332 738 l 1
 254 738 l 1
 401 928 l 1
EndSplineSet
Position2: "'cpsp' Capital Spacing in Latin lookup 2 subtable" dx=7 dy=0 dh=14 dv=0
EndChar

StartChar: Udieresis
Encoding: 220 220 154
Width: 701
GlyphClass: 2
Flags: MW
HStem: -13 79<290 334> 624 47<76 353> 765 131<300 334.5 506.5 541>
VStem: 72 129<147 176.5> 254 127<812.5 848 812.5 848.5> 460 128<812 848.5>
LayerCount: 2
Fore
SplineSet
76 671 m 1
 353 671 l 1
 353 624 l 1
 290 619 l 1
 276 607 l 1
 210 258 l 2
 205 230 201 206 201 185 c 0
 201 109 248 66 332 66 c 0
 444 66 492 125 516 249 c 2
 585 600 l 1
 575 617 l 1
 509 624 l 1
 509 671 l 1
 735 671 l 1
 735 624 l 1
 671 617 l 1
 656 603 l 1
 588 251 l 2
 574 177 560 116 506 62 c 0
 458 14 382 -13 286 -13 c 0
 148 -13 72 50 72 164 c 0
 72 189 75 218 82 254 c 2
 149 605 l 1
 137 618 l 1
 76 623 l 1
 76 671 l 1
317 896 m 0
 352 896 381 866 381 830 c 0
 381 795 352 765 317 765 c 0
 283 765 254 794 254 830 c 0
 254 867 282 896 317 896 c 0
524 896 m 0
 558 896 588 867 588 830 c 0
 588 794 559 765 524 765 c 0
 489 765 460 794 460 830 c 0
 460 867 489 896 524 896 c 0
EndSplineSet
Position2: "'cpsp' Capital Spacing in Latin lookup 2 subtable" dx=7 dy=0 dh=14 dv=0
EndChar

StartChar: Yacute
Encoding: 221 221 155
Width: 586
GlyphClass: 2
Flags: MW
HStem: 0 49<93 377 93 93> 623 48<26 299 26 299>
LayerCount: 2
Fore
SplineSet
26 671 m 1
 299 671 l 1
 299 623 l 1
 237 617 l 1
 225 603 l 1
 310 343 l 1
 495 600 l 1
 486 616 l 1
 422 622 l 1
 422 671 l 1
 656 671 l 1
 656 624 l 1
 591 615 l 1
 581 606 l 1
 337 276 l 1
 298 68 l 1
 309 55 l 1
 377 49 l 1
 377 0 l 1
 93 0 l 1
 93 49 l 1
 160 55 l 1
 176 71 l 1
 212 262 l 1
 98 609 l 1
 89 617 l 1
 26 623 l 1
 26 671 l 1
440 928 m 1
 563 928 l 1
 373 738 l 1
 306 738 l 1
 440 928 l 1
EndSplineSet
Position2: "'cpsp' Capital Spacing in Latin lookup 2 subtable" dx=7 dy=0 dh=14 dv=0
EndChar

StartChar: Thorn
Encoding: 222 222 156
Width: 576
GlyphClass: 2
Flags: MW
HStem: 0 49<-26 251 -26 -26> 123 57<242.5 287 222.5 344.5> 487 56<276.5 314 314 325.5> 619 46<80 356 80 356>
VStem: 416 136<312 411>
LayerCount: 2
Fore
SplineSet
80 665 m 1
 356 665 l 1
 356 619 l 1
 291 613 l 1
 278 600 l 1
 267 543 l 1
 314 543 l 2
 474 543 552 492 552 375 c 0
 552 231 438 123 251 123 c 0
 234 123 213 123 187 125 c 1
 177 69 l 1
 186 53 l 1
 251 48 l 1
 251 0 l 1
 -26 0 l 1
 -26 49 l 1
 37 54 l 1
 52 67 l 1
 152 597 l 1
 142 614 l 1
 80 619 l 1
 80 665 l 1
256 486 m 1
 198 181 l 1
 208 180 218 180 227 180 c 0
 347 180 416 251 416 373 c 0
 416 449 371 487 280 487 c 0
 273 487 264 487 256 486 c 1
EndSplineSet
Substitution2: "'c2sc' Capitals to Small Capitals in Latin lookup 4 subtable" thorn.sc
Position2: "'cpsp' Capital Spacing in Latin lookup 2 subtable" dx=7 dy=0 dh=14 dv=0
EndChar

StartChar: germandbls
Encoding: 223 223 157
Width: 622
GlyphClass: 2
Flags: MW
HStem: -10 52<373 409 373 434> 681 56<339.5 408.5>
VStem: 285 117<368 374> 456 109<587.5 628> 464 108<110 133>
LayerCount: 2
Fore
SplineSet
539 454 m 1xf0
 529 455 519 455 510 455 c 0
 438 455 402 431 402 383 c 0
 402 353 425 333 463 304 c 0
 525 256 572 227 572 157 c 0
 572 63 490 -10 378 -10 c 0
 286 -10 224 40 224 91 c 0
 224 132 250 158 288 158 c 0
 307 158 324 149 340 133 c 1
 323 66 l 1
 341 50 362 42 384 42 c 0
 434 42 464 71 464 112 c 0xe8
 464 154 434 174 387 207 c 0
 323 252 285 284 285 336 c 0
 285 412 340 470 433 484 c 1
 449 533 456 572 456 603 c 0
 456 653 431 681 386 681 c 0
 293 681 242 594 216 419 c 2
 178 159 l 2
 165 68 147 -6 109 -68 c 0
 52 -159 -28 -213 -89 -213 c 0
 -129 -213 -161 -185 -161 -148 c 0
 -161 -121 -147 -99 -121 -87 c 1
 -14 -143 l 1
 22 -94 39 -5 57 124 c 2
 97 407 l 2
 128 626 231 737 400 737 c 0
 503 737 565 679 565 588 c 0
 565 554 556 510 539 454 c 1xf0
EndSplineSet
Substitution2: "'smcp' Lowercase to Small Capitals in Latin lookup 3 subtable" germandbls.sc
Substitution2: "'smcp' Lowercase to Small Capitals in Latin lookup 2 subtable" germandbls.sc
Substitution2: "'ss01' Style Set 1 lookup 0 subtable" germandbls.ss01
EndChar

StartChar: agrave
Encoding: 224 224 158
Width: 572
GlyphClass: 2
Flags: MW
HStem: -8 81<117 237.5> -6 61<371.5 491> 446 48<270.5 318.5 255.5 319.5>
VStem: 18 128<150 210>
LayerCount: 2
Fore
SplineSet
453 493 m 1xb0
 512 493 l 1
 506 475 493 424 478 341 c 2
 448 179 l 2
 442 146 439 122 439 109 c 0
 439 75 458 55 481 55 c 0
 501 55 523 59 547 66 c 1
 547 29 l 1
 484 6 434 -6 396 -6 c 0x70
 347 -6 321 19 321 67 c 2
 321 72 l 1
 265 19 211 -8 162 -8 c 0
 72 -8 18 59 18 174 c 0
 18 246 38 312 78 373 c 0
 128 449 211 494 300 494 c 0
 337 494 375 485 416 469 c 1
 453 493 l 1xb0
330 445 m 2
 326 445 322 446 317 446 c 0
 224 446 146 340 146 188 c 0
 146 112 173 73 222 73 c 0xb0
 253 73 285 89 323 120 c 1
 370 385 l 1
 330 445 l 2
200 742 m 1
 324 742 l 1
 384 552 l 1
 317 552 l 1
 200 742 l 1
EndSplineSet
Substitution2: "'smcp' Lowercase to Small Capitals in Latin lookup 2 subtable" agrave.sc
EndChar

StartChar: aacute
Encoding: 225 225 159
Width: 572
GlyphClass: 2
Flags: MW
HStem: -8 81<117 237.5> -6 61<371.5 491> 446 48<270.5 318.5 255.5 319.5>
VStem: 18 128<150 210>
LayerCount: 2
Fore
SplineSet
453 493 m 1xb0
 512 493 l 1
 506 475 493 424 478 341 c 2
 448 179 l 2
 442 146 439 122 439 109 c 0
 439 75 458 55 481 55 c 0
 501 55 523 59 547 66 c 1
 547 29 l 1
 484 6 434 -6 396 -6 c 0x70
 347 -6 321 19 321 67 c 2
 321 72 l 1
 265 19 211 -8 162 -8 c 0
 72 -8 18 59 18 174 c 0
 18 246 38 312 78 373 c 0
 128 449 211 494 300 494 c 0
 337 494 375 485 416 469 c 1
 453 493 l 1xb0
330 445 m 2
 326 445 322 446 317 446 c 0
 224 446 146 340 146 188 c 0
 146 112 173 73 222 73 c 0xb0
 253 73 285 89 323 120 c 1
 370 385 l 1
 330 445 l 2
418 742 m 1
 541 742 l 1
 351 552 l 1
 284 552 l 1
 418 742 l 1
EndSplineSet
Substitution2: "'smcp' Lowercase to Small Capitals in Latin lookup 2 subtable" aacute.sc
EndChar

StartChar: acircumflex
Encoding: 226 226 160
Width: 572
GlyphClass: 2
Flags: MW
HStem: -8 81<117 237.5> -6 61<371.5 491> 446 48<270.5 318.5 255.5 319.5>
VStem: 18 128<150 210> 174 78<552 552>
LayerCount: 2
Fore
SplineSet
453 493 m 1xb8
 512 493 l 1
 506 475 493 424 478 341 c 2
 448 179 l 2
 442 146 439 122 439 109 c 0
 439 75 458 55 481 55 c 0
 501 55 523 59 547 66 c 1
 547 29 l 1
 484 6 434 -6 396 -6 c 0x78
 347 -6 321 19 321 67 c 2
 321 72 l 1
 265 19 211 -8 162 -8 c 0
 72 -8 18 59 18 174 c 0
 18 246 38 312 78 373 c 0
 128 449 211 494 300 494 c 0
 337 494 375 485 416 469 c 1
 453 493 l 1xb8
330 445 m 2
 326 445 322 446 317 446 c 0
 224 446 146 340 146 188 c 0
 146 112 173 73 222 73 c 0xb8
 253 73 285 89 323 120 c 1
 370 385 l 1
 330 445 l 2
321 742 m 1
 408 742 l 1
 482 552 l 1
 405 552 l 1
 352 677 l 1
 252 552 l 1
 174 552 l 1
 321 742 l 1
EndSplineSet
Substitution2: "'smcp' Lowercase to Small Capitals in Latin lookup 2 subtable" acircumflex.sc
EndChar

StartChar: atilde
Encoding: 227 227 161
Width: 572
GlyphClass: 2
Flags: MW
HStem: -8 81<117 237.5> -6 61<371.5 491> 446 48<270.5 318.5 255.5 319.5> 587 72<400 431.5 400 437.5> 633 73<259 287>
VStem: 18 128<150 210> 168 55<570 570> 468 53<722 722>
LayerCount: 2
Fore
SplineSet
453 493 m 1xa7
 512 493 l 1
 506 475 493 424 478 341 c 2
 448 179 l 2
 442 146 439 122 439 109 c 0
 439 75 458 55 481 55 c 0
 501 55 523 59 547 66 c 1
 547 29 l 1
 484 6 434 -6 396 -6 c 0x67
 347 -6 321 19 321 67 c 2
 321 72 l 1
 265 19 211 -8 162 -8 c 0
 72 -8 18 59 18 174 c 0
 18 246 38 312 78 373 c 0
 128 449 211 494 300 494 c 0
 337 494 375 485 416 469 c 1
 453 493 l 1xa7
330 445 m 2
 326 445 322 446 317 446 c 0
 224 446 146 340 146 188 c 0
 146 112 173 73 222 73 c 0xa7
 253 73 285 89 323 120 c 1
 370 385 l 1
 330 445 l 2
468 722 m 1
 521 722 l 1
 508 634 466 587 409 587 c 0x37
 347 587 302 633 272 633 c 0
 246 633 228 611 223 570 c 1
 168 570 l 1
 180 658 223 706 281 706 c 0x2f
 339 706 383 659 417 659 c 0x37
 446 659 462 680 468 722 c 1
EndSplineSet
Substitution2: "'smcp' Lowercase to Small Capitals in Latin lookup 2 subtable" atilde.sc
EndChar

StartChar: adieresis
Encoding: 228 228 162
Width: 572
GlyphClass: 2
Flags: MW
HStem: -8 81<117 237.5> -6 61<371.5 491> 446 48<270.5 318.5 255.5 319.5> 579 131<220 254.5 426.5 461>
VStem: 18 128<150 210> 174 127<626.5 662 626.5 662.5> 380 128<626 662.5>
LayerCount: 2
Fore
SplineSet
453 493 m 1xbe
 512 493 l 1
 506 475 493 424 478 341 c 2
 448 179 l 2
 442 146 439 122 439 109 c 0
 439 75 458 55 481 55 c 0
 501 55 523 59 547 66 c 1
 547 29 l 1
 484 6 434 -6 396 -6 c 0x7e
 347 -6 321 19 321 67 c 2
 321 72 l 1
 265 19 211 -8 162 -8 c 0
 72 -8 18 59 18 174 c 0
 18 246 38 312 78 373 c 0
 128 449 211 494 300 494 c 0
 337 494 375 485 416 469 c 1
 453 493 l 1xbe
330 445 m 2
 326 445 322 446 317 446 c 0
 224 446 146 340 146 188 c 0
 146 112 173 73 222 73 c 0xbe
 253 73 285 89 323 120 c 1
 370 385 l 1
 330 445 l 2
237 710 m 0
 272 710 301 680 301 644 c 0
 301 609 272 579 237 579 c 0
 203 579 174 608 174 644 c 0
 174 681 202 710 237 710 c 0
444 710 m 0
 478 710 508 681 508 644 c 0
 508 608 479 579 444 579 c 0
 409 579 380 608 380 644 c 0
 380 681 409 710 444 710 c 0
EndSplineSet
Substitution2: "'smcp' Lowercase to Small Capitals in Latin lookup 2 subtable" adieresis.sc
EndChar

StartChar: aring
Encoding: 229 229 163
Width: 572
GlyphClass: 2
Flags: MW
HStem: -8 81<117 237.5> -6 61<371.5 491> 446 48<270.5 318.5 255.5 319.5> 546 50<310.5 344 310.5 358.5> 723 50<310.5 344>
VStem: 18 128<150 210> 215 51<641.5 677 641.5 692> 389 50<641.5 676.5>
LayerCount: 2
Fore
SplineSet
453 493 m 1xbf
 512 493 l 1
 506 475 493 424 478 341 c 2
 448 179 l 2
 442 146 439 122 439 109 c 0
 439 75 458 55 481 55 c 0
 501 55 523 59 547 66 c 1
 547 29 l 1
 484 6 434 -6 396 -6 c 0x7f
 347 -6 321 19 321 67 c 2
 321 72 l 1
 265 19 211 -8 162 -8 c 0
 72 -8 18 59 18 174 c 0
 18 246 38 312 78 373 c 0
 128 449 211 494 300 494 c 0
 337 494 375 485 416 469 c 1
 453 493 l 1xbf
330 445 m 2
 326 445 322 446 317 446 c 0
 224 446 146 340 146 188 c 0
 146 112 173 73 222 73 c 0xbf
 253 73 285 89 323 120 c 1
 370 385 l 1
 330 445 l 2
327 773 m 0
 390 773 439 723 439 659 c 0
 439 595 390 546 327 546 c 0
 264 546 215 595 215 662 c 0
 215 722 265 773 327 773 c 0
327 723 m 0
 294 723 266 695 266 659 c 0
 266 624 294 596 327 596 c 0
 361 596 389 624 389 659 c 0
 389 694 361 723 327 723 c 0
EndSplineSet
Substitution2: "'smcp' Lowercase to Small Capitals in Latin lookup 2 subtable" aring.sc
EndChar

StartChar: ae
Encoding: 230 230 164
Width: 719
GlyphClass: 2
Flags: MW
HStem: -8 77<82.5 205.5> 77 62<659 659> 224 43 238 48 440 53<237 265.5>
VStem: 5 124<110 153> 284 115<167 189> 579 105<364.5 409>
AnchorPoint: "Anchor-2" 313 0 basechar 0
AnchorPoint: "Anchor-1" 417 493 basechar 0
LayerCount: 2
Fore
SplineSet
308 68 m 1xef
 241 17 181 -8 116 -8 c 0
 49 -8 5 36 5 100 c 0
 5 206 102 262 301 286 c 1xdf
 311 338 l 2
 313 348 314 360 314 373 c 0
 314 416 288 440 243 440 c 0
 231 440 217 438 200 434 c 1
 181 337 l 1
 85 337 l 2
 67 337 58 342 58 355 c 0
 58 425 148 493 270 493 c 0
 332 493 372 480 403 434 c 1
 462 472 511 494 564 494 c 0
 639 494 684 451 684 385 c 0
 684 288 587 224 408 224 c 2
 400 224 l 1
 399 215 399 207 399 199 c 0
 399 113 438 68 505 68 c 0
 550 68 601 92 659 139 c 1
 659 77 l 1
 588 20 516 -9 450 -9 c 0
 386 -9 338 17 308 68 c 1xef
293 106 m 1
 287 131 284 155 284 179 c 0
 284 199 286 218 290 238 c 1
 182 223 129 190 129 129 c 0
 129 91 152 69 192 69 c 0
 219 69 253 81 293 106 c 1
404 267 m 1xef
 516 277 579 335 579 394 c 0
 579 424 560 443 532 443 c 0
 483 443 429 382 404 267 c 1xef
EndSplineSet
Substitution2: "'smcp' Lowercase to Small Capitals in Latin lookup 2 subtable" ae.sc
EndChar

StartChar: ccedilla
Encoding: 231 231 165
Width: 437
GlyphClass: 2
Flags: MW
HStem: -230 50<93 118.5 88.5 148> -10 10<134.5 174 125 216> 85 59<394 394> 473 20G<259 334.5>
VStem: 16 125<161.5 218.5> 165 82<-146 -128>
AnchorPoint: "Anchor-1" 298 493 basechar 0
LayerCount: 2
Fore
SplineSet
326 339 m 1
 262 441 l 1
 195 422 141 329 141 205 c 0
 141 118 178 70 240 70 c 0
 283 70 337 94 394 144 c 1
 394 85 l 1
 322 21 247 -10 185 -10 c 0
 84 -10 16 65 16 182 c 0
 16 255 38 321 82 381 c 0
 132 449 219 493 299 493 c 0
 370 493 409 461 409 412 c 0
 409 372 377 341 326 339 c 1
125 0 m 1
 174 0 l 1
 163 -57 l 1
 169 -56 174 -56 179 -56 c 0
 224 -56 247 -76 247 -115 c 0
 247 -177 190 -230 106 -230 c 0
 80 -230 54 -226 27 -219 c 1
 36 -172 l 1
 60 -177 81 -180 96 -180 c 0
 141 -180 165 -162 165 -136 c 0
 165 -120 151 -110 125 -110 c 0
 119 -110 112 -111 104 -112 c 1
 125 0 l 1
EndSplineSet
Substitution2: "'smcp' Lowercase to Small Capitals in Latin lookup 2 subtable" ccedilla.sc
EndChar

StartChar: egrave
Encoding: 232 232 166
Width: 464
GlyphClass: 2
Flags: MW
HStem: -9 75<212.5 226> 75 61<401 403> 226 43 441 50<277 296>
VStem: 19 120<154.5 201.5 154.5 228> 330 101<361 405.5>
LayerCount: 2
Fore
SplineSet
141 227 m 1
 140 216 139 206 139 197 c 0
 139 112 179 66 246 66 c 0
 289 66 343 89 403 136 c 1
 401 75 l 1
 328 18 256 -9 196 -9 c 0
 85 -9 19 62 19 181 c 0
 19 275 58 361 132 424 c 0
 183 467 247 491 307 491 c 0
 385 491 431 448 431 382 c 0
 431 287 339 226 172 226 c 0
 162 226 152 227 141 227 c 1
149 269 m 1
 261 274 330 332 330 390 c 0
 330 421 311 441 281 441 c 0
 229 441 177 382 149 269 c 1
146 742 m 1
 270 742 l 1
 330 552 l 1
 263 552 l 1
 146 742 l 1
EndSplineSet
Substitution2: "'smcp' Lowercase to Small Capitals in Latin lookup 2 subtable" egrave.sc
EndChar

StartChar: eacute
Encoding: 233 233 167
Width: 464
GlyphClass: 2
Flags: MW
HStem: -9 75<212.5 226> 75 61<401 403> 226 43 441 50<277 296>
VStem: 19 120<154.5 201.5 154.5 228> 330 101<361 405.5>
LayerCount: 2
Fore
SplineSet
141 227 m 1
 140 216 139 206 139 197 c 0
 139 112 179 66 246 66 c 0
 289 66 343 89 403 136 c 1
 401 75 l 1
 328 18 256 -9 196 -9 c 0
 85 -9 19 62 19 181 c 0
 19 275 58 361 132 424 c 0
 183 467 247 491 307 491 c 0
 385 491 431 448 431 382 c 0
 431 287 339 226 172 226 c 0
 162 226 152 227 141 227 c 1
149 269 m 1
 261 274 330 332 330 390 c 0
 330 421 311 441 281 441 c 0
 229 441 177 382 149 269 c 1
364 742 m 1
 487 742 l 1
 297 552 l 1
 230 552 l 1
 364 742 l 1
EndSplineSet
Substitution2: "'smcp' Lowercase to Small Capitals in Latin lookup 2 subtable" eacute.sc
EndChar

StartChar: ecircumflex
Encoding: 234 234 168
Width: 464
GlyphClass: 2
Flags: MW
HStem: -9 75<212.5 226> 75 61<401 403> 226 43 441 50<277 296>
VStem: 19 120<154.5 201.5 154.5 228> 120 78<552 552> 330 101<361 405.5>
LayerCount: 2
Fore
SplineSet
141 227 m 1xfa
 140 216 139 206 139 197 c 0
 139 112 179 66 246 66 c 0
 289 66 343 89 403 136 c 1
 401 75 l 1
 328 18 256 -9 196 -9 c 0
 85 -9 19 62 19 181 c 0
 19 275 58 361 132 424 c 0
 183 467 247 491 307 491 c 0
 385 491 431 448 431 382 c 0
 431 287 339 226 172 226 c 0
 162 226 152 227 141 227 c 1xfa
149 269 m 1
 261 274 330 332 330 390 c 0
 330 421 311 441 281 441 c 0
 229 441 177 382 149 269 c 1
267 742 m 1
 354 742 l 1
 428 552 l 1
 351 552 l 1
 298 677 l 1
 198 552 l 1
 120 552 l 1xf6
 267 742 l 1
EndSplineSet
Substitution2: "'smcp' Lowercase to Small Capitals in Latin lookup 2 subtable" ecircumflex.sc
EndChar

StartChar: edieresis
Encoding: 235 235 169
Width: 464
GlyphClass: 2
Flags: MW
HStem: -9 75<212.5 226> 75 61<401 403> 226 43 441 50<277 296> 579 131<166 200.5 372.5 407>
VStem: 19 120<154.5 201.5 154.5 228> 120 127<626.5 662 626.5 662.5> 326 128<626 662.5> 330 101<361 405.5>
LayerCount: 2
Fore
SplineSet
141 227 m 1xfc80
 140 216 139 206 139 197 c 0
 139 112 179 66 246 66 c 0
 289 66 343 89 403 136 c 1
 401 75 l 1
 328 18 256 -9 196 -9 c 0
 85 -9 19 62 19 181 c 0
 19 275 58 361 132 424 c 0
 183 467 247 491 307 491 c 0
 385 491 431 448 431 382 c 0
 431 287 339 226 172 226 c 0
 162 226 152 227 141 227 c 1xfc80
149 269 m 1
 261 274 330 332 330 390 c 0
 330 421 311 441 281 441 c 0
 229 441 177 382 149 269 c 1
183 710 m 0
 218 710 247 680 247 644 c 0
 247 609 218 579 183 579 c 0
 149 579 120 608 120 644 c 0xfa
 120 681 148 710 183 710 c 0
390 710 m 0
 424 710 454 681 454 644 c 0
 454 608 425 579 390 579 c 0
 355 579 326 608 326 644 c 0xf9
 326 681 355 710 390 710 c 0
EndSplineSet
Substitution2: "'smcp' Lowercase to Small Capitals in Latin lookup 2 subtable" edieresis.sc
EndChar

StartChar: igrave
Encoding: 236 236 170
Width: 318
GlyphClass: 2
Flags: MW
HStem: -7 66<97.5 231.5> 420 36<29 29> 473 20G<200 244 244 244>
VStem: 48 127<45.5 119>
LayerCount: 2
Fore
SplineSet
200 493 m 1
 244 493 l 1
 180 155 l 2
 177 138 175 124 175 114 c 0
 175 78 192 59 224 59 c 0
 239 59 263 64 293 73 c 1
 293 32 l 1
 230 7 175 -7 122 -7 c 0
 73 -7 48 20 48 71 c 0
 48 88 52 111 57 138 c 2
 111 407 l 1
 29 420 l 1
 29 456 l 1
 200 493 l 1
55 742 m 1
 179 742 l 1
 239 552 l 1
 172 552 l 1
 55 742 l 1
EndSplineSet
Substitution2: "'smcp' Lowercase to Small Capitals in Latin lookup 2 subtable" igrave.sc
EndChar

StartChar: iacute
Encoding: 237 237 171
Width: 318
GlyphClass: 2
Flags: MW
HStem: -7 66<97.5 231.5> 420 36<29 29> 473 20G<200 244 244 244>
VStem: 48 127<45.5 119>
LayerCount: 2
Fore
SplineSet
200 493 m 1
 244 493 l 1
 180 155 l 2
 177 138 175 124 175 114 c 0
 175 78 192 59 224 59 c 0
 239 59 263 64 293 73 c 1
 293 32 l 1
 230 7 175 -7 122 -7 c 0
 73 -7 48 20 48 71 c 0
 48 88 52 111 57 138 c 2
 111 407 l 1
 29 420 l 1
 29 456 l 1
 200 493 l 1
273 742 m 1
 396 742 l 1
 206 552 l 1
 139 552 l 1
 273 742 l 1
EndSplineSet
Substitution2: "'smcp' Lowercase to Small Capitals in Latin lookup 2 subtable" iacute.sc
EndChar

StartChar: icircumflex
Encoding: 238 238 172
Width: 318
GlyphClass: 2
Flags: MW
HStem: -7 66<97.5 231.5> 420 36<29 29> 473 20G<200 244 244 244>
VStem: 29 78<552 552> 48 127<45.5 119>
LayerCount: 2
Fore
SplineSet
200 493 m 1xf0
 244 493 l 1
 180 155 l 2
 177 138 175 124 175 114 c 0
 175 78 192 59 224 59 c 0
 239 59 263 64 293 73 c 1
 293 32 l 1
 230 7 175 -7 122 -7 c 0
 73 -7 48 20 48 71 c 0xe8
 48 88 52 111 57 138 c 2
 111 407 l 1
 29 420 l 1
 29 456 l 1
 200 493 l 1xf0
176 742 m 1
 263 742 l 1
 337 552 l 1
 260 552 l 1
 207 677 l 1
 107 552 l 1
 29 552 l 1xf0
 176 742 l 1
EndSplineSet
Substitution2: "'smcp' Lowercase to Small Capitals in Latin lookup 2 subtable" icircumflex.sc
EndChar

StartChar: idieresis
Encoding: 239 239 173
Width: 318
GlyphClass: 2
Flags: MW
HStem: -7 66<97.5 231.5> 420 36<29 29> 473 20G<200 244 244 244> 579 131<75 109.5 281.5 316>
VStem: 29 127<626.5 662 626.5 662.5> 48 127<45.5 119> 235 128<626 662.5>
AnchorPoint: "Anchor-1" 224 690 basechar 0
LayerCount: 2
Fore
SplineSet
200 493 m 1xfa
 244 493 l 1
 180 155 l 2
 177 138 175 124 175 114 c 0
 175 78 192 59 224 59 c 0
 239 59 263 64 293 73 c 1
 293 32 l 1
 230 7 175 -7 122 -7 c 0
 73 -7 48 20 48 71 c 0xf6
 48 88 52 111 57 138 c 2
 111 407 l 1
 29 420 l 1
 29 456 l 1
 200 493 l 1xfa
92 710 m 0
 127 710 156 680 156 644 c 0
 156 609 127 579 92 579 c 0
 58 579 29 608 29 644 c 0xfa
 29 681 57 710 92 710 c 0
299 710 m 0
 333 710 363 681 363 644 c 0
 363 608 334 579 299 579 c 0
 264 579 235 608 235 644 c 0
 235 681 264 710 299 710 c 0
EndSplineSet
Substitution2: "'smcp' Lowercase to Small Capitals in Latin lookup 2 subtable" idieresis.sc
EndChar

StartChar: eth
Encoding: 240 240 174
Width: 561
GlyphClass: 2
Flags: MW
HStem: -11 53<212.5 283 212.5 302> 435 47<269 308.5 265.5 325> 675 34<176 179>
VStem: 26 129<133.5 234.5> 382 124<225.5 332>
LayerCount: 2
Fore
SplineSet
355 478 m 1
 342 511 328 543 312 574 c 1
 180 523 l 1
 164 565 l 1
 287 612 l 1
 257 659 l 1
 176 675 l 1
 179 709 l 1
 336 740 l 1
 390 654 l 1
 507 699 l 1
 523 657 l 1
 415 614 l 1
 475 508 506 411 506 314 c 0
 506 118 386 -11 218 -11 c 0
 104 -11 26 71 26 194 c 0
 26 275 58 352 116 409 c 0
 165 457 229 482 302 482 c 0
 315 482 333 480 355 478 c 1
366 428 m 1
 347 433 331 435 319 435 c 0
 219 435 155 337 155 179 c 0
 155 88 184 42 241 42 c 0
 325 42 382 137 382 314 c 0
 382 350 376 389 366 428 c 1
EndSplineSet
Substitution2: "'smcp' Lowercase to Small Capitals in Latin lookup 2 subtable" eth.sc
EndChar

StartChar: ntilde
Encoding: 241 241 175
Width: 600
GlyphClass: 2
Flags: MW
HStem: -6 61<390.5 512> 408 85<202 355> 417 33<26 26> 587 72<414 445.5 414 451.5> 633 73<273 301>
VStem: 29 127<0 0> 182 55<570 570> 336 124<42 113> 389 123<342.5 425> 482 53<722 722>
LayerCount: 2
Fore
SplineSet
202 493 m 1xc680
 241 493 l 1
 221 394 l 1
 301 459 364 493 421 493 c 0
 473 493 512 455 512 395 c 0xc680
 512 376 508 349 501 316 c 2
 471 179 l 2
 464 145 460 121 460 105 c 0
 460 75 479 55 502 55 c 0
 522 55 544 59 568 66 c 1
 568 28 l 1
 506 5 455 -6 417 -6 c 0
 364 -6 336 19 336 65 c 0xc7
 336 80 340 97 344 118 c 2
 380 284 l 2
 386 313 389 335 389 350 c 0
 389 387 370 408 340 408 c 0xc680
 311 408 268 387 215 342 c 1
 156 0 l 1
 29 0 l 1
 109 406 l 1
 26 417 l 1
 26 450 l 1xa680
 202 493 l 1xc680
482 722 m 1x9640
 535 722 l 1
 522 634 480 587 423 587 c 0x9640
 361 587 316 633 286 633 c 0
 260 633 242 611 237 570 c 1
 182 570 l 1
 194 658 237 706 295 706 c 0x8e40
 353 706 397 659 431 659 c 0
 460 659 476 680 482 722 c 1x9640
EndSplineSet
Substitution2: "'smcp' Lowercase to Small Capitals in Latin lookup 2 subtable" ntilde.sc
EndChar

StartChar: ograve
Encoding: 242 242 176
Width: 550
GlyphClass: 2
Flags: MW
HStem: -11 52<205.5 259> 441 52<261.5 314>
VStem: 19 129<135 236> 372 129<246.5 346>
LayerCount: 2
Fore
SplineSet
298 493 m 0
 423 493 501 413 501 287 c 0
 501 206 470 127 414 69 c 0
 364 17 296 -11 222 -11 c 0
 97 -11 19 70 19 197 c 0
 19 275 51 355 106 412 c 0
 156 464 225 493 298 493 c 0
285 441 m 0
 213 441 148 338 148 181 c 0
 148 89 178 41 233 41 c 0
 307 41 372 145 372 298 c 0
 372 394 343 441 285 441 c 0
189 742 m 1
 313 742 l 1
 373 552 l 1
 306 552 l 1
 189 742 l 1
EndSplineSet
Substitution2: "'smcp' Lowercase to Small Capitals in Latin lookup 2 subtable" ograve.sc
EndChar

StartChar: oacute
Encoding: 243 243 177
Width: 550
GlyphClass: 2
Flags: MW
HStem: -11 52<205.5 259> 441 52<261.5 314>
VStem: 19 129<135 236> 372 129<246.5 346>
LayerCount: 2
Fore
SplineSet
298 493 m 0
 423 493 501 413 501 287 c 0
 501 206 470 127 414 69 c 0
 364 17 296 -11 222 -11 c 0
 97 -11 19 70 19 197 c 0
 19 275 51 355 106 412 c 0
 156 464 225 493 298 493 c 0
285 441 m 0
 213 441 148 338 148 181 c 0
 148 89 178 41 233 41 c 0
 307 41 372 145 372 298 c 0
 372 394 343 441 285 441 c 0
407 742 m 1
 530 742 l 1
 340 552 l 1
 273 552 l 1
 407 742 l 1
EndSplineSet
Substitution2: "'smcp' Lowercase to Small Capitals in Latin lookup 2 subtable" oacute.sc
EndChar

StartChar: ocircumflex
Encoding: 244 244 178
Width: 550
GlyphClass: 2
Flags: MW
HStem: -11 52<205.5 259> 441 52<261.5 314>
VStem: 19 129<135 236> 163 78<552 552> 372 129<246.5 346>
LayerCount: 2
Fore
SplineSet
298 493 m 0
 423 493 501 413 501 287 c 0
 501 206 470 127 414 69 c 0
 364 17 296 -11 222 -11 c 0
 97 -11 19 70 19 197 c 0
 19 275 51 355 106 412 c 0
 156 464 225 493 298 493 c 0
285 441 m 0
 213 441 148 338 148 181 c 0
 148 89 178 41 233 41 c 0
 307 41 372 145 372 298 c 0
 372 394 343 441 285 441 c 0
310 742 m 1
 397 742 l 1
 471 552 l 1
 394 552 l 1
 341 677 l 1
 241 552 l 1
 163 552 l 1
 310 742 l 1
EndSplineSet
EndChar

StartChar: otilde
Encoding: 245 245 179
Width: 550
GlyphClass: 2
Flags: MW
HStem: -11 52<205.5 259> 441 52<261.5 314> 587 72<389 420.5 389 426.5> 633 73<248 276>
VStem: 19 129<135 236> 157 55<570 570> 372 129<246.5 346> 457 53<722 722>
LayerCount: 2
Fore
SplineSet
298 493 m 0xce
 423 493 501 413 501 287 c 0
 501 206 470 127 414 69 c 0
 364 17 296 -11 222 -11 c 0
 97 -11 19 70 19 197 c 0
 19 275 51 355 106 412 c 0
 156 464 225 493 298 493 c 0xce
285 441 m 0
 213 441 148 338 148 181 c 0
 148 89 178 41 233 41 c 0
 307 41 372 145 372 298 c 0
 372 394 343 441 285 441 c 0
457 722 m 1xed
 510 722 l 1
 497 634 455 587 398 587 c 0xed
 336 587 291 633 261 633 c 0
 235 633 217 611 212 570 c 1
 157 570 l 1
 169 658 212 706 270 706 c 0xdd
 328 706 372 659 406 659 c 0
 435 659 451 680 457 722 c 1xed
EndSplineSet
Substitution2: "'smcp' Lowercase to Small Capitals in Latin lookup 2 subtable" otilde.sc
EndChar

StartChar: odieresis
Encoding: 246 246 180
Width: 550
GlyphClass: 2
Flags: MW
HStem: -11 52<205.5 259> 441 52<261.5 314> 579 131<209 243.5 415.5 450>
VStem: 19 129<135 236> 163 127<626.5 662 626.5 662.5> 372 129<246.5 346>
LayerCount: 2
Fore
SplineSet
298 493 m 0
 423 493 501 413 501 287 c 0
 501 206 470 127 414 69 c 0
 364 17 296 -11 222 -11 c 0
 97 -11 19 70 19 197 c 0
 19 275 51 355 106 412 c 0
 156 464 225 493 298 493 c 0
285 441 m 0
 213 441 148 338 148 181 c 0
 148 89 178 41 233 41 c 0
 307 41 372 145 372 298 c 0
 372 394 343 441 285 441 c 0
226 710 m 0
 261 710 290 680 290 644 c 0
 290 609 261 579 226 579 c 0
 192 579 163 608 163 644 c 0
 163 681 191 710 226 710 c 0
433 710 m 0
 467 710 497 681 497 644 c 0
 497 608 468 579 433 579 c 0
 398 579 369 608 369 644 c 0
 369 681 398 710 433 710 c 0
EndSplineSet
Substitution2: "'smcp' Lowercase to Small Capitals in Latin lookup 2 subtable" odieresis.sc
EndChar

StartChar: divide
Encoding: 247 247 181
Width: 833
GlyphClass: 2
Flags: MW
HStem: 46 133<399 435.5 399 436> 258 81<124 709 124 709> 417 134<399 435.5 399 436>
VStem: 350 134<94 130.5 94 130.5 465 501.5>
LayerCount: 2
Fore
SplineSet
417 551 m 0
 454 551 484 520 484 483 c 0
 484 447 455 417 417 417 c 0
 379 417 350 446 350 483 c 0
 350 520 381 551 417 551 c 0
709 339 m 1
 709 258 l 1
 124 258 l 1
 124 339 l 1
 709 339 l 1
417 179 m 0
 454 179 484 149 484 112 c 0
 484 76 455 46 417 46 c 0
 379 46 350 75 350 112 c 0
 350 149 381 179 417 179 c 0
EndSplineSet
EndChar

StartChar: oslash
Encoding: 248 248 182
Width: 550
GlyphClass: 2
Flags: MW
HStem: -11 50<221 259> 443 50<264 300>
VStem: 19 122<176.5 236.5> 379 122<245.5 310.5>
LayerCount: 2
Fore
SplineSet
435 567 m 1
 472 542 l 1
 421 459 l 1
 473 424 501 364 501 287 c 0
 501 204 469 126 412 68 c 0
 362 17 295 -11 223 -11 c 0
 193 -11 166 -7 142 2 c 1
 87 -86 l 1
 51 -62 l 1
 101 21 l 1
 47 61 19 120 19 196 c 0
 19 277 51 356 108 414 c 0
 159 466 225 493 303 493 c 0
 333 493 358 489 381 479 c 1
 435 567 l 1
347 418 m 1
 331 435 312 443 288 443 c 0
 208 443 141 341 141 193 c 0
 141 160 145 129 153 103 c 1
 347 418 l 1
368 374 m 1
 176 63 l 1
 189 47 208 39 234 39 c 0
 314 39 379 140 379 294 c 0
 379 327 376 354 368 374 c 1
EndSplineSet
Substitution2: "'smcp' Lowercase to Small Capitals in Latin lookup 2 subtable" oslash.sc
EndChar

StartChar: ugrave
Encoding: 249 249 183
Width: 599
GlyphClass: 2
Flags: MW
HStem: -10 85<123.5 240.5> -9 64<390.5 515> 419 31<28 28> 469 20G<533 533>
VStem: 53 120<60.5 135>
LayerCount: 2
Fore
SplineSet
201 487 m 1xb8
 239 487 l 1
 181 188 l 2
 176 161 173 141 173 129 c 0
 173 93 192 75 226 75 c 0xb8
 255 75 296 90 346 123 c 1
 414 475 l 1
 533 489 l 1
 474 179 l 2
 468 150 463 126 463 106 c 0
 463 75 482 55 505 55 c 0
 525 55 548 59 572 66 c 1
 572 29 l 1
 502 5 450 -9 415 -9 c 0x78
 366 -9 340 18 340 68 c 2
 340 77 l 1
 262 18 199 -10 156 -10 c 0
 91 -10 53 28 53 93 c 0
 53 108 55 126 59 147 c 2
 108 407 l 1
 28 419 l 1
 28 450 l 1
 201 487 l 1xb8
214 742 m 1
 338 742 l 1
 398 552 l 1
 331 552 l 1
 214 742 l 1
EndSplineSet
Substitution2: "'smcp' Lowercase to Small Capitals in Latin lookup 2 subtable" ugrave.sc
EndChar

StartChar: uacute
Encoding: 250 250 184
Width: 599
GlyphClass: 2
Flags: MW
HStem: -10 85<123.5 240.5> -9 64<390.5 515> 419 31<28 28> 469 20G<533 533>
VStem: 53 120<60.5 135>
LayerCount: 2
Fore
SplineSet
201 487 m 1xb8
 239 487 l 1
 181 188 l 2
 176 161 173 141 173 129 c 0
 173 93 192 75 226 75 c 0xb8
 255 75 296 90 346 123 c 1
 414 475 l 1
 533 489 l 1
 474 179 l 2
 468 150 463 126 463 106 c 0
 463 75 482 55 505 55 c 0
 525 55 548 59 572 66 c 1
 572 29 l 1
 502 5 450 -9 415 -9 c 0x78
 366 -9 340 18 340 68 c 2
 340 77 l 1
 262 18 199 -10 156 -10 c 0
 91 -10 53 28 53 93 c 0
 53 108 55 126 59 147 c 2
 108 407 l 1
 28 419 l 1
 28 450 l 1
 201 487 l 1xb8
432 742 m 1
 555 742 l 1
 365 552 l 1
 298 552 l 1
 432 742 l 1
EndSplineSet
Substitution2: "'smcp' Lowercase to Small Capitals in Latin lookup 2 subtable" uacute.sc
EndChar

StartChar: ucircumflex
Encoding: 251 251 185
Width: 599
GlyphClass: 2
Flags: MW
HStem: -10 85<123.5 240.5> -9 64<390.5 515> 419 31<28 28> 469 20G<533 533>
VStem: 53 120<60.5 135> 188 78<552 552>
LayerCount: 2
Fore
SplineSet
201 487 m 1xbc
 239 487 l 1
 181 188 l 2
 176 161 173 141 173 129 c 0
 173 93 192 75 226 75 c 0xbc
 255 75 296 90 346 123 c 1
 414 475 l 1
 533 489 l 1
 474 179 l 2
 468 150 463 126 463 106 c 0
 463 75 482 55 505 55 c 0
 525 55 548 59 572 66 c 1
 572 29 l 1
 502 5 450 -9 415 -9 c 0x7c
 366 -9 340 18 340 68 c 2
 340 77 l 1
 262 18 199 -10 156 -10 c 0
 91 -10 53 28 53 93 c 0
 53 108 55 126 59 147 c 2
 108 407 l 1
 28 419 l 1
 28 450 l 1
 201 487 l 1xbc
335 742 m 1
 422 742 l 1
 496 552 l 1
 419 552 l 1
 366 677 l 1
 266 552 l 1
 188 552 l 1
 335 742 l 1
EndSplineSet
Substitution2: "'smcp' Lowercase to Small Capitals in Latin lookup 2 subtable" ucircumflex.sc
EndChar

StartChar: udieresis
Encoding: 252 252 186
Width: 599
GlyphClass: 2
Flags: MW
HStem: -10 85<123.5 240.5> -9 64<390.5 515> 419 31<28 28> 469 20G<533 533> 579 131<234 268.5 440.5 475>
VStem: 53 120<60.5 135> 188 127<626.5 662 626.5 662.5> 394 128<626 662.5>
LayerCount: 2
Fore
SplineSet
201 487 m 1xbf
 239 487 l 1
 181 188 l 2
 176 161 173 141 173 129 c 0
 173 93 192 75 226 75 c 0xbf
 255 75 296 90 346 123 c 1
 414 475 l 1
 533 489 l 1
 474 179 l 2
 468 150 463 126 463 106 c 0
 463 75 482 55 505 55 c 0
 525 55 548 59 572 66 c 1
 572 29 l 1
 502 5 450 -9 415 -9 c 0x7f
 366 -9 340 18 340 68 c 2
 340 77 l 1
 262 18 199 -10 156 -10 c 0
 91 -10 53 28 53 93 c 0
 53 108 55 126 59 147 c 2
 108 407 l 1
 28 419 l 1
 28 450 l 1
 201 487 l 1xbf
251 710 m 0
 286 710 315 680 315 644 c 0
 315 609 286 579 251 579 c 0
 217 579 188 608 188 644 c 0
 188 681 216 710 251 710 c 0
458 710 m 0
 492 710 522 681 522 644 c 0
 522 608 493 579 458 579 c 0
 423 579 394 608 394 644 c 0
 394 681 423 710 458 710 c 0
EndSplineSet
Substitution2: "'smcp' Lowercase to Small Capitals in Latin lookup 2 subtable" udieresis.sc
EndChar

StartChar: yacute
Encoding: 253 253 187
Width: 494
GlyphClass: 2
Flags: MW
HStem: 426 33<-14 -14> 474 21G
LayerCount: 2
Fore
SplineSet
140 494 m 1
 183 486 201 436 216 340 c 2
 250 122 l 1
 291 225 341 349 403 493 c 1
 434 493 l 1
 513 467 l 1
 513 440 l 1
 454 407 l 1
 376 303 336 159 259 21 c 0
 171 -137 88 -216 6 -216 c 0
 -42 -216 -78 -179 -78 -139 c 0
 -78 -105 -56 -79 -20 -72 c 1
 47 -135 l 1
 92 -131 142 -77 196 26 c 1
 158 26 l 1
 98 343 l 2
 93 371 84 397 73 418 c 1
 -14 426 l 1
 -14 459 l 1
 140 494 l 1
379 742 m 1
 502 742 l 1
 312 552 l 1
 245 552 l 1
 379 742 l 1
EndSplineSet
Substitution2: "'smcp' Lowercase to Small Capitals in Latin lookup 2 subtable" yacute.sc
EndChar

StartChar: thorn
Encoding: 254 254 188
Width: 565
GlyphClass: 2
Flags: MW
HStem: -218 40<-63 216 -63 -63> -3 56<220 267.5> 419 75<301.5 424.5> 664 33<61 61> 716 20G<237 280 280 280>
VStem: 394 125<271.5 342.5>
LayerCount: 2
Fore
SplineSet
237 736 m 1
 280 736 l 1
 272 692 265 655 260 626 c 2
 224 425 l 1
 280 471 334 494 385 494 c 0
 464 494 519 428 519 319 c 0
 519 224 490 148 428 83 c 0
 377 29 304 -3 231 -3 c 0
 205 -3 179 3 153 13 c 1
 123 -161 l 1
 216 -179 l 1
 216 -218 l 1
 -63 -218 l 1
 -63 -178 l 1
 -2 -162 l 1
 7 -149 l 1
 148 653 l 1
 61 664 l 1
 61 697 l 1
 237 736 l 1
162 70 m 1
 187 58 209 53 231 53 c 0
 318 53 394 158 394 306 c 0
 394 379 363 419 315 419 c 0
 288 419 256 405 217 376 c 1
 162 70 l 1
EndSplineSet
Substitution2: "'smcp' Lowercase to Small Capitals in Latin lookup 2 subtable" thorn.sc
EndChar

StartChar: ydieresis
Encoding: 255 255 189
Width: 494
GlyphClass: 2
Flags: MW
HStem: 426 33<-14 -14> 474 21G 579 131<181 215.5 387.5 422>
VStem: 135 127<626.5 662 626.5 662.5> 341 128<626 662.5>
LayerCount: 2
Fore
SplineSet
140 494 m 1
 183 486 201 436 216 340 c 2
 250 122 l 1
 291 225 341 349 403 493 c 1
 434 493 l 1
 513 467 l 1
 513 440 l 1
 454 407 l 1
 376 303 336 159 259 21 c 0
 171 -137 88 -216 6 -216 c 0
 -42 -216 -78 -179 -78 -139 c 0
 -78 -105 -56 -79 -20 -72 c 1
 47 -135 l 1
 92 -131 142 -77 196 26 c 1
 158 26 l 1
 98 343 l 2
 93 371 84 397 73 418 c 1
 -14 426 l 1
 -14 459 l 1
 140 494 l 1
198 710 m 0
 233 710 262 680 262 644 c 0
 262 609 233 579 198 579 c 0
 164 579 135 608 135 644 c 0
 135 681 163 710 198 710 c 0
405 710 m 0
 439 710 469 681 469 644 c 0
 469 608 440 579 405 579 c 0
 370 579 341 608 341 644 c 0
 341 681 370 710 405 710 c 0
EndSplineSet
Substitution2: "'smcp' Lowercase to Small Capitals in Latin lookup 2 subtable" ydieresis.sc
EndChar

StartChar: Amacron
Encoding: 256 256 190
Width: 634
GlyphClass: 2
Flags: MW
HStem: 0 49<-68 147> 236 55<200 383 200 393 170 383> 657 20G<339 442 442 442> 798 68<249 592 261 580>
LayerCount: 2
Fore
SplineSet
249 798 m 1
 261 866 l 1
 592 866 l 1
 580 798 l 1
 249 798 l 1
339 677 m 1
 442 677 l 1
 544 69 l 1
 554 56 l 1
 612 49 l 1
 612 0 l 1
 349 0 l 1
 349 49 l 1
 410 55 l 1
 421 70 l 1
 393 236 l 1
 170 236 l 1
 78 68 l 1
 88 53 l 1
 147 49 l 1
 147 0 l 1
 -68 0 l 1
 -68 48 l 1
 -12 56 l 1
 339 677 l 1
342 551 m 1
 200 291 l 1
 383 291 l 1
 342 551 l 1
EndSplineSet
EndChar

StartChar: amacron
Encoding: 257 257 191
Width: 572
GlyphClass: 2
Flags: MW
HStem: -8 81<117 237.5> -6 61<371.5 491> 446 48<270.5 318.5 255.5 319.5> 607 68<156 499 168 487>
VStem: 18 128<150 210>
LayerCount: 2
Fore
SplineSet
156 607 m 1x10
 168 675 l 1
 499 675 l 1
 487 607 l 1
 156 607 l 1x10
453 493 m 1xa8
 512 493 l 1
 506 475 493 424 478 341 c 2
 448 179 l 2
 442 146 439 122 439 109 c 0
 439 75 458 55 481 55 c 0
 501 55 523 59 547 66 c 1
 547 29 l 1
 484 6 434 -6 396 -6 c 0x68
 347 -6 321 19 321 67 c 2
 321 72 l 1
 265 19 211 -8 162 -8 c 0
 72 -8 18 59 18 174 c 0
 18 246 38 312 78 373 c 0
 128 449 211 494 300 494 c 0
 337 494 375 485 416 469 c 1
 453 493 l 1xa8
330 445 m 2
 326 445 322 446 317 446 c 0
 224 446 146 340 146 188 c 0
 146 112 173 73 222 73 c 0xa8
 253 73 285 89 323 120 c 1
 370 385 l 1
 330 445 l 2
EndSplineSet
EndChar

StartChar: Abreve
Encoding: 258 258 192
Width: 634
GlyphClass: 2
Flags: MW
HStem: 0 49<-68 147> 236 55<200 383 200 393 170 383> 657 20G<339 442 442 442> 737 71<388 455 388 460.5>
VStem: 277 55<842 843.5> 536 51<888 889>
LayerCount: 2
Fore
SplineSet
282 889 m 1
 333 888 l 1
 332 874 332 866 332 862 c 0
 332 822 357 808 419 808 c 0
 491 808 523 826 536 888 c 1
 587 889 l 1
 568 781 515 737 406 737 c 0
 317 737 277 766 277 837 c 0
 277 850 279 868 282 889 c 1
339 677 m 1
 442 677 l 1
 544 69 l 1
 554 56 l 1
 612 49 l 1
 612 0 l 1
 349 0 l 1
 349 49 l 1
 410 55 l 1
 421 70 l 1
 393 236 l 1
 170 236 l 1
 78 68 l 1
 88 53 l 1
 147 49 l 1
 147 0 l 1
 -68 0 l 1
 -68 48 l 1
 -12 56 l 1
 339 677 l 1
342 551 m 1
 200 291 l 1
 383 291 l 1
 342 551 l 1
EndSplineSet
Substitution2: "'c2sc' Capitals to Small Capitals in Latin lookup 5 subtable" abreve.sc
EndChar

StartChar: abreve
Encoding: 259 259 193
Width: 572
GlyphClass: 2
Flags: MW
HStem: -8 81<117 237.5> -6 61<371.5 491> 446 48<270.5 318.5 255.5 319.5> 567 71<308 375 308 380.5>
VStem: 18 128<150 210> 197 55<672 673.5> 456 51<718 719>
LayerCount: 2
Fore
SplineSet
202 719 m 1x3e
 253 718 l 1
 252 704 252 696 252 692 c 0
 252 652 277 638 339 638 c 0
 411 638 443 656 456 718 c 1
 507 719 l 1
 488 611 435 567 326 567 c 0
 237 567 197 596 197 667 c 0
 197 680 199 698 202 719 c 1x3e
453 493 m 1
 512 493 l 1
 506 475 493 424 478 341 c 2
 448 179 l 2
 442 146 439 122 439 109 c 0
 439 75 458 55 481 55 c 0
 501 55 523 59 547 66 c 1
 547 29 l 1
 484 6 434 -6 396 -6 c 0x7e
 347 -6 321 19 321 67 c 2
 321 72 l 1
 265 19 211 -8 162 -8 c 0xbe
 72 -8 18 59 18 174 c 0
 18 246 38 312 78 373 c 0
 128 449 211 494 300 494 c 0
 337 494 375 485 416 469 c 1
 453 493 l 1
330 445 m 2
 326 445 322 446 317 446 c 0
 224 446 146 340 146 188 c 0
 146 112 173 73 222 73 c 0xbe
 253 73 285 89 323 120 c 1
 370 385 l 1
 330 445 l 2
EndSplineSet
Substitution2: "'smcp' Lowercase to Small Capitals in Latin lookup 3 subtable" abreve.sc
EndChar

StartChar: Aogonek
Encoding: 260 260 194
Width: 634
GlyphClass: 2
Flags: MW
HStem: -224 72<488.5 558.5> 0 49<-68 147> 236 55<200 383 200 393 170 383> 657 20G<339 442 442 442>
VStem: 428 81<-179 -98>
LayerCount: 2
Fore
SplineSet
342 551 m 1
 200 291 l 1
 383 291 l 1
 342 551 l 1
339 677 m 1
 442 677 l 1
 544 69 l 1
 554 56 l 1
 612 49 l 1
 612 0 l 1
 579 0 l 1
 532 -37 509 -78 509 -118 c 0
 509 -137 526 -152 555 -152 c 0
 562 -152 573 -151 587 -149 c 1
 574 -217 l 1
 554 -222 536 -224 518 -224 c 0
 459 -224 428 -199 428 -159 c 0
 428 -107 461 -49 525 0 c 1
 349 0 l 1
 349 49 l 1
 410 55 l 1
 421 70 l 1
 393 236 l 1
 170 236 l 1
 78 68 l 1
 88 53 l 1
 147 49 l 1
 147 0 l 1
 -68 0 l 1
 -68 48 l 1
 -12 56 l 1
 339 677 l 1
EndSplineSet
Substitution2: "'c2sc' Capitals to Small Capitals in Latin lookup 5 subtable" aogonek.sc
EndChar

StartChar: aogonek
Encoding: 261 261 195
Width: 572
GlyphClass: 2
Flags: MW
HStem: -224 72<353.5 423.5> -8 81<117 237.5> 446 48<270.5 318.5 255.5 319.5>
VStem: 18 128<150 210> 293 81<-179 -98>
LayerCount: 2
Fore
SplineSet
330 445 m 2
 326 445 322 446 317 446 c 0
 224 446 146 340 146 188 c 0
 146 112 173 73 222 73 c 0
 253 73 285 89 323 120 c 1
 370 385 l 1
 330 445 l 2
453 493 m 1
 512 493 l 1
 506 475 493 424 478 341 c 2
 448 179 l 2
 442 146 439 122 439 109 c 0
 439 75 458 55 481 55 c 0
 501 55 523 59 547 66 c 1
 547 29 l 1
 507 14 472 4 442 -1 c 1
 396 -38 374 -78 374 -118 c 0
 374 -137 391 -152 420 -152 c 0
 427 -152 438 -151 452 -149 c 1
 439 -217 l 1
 419 -222 401 -224 383 -224 c 0
 324 -224 293 -199 293 -159 c 0
 293 -109 324 -53 383 -5 c 1
 342 -1 321 23 321 67 c 2
 321 72 l 1
 265 19 211 -8 162 -8 c 0
 72 -8 18 59 18 174 c 0
 18 246 38 312 78 373 c 0
 128 449 211 494 300 494 c 0
 337 494 375 485 416 469 c 1
 453 493 l 1
EndSplineSet
Substitution2: "'smcp' Lowercase to Small Capitals in Latin lookup 3 subtable" aogonek.sc
EndChar

StartChar: Cacute
Encoding: 262 262 196
Width: 625
GlyphClass: 2
Flags: MW
HStem: -13 60<310 354> 622 62<425.5 471.5> 737 21G<358 425 358 358>
VStem: 37 139<195 320> 539 66<481 481>
LayerCount: 2
Fore
SplineSet
492 927 m 1
 615 927 l 1
 425 737 l 1
 358 737 l 1
 492 927 l 1
636 650 m 1
 605 481 l 1
 539 481 l 1
 538 590 l 1
 528 608 l 1
 503 617 481 622 462 622 c 0
 389 622 328 597 281 549 c 0
 216 483 176 381 176 263 c 0
 176 127 250 47 370 47 c 0
 387 47 406 49 427 54 c 1
 446 72 l 1
 492 196 l 1
 559 196 l 1
 527 23 l 1
 456 -1 386 -13 322 -13 c 0
 150 -13 37 100 37 272 c 0
 37 368 68 457 131 537 c 0
 203 628 319 684 440 684 c 0
 505 684 569 672 636 650 c 1
EndSplineSet
Substitution2: "'c2sc' Capitals to Small Capitals in Latin lookup 5 subtable" cacute.sc
EndChar

StartChar: cacute
Encoding: 263 263 197
Width: 437
GlyphClass: 2
Flags: MW
HStem: -10 80<209 216> 85 59<394 394> 473 20G<259 334.5>
VStem: 16 125<161.5 218.5>
LayerCount: 2
Fore
SplineSet
322 742 m 1
 445 742 l 1
 255 552 l 1
 188 552 l 1
 322 742 l 1
326 339 m 1
 262 441 l 1
 195 422 141 329 141 205 c 0
 141 118 178 70 240 70 c 0
 283 70 337 94 394 144 c 1
 394 85 l 1
 322 21 247 -10 185 -10 c 0
 84 -10 16 65 16 182 c 0
 16 255 38 321 82 381 c 0
 132 449 219 493 299 493 c 0
 370 493 409 461 409 412 c 0
 409 372 377 341 326 339 c 1
EndSplineSet
Substitution2: "'smcp' Lowercase to Small Capitals in Latin lookup 3 subtable" cacute.sc
EndChar

StartChar: Ccircumflex
Encoding: 264 264 198
Width: 625
GlyphClass: 2
Flags: MW
HStem: -13 60<310 354> 622 62<425.5 471.5> 738 190<295 529 295 529 526 526 526 529 442 603>
VStem: 37 139<195 320> 295 78<738 738> 539 66<481 481>
LayerCount: 2
Fore
SplineSet
295 738 m 1
 442 928 l 1
 529 928 l 1
 603 738 l 1
 526 738 l 1
 473 863 l 1
 373 738 l 1
 295 738 l 1
636 650 m 1
 605 481 l 1
 539 481 l 1
 538 590 l 1
 528 608 l 1
 503 617 481 622 462 622 c 0
 389 622 328 597 281 549 c 0
 216 483 176 381 176 263 c 0
 176 127 250 47 370 47 c 0
 387 47 406 49 427 54 c 1
 446 72 l 1
 492 196 l 1
 559 196 l 1
 527 23 l 1
 456 -1 386 -13 322 -13 c 0
 150 -13 37 100 37 272 c 0
 37 368 68 457 131 537 c 0
 203 628 319 684 440 684 c 0
 505 684 569 672 636 650 c 1
EndSplineSet
EndChar

StartChar: ccircumflex
Encoding: 265 265 199
Width: 437
GlyphClass: 2
Flags: MW
HStem: -10 80<209 216> 85 59<394 394> 473 20G<259 334.5> 553 190<157 391 157 391 388 391 304 465 388 388>
VStem: 16 125<161.5 218.5> 157 78<553 553>
LayerCount: 2
Fore
SplineSet
304 743 m 1
 391 743 l 1
 465 553 l 1
 388 553 l 1
 335 678 l 1
 235 553 l 1
 157 553 l 1
 304 743 l 1
326 339 m 1
 262 441 l 1
 195 422 141 329 141 205 c 0
 141 118 178 70 240 70 c 0
 283 70 337 94 394 144 c 1
 394 85 l 1
 322 21 247 -10 185 -10 c 0
 84 -10 16 65 16 182 c 0
 16 255 38 321 82 381 c 0
 132 449 219 493 299 493 c 0
 370 493 409 461 409 412 c 0
 409 372 377 341 326 339 c 1
EndSplineSet
EndChar

StartChar: Cdotaccent
Encoding: 266 266 200
Width: 625
GlyphClass: 2
Flags: MW
HStem: -13 60<310 354> 622 62<425.5 471.5> 762 137<449.5 485>
VStem: 37 139<195 320> 401 132<811.5 849 811.5 849> 539 66<481 481>
LayerCount: 2
Fore
SplineSet
401 830 m 0
 401 868 431 899 467 899 c 0
 503 899 533 868 533 830 c 0
 533 793 503 762 467 762 c 0
 432 762 401 792 401 830 c 0
636 650 m 1
 605 481 l 1
 539 481 l 1
 538 590 l 1
 528 608 l 1
 503 617 481 622 462 622 c 0
 389 622 328 597 281 549 c 0
 216 483 176 381 176 263 c 0
 176 127 250 47 370 47 c 0
 387 47 406 49 427 54 c 1
 446 72 l 1
 492 196 l 1
 559 196 l 1
 527 23 l 1
 456 -1 386 -13 322 -13 c 0
 150 -13 37 100 37 272 c 0
 37 368 68 457 131 537 c 0
 203 628 319 684 440 684 c 0
 505 684 569 672 636 650 c 1
EndSplineSet
EndChar

StartChar: cdotaccent
Encoding: 267 267 201
Width: 437
GlyphClass: 2
Flags: MW
HStem: -10 80<209 216> 85 59<394 394> 473 20G<259 334.5> 553 137<306.5 342>
VStem: 16 125<161.5 218.5> 258 132<602.5 640 602.5 640>
LayerCount: 2
Fore
SplineSet
324 690 m 0
 360 690 390 659 390 621 c 0
 390 584 360 553 324 553 c 0
 289 553 258 583 258 621 c 0
 258 659 288 690 324 690 c 0
326 339 m 1
 262 441 l 1
 195 422 141 329 141 205 c 0
 141 118 178 70 240 70 c 0
 283 70 337 94 394 144 c 1
 394 85 l 1
 322 21 247 -10 185 -10 c 0
 84 -10 16 65 16 182 c 0
 16 255 38 321 82 381 c 0
 132 449 219 493 299 493 c 0
 370 493 409 461 409 412 c 0
 409 372 377 341 326 339 c 1
EndSplineSet
EndChar

StartChar: Ccaron
Encoding: 268 268 202
Width: 625
GlyphClass: 2
Flags: MW
HStem: -13 60<310 354> 622 62<425.5 471.5> 736 21G<398 486 398 398>
VStem: 37 139<195 320> 539 66<481 481> 555 77<926 926>
LayerCount: 2
Fore
SplineSet
325 926 m 1xf4
 402 926 l 1
 454 801 l 1
 555 926 l 1
 632 926 l 1
 486 736 l 1
 398 736 l 1
 325 926 l 1xf4
636 650 m 1
 605 481 l 1
 539 481 l 1xf8
 538 590 l 1
 528 608 l 1
 503 617 481 622 462 622 c 0
 389 622 328 597 281 549 c 0
 216 483 176 381 176 263 c 0
 176 127 250 47 370 47 c 0
 387 47 406 49 427 54 c 1
 446 72 l 1
 492 196 l 1
 559 196 l 1
 527 23 l 1
 456 -1 386 -13 322 -13 c 0
 150 -13 37 100 37 272 c 0
 37 368 68 457 131 537 c 0
 203 628 319 684 440 684 c 0
 505 684 569 672 636 650 c 1
EndSplineSet
Substitution2: "'c2sc' Capitals to Small Capitals in Latin lookup 5 subtable" ccaron.sc
EndChar

StartChar: ccaron
Encoding: 269 269 203
Width: 437
GlyphClass: 2
Flags: MW
HStem: -10 80<209 216> 85 59<394 394> 473 20G<259 334.5>
VStem: 16 125<161.5 218.5> 405 77<741 741>
LayerCount: 2
Fore
SplineSet
175 741 m 1
 252 741 l 1
 304 616 l 1
 405 741 l 1
 482 741 l 1
 336 551 l 1
 248 551 l 1
 175 741 l 1
326 339 m 1
 262 441 l 1
 195 422 141 329 141 205 c 0
 141 118 178 70 240 70 c 0
 283 70 337 94 394 144 c 1
 394 85 l 1
 322 21 247 -10 185 -10 c 0
 84 -10 16 65 16 182 c 0
 16 255 38 321 82 381 c 0
 132 449 219 493 299 493 c 0
 370 493 409 461 409 412 c 0
 409 372 377 341 326 339 c 1
EndSplineSet
Substitution2: "'smcp' Lowercase to Small Capitals in Latin lookup 3 subtable" ccaron.sc
EndChar

StartChar: Dcaron
Encoding: 270 270 204
Width: 702
GlyphClass: 2
Flags: MW
HStem: 0 49<-25 224 -25 -25> 0 57<181 222 222 224> 615 56<285 285 285 339> 623 48<82 352> 736 21G<358 446 358 358>
VStem: 515 77<926 926> 519 141<369 481>
LayerCount: 2
Fore
SplineSet
285 926 m 1x0c
 362 926 l 1
 414 801 l 1
 515 926 l 1
 592 926 l 1
 446 736 l 1
 358 736 l 1
 285 926 l 1x0c
82 671 m 1x9a
 352 671 l 2
 555 671 660 581 660 416 c 0
 660 299 615 188 536 108 c 0
 460 32 360 0 224 0 c 2x6a
 -25 0 l 1
 -25 49 l 1
 41 54 l 1
 55 69 l 1
 156 603 l 1
 146 618 l 1
 82 623 l 1
 82 671 l 1x9a
285 615 m 1
 181 57 l 1
 222 57 l 2
 321 57 391 88 440 155 c 0
 488 221 519 320 519 418 c 0
 519 544 453 615 339 615 c 2
 285 615 l 1
EndSplineSet
Substitution2: "'c2sc' Capitals to Small Capitals in Latin lookup 5 subtable" dcaron.sc
EndChar

StartChar: dcaron
Encoding: 271 271 205
Width: 579
GlyphClass: 2
Flags: MW
HStem: -8 80<122 238.5> -6 61<378 501> 451 45<273 316> 663 34<335 335> 716 20G<509 551 551 551>
VStem: 21 126<151.5 211.5> 563 155<607.5 637.5>
LayerCount: 2
Fore
SplineSet
530 395 m 1x3e
 514 425 l 1
 590 467 631 519 634 578 c 1
 574 578 l 1
 567 589 563 601 563 614 c 0
 563 661 598 698 645 698 c 0
 690 698 718 668 718 619 c 0
 718 537 652 444 530 395 c 1x3e
509 736 m 1
 551 736 l 1
 458 179 l 2
 452 142 449 118 449 106 c 0
 449 75 468 55 491 55 c 0
 511 55 534 59 558 66 c 1
 558 29 l 1
 495 6 444 -6 406 -6 c 0x7e
 350 -6 325 19 325 74 c 2
 325 77 l 1
 268 20 214 -8 163 -8 c 0xbe
 81 -8 21 62 21 177 c 0
 21 246 40 312 76 368 c 0
 129 450 213 496 309 496 c 0
 334 496 362 490 391 479 c 1
 419 650 l 1
 335 663 l 1
 335 697 l 1
 509 736 l 1
333 449 m 1
 326 450 319 451 313 451 c 0
 233 451 147 339 147 189 c 0
 147 114 177 72 223 72 c 0xbe
 254 72 292 91 332 128 c 1
 375 389 l 1
 333 449 l 1
EndSplineSet
Substitution2: "'smcp' Lowercase to Small Capitals in Latin lookup 3 subtable" dcaron.sc
EndChar

StartChar: Dcroat
Encoding: 272 272 206
Width: 702
GlyphClass: 2
Flags: MW
HStem: 0 49<-25 225 -25 -25> 0 57<181 222 222 225> 324 60<33 103 22 115 242 359> 615 56<285 285 285 339> 623 48<82 352>
VStem: 520 140<370 481.5>
LayerCount: 2
Fore
SplineSet
82 671 m 1xac
 352 671 l 2
 555 671 660 581 660 416 c 0
 660 299 615 188 536 108 c 0
 460 32 361 0 225 0 c 2x74
 -25 0 l 1
 -25 49 l 1
 41 54 l 1
 55 69 l 1
 103 324 l 1
 22 324 l 1
 33 384 l 1
 115 384 l 1
 156 603 l 1
 146 618 l 1
 82 623 l 1
 82 671 l 1xac
285 615 m 1
 242 384 l 1
 371 384 l 1
 359 324 l 1
 230 324 l 1
 181 57 l 1
 222 57 l 2
 321 57 391 88 440 155 c 0
 488 221 520 321 520 419 c 0
 520 544 453 615 339 615 c 2
 285 615 l 1
EndSplineSet
EndChar

StartChar: dcroat
Encoding: 273 273 207
Width: 579
GlyphClass: 2
Flags: MW
HStem: -8 80<122 238.5> -6 61<378 501> 451 45<273 316> 528 88<283 399 270 413 531 574> 663 34<335 335> 716 20G<509 551 551 551>
VStem: 21 126<151.5 211.5>
LayerCount: 2
Fore
SplineSet
333 449 m 1xbe
 326 450 319 451 313 451 c 0
 233 451 147 339 147 189 c 0
 147 114 177 72 223 72 c 0
 254 72 292 91 332 128 c 1
 375 389 l 1
 333 449 l 1xbe
509 736 m 1
 551 736 l 1
 531 616 l 1
 586 616 l 1
 574 528 l 1
 516 528 l 1
 458 179 l 2
 452 142 449 118 449 106 c 0
 449 75 468 55 491 55 c 0
 511 55 534 59 558 66 c 1
 558 29 l 1
 495 6 444 -6 406 -6 c 0x7e
 350 -6 325 19 325 74 c 2
 325 77 l 1
 268 20 214 -8 163 -8 c 0
 81 -8 21 62 21 177 c 0
 21 246 40 312 76 368 c 0
 129 450 213 496 309 496 c 0
 334 496 362 490 391 479 c 1
 399 528 l 1
 270 528 l 1
 283 616 l 1
 413 616 l 1
 419 650 l 1
 335 663 l 1
 335 697 l 1
 509 736 l 1
EndSplineSet
Substitution2: "'smcp' Lowercase to Small Capitals in Latin lookup 2 subtable" eth.sc
EndChar

StartChar: Emacron
Encoding: 274 274 208
Width: 581
GlyphClass: 2
Flags: MW
HStem: 0 48<-22 491 -22 -22> 0 58<180 406 180 491> 319 56<241 351 230 363> 615 56<286 474 286 286> 622 49<85 580> 798 68<213 556 225 544>
VStem: 362 54<230 230> 486 64<515 515>
LayerCount: 2
Fore
SplineSet
213 798 m 1x04
 225 866 l 1
 556 866 l 1
 544 798 l 1
 213 798 l 1x04
85 671 m 1xab
 580 671 l 1xab
 550 515 l 1
 486 515 l 1
 485 600 l 1
 474 615 l 1
 286 615 l 1
 241 375 l 1
 363 375 l 1
 378 389 l 1
 403 463 l 1
 460 463 l 1
 416 230 l 1
 362 230 l 1
 364 305 l 1
 351 319 l 1
 230 319 l 1
 180 58 l 1
 406 58 l 1x73
 420 72 l 1
 458 179 l 1
 524 179 l 1
 491 0 l 1
 -22 0 l 1
 -22 48 l 1
 43 54 l 1
 57 69 l 1
 158 601 l 1
 149 617 l 1
 85 622 l 1
 85 671 l 1xab
EndSplineSet
EndChar

StartChar: emacron
Encoding: 275 275 209
Width: 464
GlyphClass: 2
Flags: MW
HStem: -9 75<212.5 226> 75 61<401 403> 226 43 441 50<277 296> 607 68<164 507 176 495>
VStem: 19 120<154.5 201.5 154.5 228> 330 101<361 405.5>
LayerCount: 2
Fore
SplineSet
164 607 m 1
 176 675 l 1
 507 675 l 1
 495 607 l 1
 164 607 l 1
141 227 m 1
 140 216 139 206 139 197 c 0
 139 112 179 66 246 66 c 0
 289 66 343 89 403 136 c 1
 401 75 l 1
 328 18 256 -9 196 -9 c 0
 85 -9 19 62 19 181 c 0
 19 275 58 361 132 424 c 0
 183 467 247 491 307 491 c 0
 385 491 431 448 431 382 c 0
 431 287 339 226 172 226 c 0
 162 226 152 227 141 227 c 1
149 269 m 1
 261 274 330 332 330 390 c 0
 330 421 311 441 281 441 c 0
 229 441 177 382 149 269 c 1
EndSplineSet
EndChar

StartChar: Ebreve
Encoding: 276 276 210
Width: 581
GlyphClass: 2
Flags: MW
HStem: 0 48<-22 491 -22 -22> 0 58<180 406 180 491> 319 56<241 351 230 363> 615 56<286 474 286 286> 622 49<85 580> 753 71<352 419 352 424.5>
VStem: 241 55<858 859.5> 362 54<230 230> 486 64<515 515> 500 51<904 905>
LayerCount: 2
Fore
SplineSet
241 853 m 0x0640
 241 866 243 884 246 905 c 1
 297 904 l 1
 296 890 296 882 296 878 c 0
 296 838 321 824 383 824 c 0
 455 824 487 842 500 904 c 1
 551 905 l 1
 532 797 479 753 370 753 c 0
 281 753 241 782 241 853 c 0x0640
85 671 m 1xa980
 580 671 l 1xa980
 550 515 l 1
 486 515 l 1
 485 600 l 1
 474 615 l 1
 286 615 l 1
 241 375 l 1
 363 375 l 1
 378 389 l 1
 403 463 l 1
 460 463 l 1
 416 230 l 1
 362 230 l 1
 364 305 l 1
 351 319 l 1
 230 319 l 1
 180 58 l 1
 406 58 l 1x7180
 420 72 l 1
 458 179 l 1
 524 179 l 1
 491 0 l 1
 -22 0 l 1
 -22 48 l 1
 43 54 l 1
 57 69 l 1
 158 601 l 1
 149 617 l 1
 85 622 l 1
 85 671 l 1xa980
EndSplineSet
EndChar

StartChar: ebreve
Encoding: 277 277 211
Width: 464
GlyphClass: 2
Flags: MW
HStem: -9 75<212.5 226> 75 61<401 403> 226 43 441 50<277 296> 553 71<302 369 302 374.5>
VStem: 19 120<154.5 201.5 154.5 228> 191 55<658 659.5> 330 101<361 405.5> 450 51<704 705>
LayerCount: 2
Fore
SplineSet
196 705 m 1
 247 704 l 1
 246 690 246 682 246 678 c 0
 246 638 271 624 333 624 c 0
 405 624 437 642 450 704 c 1
 501 705 l 1
 482 597 429 553 320 553 c 0
 231 553 191 582 191 653 c 0
 191 666 193 684 196 705 c 1
141 227 m 1
 140 216 139 206 139 197 c 0
 139 112 179 66 246 66 c 0
 289 66 343 89 403 136 c 1
 401 75 l 1
 328 18 256 -9 196 -9 c 0
 85 -9 19 62 19 181 c 0
 19 275 58 361 132 424 c 0
 183 467 247 491 307 491 c 0
 385 491 431 448 431 382 c 0
 431 287 339 226 172 226 c 0
 162 226 152 227 141 227 c 1
149 269 m 1
 261 274 330 332 330 390 c 0
 330 421 311 441 281 441 c 0
 229 441 177 382 149 269 c 1
EndSplineSet
EndChar

StartChar: Edotaccent
Encoding: 278 278 212
Width: 581
GlyphClass: 2
Flags: MW
HStem: 0 48<-22 491 -22 -22> 0 58<180 406 180 491> 319 56<241 351 230 363> 615 56<286 474 286 286> 622 49<85 580> 762 137<366.5 402>
VStem: 318 132<811.5 849 811.5 849> 362 54<230 230> 486 64<515 515>
LayerCount: 2
Fore
SplineSet
318 830 m 0x06
 318 868 348 899 384 899 c 0
 420 899 450 868 450 830 c 0
 450 793 420 762 384 762 c 0
 349 762 318 792 318 830 c 0x06
85 671 m 1xa980
 580 671 l 1xa980
 550 515 l 1
 486 515 l 1
 485 600 l 1
 474 615 l 1
 286 615 l 1
 241 375 l 1
 363 375 l 1
 378 389 l 1
 403 463 l 1
 460 463 l 1
 416 230 l 1
 362 230 l 1
 364 305 l 1
 351 319 l 1
 230 319 l 1
 180 58 l 1
 406 58 l 1x7180
 420 72 l 1
 458 179 l 1
 524 179 l 1
 491 0 l 1
 -22 0 l 1
 -22 48 l 1
 43 54 l 1
 57 69 l 1
 158 601 l 1
 149 617 l 1
 85 622 l 1
 85 671 l 1xa980
EndSplineSet
EndChar

StartChar: edotaccent
Encoding: 279 279 213
Width: 464
GlyphClass: 2
Flags: MW
HStem: -9 75<212.5 226> 75 61<401 403> 226 43 441 50<277 296> 553 137<314.5 350>
VStem: 19 120<154.5 201.5 154.5 228> 266 132<602.5 640 602.5 640> 330 101<361 405.5>
LayerCount: 2
Fore
SplineSet
332 690 m 0x08
 368 690 398 659 398 621 c 0
 398 584 368 553 332 553 c 0
 297 553 266 583 266 621 c 0
 266 659 296 690 332 690 c 0x08
141 227 m 1xf5
 140 216 139 206 139 197 c 0
 139 112 179 66 246 66 c 0
 289 66 343 89 403 136 c 1
 401 75 l 1
 328 18 256 -9 196 -9 c 0
 85 -9 19 62 19 181 c 0
 19 275 58 361 132 424 c 0
 183 467 247 491 307 491 c 0
 385 491 431 448 431 382 c 0
 431 287 339 226 172 226 c 0
 162 226 152 227 141 227 c 1xf5
149 269 m 1
 261 274 330 332 330 390 c 0
 330 421 311 441 281 441 c 0
 229 441 177 382 149 269 c 1
EndSplineSet
EndChar

StartChar: Eogonek
Encoding: 280 280 214
Width: 581
GlyphClass: 2
Flags: MW
HStem: -224 72<363.5 433.5> 0 48<-22 400 -22 -22> 0 58<180 400 180 491 180 454> 319 56<241 351 230 363> 615 56<286 474 286 286> 622 49<85 580>
VStem: 303 81<-179 -98> 362 54<230 230> 486 64<515 515>
LayerCount: 2
Fore
SplineSet
85 671 m 1xd680
 580 671 l 1xd680
 550 515 l 1
 486 515 l 1
 485 600 l 1
 474 615 l 1
 286 615 l 1
 241 375 l 1
 363 375 l 1
 378 389 l 1
 403 463 l 1
 460 463 l 1
 416 230 l 1
 362 230 l 1
 364 305 l 1
 351 319 l 1
 230 319 l 1
 180 58 l 1
 406 58 l 1xb980
 420 72 l 1
 458 179 l 1
 524 179 l 1
 491 0 l 1
 454 0 l 1xd180
 407 -37 384 -78 384 -118 c 0
 384 -137 401 -152 430 -152 c 0
 437 -152 448 -151 462 -149 c 1
 449 -217 l 1
 429 -222 411 -224 393 -224 c 0
 334 -224 303 -199 303 -159 c 0
 303 -107 336 -49 400 0 c 1xb280
 -22 0 l 1
 -22 48 l 1
 43 54 l 1
 57 69 l 1
 158 601 l 1
 149 617 l 1
 85 622 l 1
 85 671 l 1xd680
EndSplineSet
EndChar

StartChar: eogonek
Encoding: 281 281 215
Width: 464
GlyphClass: 2
Flags: MW
HStem: -224 72<153.5 223.5> 226 43 441 50<277 296>
VStem: 19 120<154.5 201.5 154.5 228> 93 81<-179 -99> 330 101<361 405.5>
LayerCount: 2
Fore
SplineSet
149 269 m 1xe4
 261 274 330 332 330 390 c 0
 330 421 311 441 281 441 c 0
 229 441 177 382 149 269 c 1xe4
141 227 m 1
 140 216 139 206 139 197 c 0xf4
 139 112 179 66 246 66 c 0
 289 66 343 89 403 136 c 1
 401 75 l 1
 344 31 288 5 238 -5 c 1
 195 -41 174 -80 174 -118 c 0
 174 -137 191 -152 220 -152 c 0
 227 -152 238 -151 252 -149 c 1
 239 -217 l 1
 219 -222 201 -224 183 -224 c 0
 124 -224 93 -199 93 -159 c 0xec
 93 -110 122 -56 179 -8 c 1
 78 -2 19 68 19 181 c 0xf4
 19 275 58 361 132 424 c 0
 183 467 247 491 307 491 c 0
 385 491 431 448 431 382 c 0
 431 287 339 226 172 226 c 0
 162 226 152 227 141 227 c 1
EndSplineSet
Substitution2: "'smcp' Lowercase to Small Capitals in Latin lookup 3 subtable" eogonek.sc
EndChar

StartChar: Ecaron
Encoding: 282 282 216
Width: 581
GlyphClass: 2
Flags: MW
HStem: 0 48<-22 491 -22 -22> 0 58<180 406 180 491> 319 56<241 351 230 363> 615 56<286 474 286 286> 622 49<85 580> 736 21G<328 416 328 328>
VStem: 362 54<230 230> 485 77<926 926> 486 64<515 515>
LayerCount: 2
Fore
SplineSet
255 926 m 1x27
 332 926 l 1
 384 801 l 1
 485 926 l 1
 562 926 l 1
 416 736 l 1
 328 736 l 1
 255 926 l 1x27
85 671 m 1xaf
 580 671 l 1
 550 515 l 1
 486 515 l 1xae80
 485 600 l 1
 474 615 l 1
 286 615 l 1
 241 375 l 1
 363 375 l 1
 378 389 l 1
 403 463 l 1
 460 463 l 1
 416 230 l 1
 362 230 l 1
 364 305 l 1
 351 319 l 1
 230 319 l 1
 180 58 l 1
 406 58 l 1x77
 420 72 l 1
 458 179 l 1
 524 179 l 1
 491 0 l 1
 -22 0 l 1
 -22 48 l 1
 43 54 l 1
 57 69 l 1
 158 601 l 1
 149 617 l 1
 85 622 l 1
 85 671 l 1xaf
EndSplineSet
Substitution2: "'c2sc' Capitals to Small Capitals in Latin lookup 5 subtable" ecaron.sc
EndChar

StartChar: ecaron
Encoding: 283 283 217
Width: 464
GlyphClass: 2
Flags: MW
HStem: -9 75<212.5 226> 75 61<401 403> 226 43 441 50<277 296>
VStem: 19 120<154.5 201.5 154.5 228> 330 101<361 405.5> 415 77<741 741>
LayerCount: 2
Fore
SplineSet
185 741 m 1xfa
 262 741 l 1
 314 616 l 1
 415 741 l 1
 492 741 l 1
 346 551 l 1
 258 551 l 1
 185 741 l 1xfa
141 227 m 1
 140 216 139 206 139 197 c 0
 139 112 179 66 246 66 c 0
 289 66 343 89 403 136 c 1
 401 75 l 1
 328 18 256 -9 196 -9 c 0
 85 -9 19 62 19 181 c 0
 19 275 58 361 132 424 c 0
 183 467 247 491 307 491 c 0
 385 491 431 448 431 382 c 0xfc
 431 287 339 226 172 226 c 0
 162 226 152 227 141 227 c 1
149 269 m 1
 261 274 330 332 330 390 c 0
 330 421 311 441 281 441 c 0
 229 441 177 382 149 269 c 1
EndSplineSet
Substitution2: "'smcp' Lowercase to Small Capitals in Latin lookup 3 subtable" ecaron.sc
EndChar

StartChar: Gcircumflex
Encoding: 284 284 218
Width: 693
GlyphClass: 2
Flags: MW
HStem: -12 63<314.5 359.5> 281 49<388 671> 623 62<439.5 486.5> 738 190<317 551 317 551 548 548 548 551 464 625>
VStem: 38 139<200.5 326.5 200.5 337.5> 317 78<738 738> 554 72<481 481>
LayerCount: 2
Fore
SplineSet
317 738 m 1
 464 928 l 1
 551 928 l 1
 625 738 l 1
 548 738 l 1
 495 863 l 1
 395 738 l 1
 317 738 l 1
657 652 m 1
 626 481 l 1
 554 481 l 1
 556 592 l 1
 544 611 l 1
 519 619 497 623 476 623 c 0
 403 623 341 599 293 556 c 0
 220 490 177 386 177 267 c 0
 177 134 253 51 376 51 c 0
 389 51 406 52 429 54 c 1
 467 261 l 1
 456 275 l 1
 388 281 l 1
 388 330 l 1
 671 330 l 1
 671 282 l 1
 608 276 l 1
 593 262 l 1
 548 30 l 1
 468 2 393 -12 326 -12 c 0
 149 -12 38 99 38 270 c 0
 38 405 98 526 202 602 c 0
 277 656 365 685 462 685 c 0
 531 685 598 674 657 652 c 1
EndSplineSet
EndChar

StartChar: gcircumflex
Encoding: 285 285 219
Width: 517
GlyphClass: 2
Flags: MW
HStem: -218 50<167 240 167 250> 161 46 411 52<425 527 425 425> 448 44<240 282> 553 190<124 358 124 358 355 358 271 432 355 355>
VStem: -30 107<-89.5 -53.5> 44 120<266.5 328.5 258.5 352.5> 124 78<553 553> 319 120<-101 -78>
LayerCount: 2
Fore
SplineSet
271 743 m 1x08
 358 743 l 1
 432 553 l 1
 355 553 l 1
 302 678 l 1
 202 553 l 1
 124 553 l 1
 271 743 l 1x08
390 463 m 1xe280
 527 463 l 1
 527 411 l 1
 425 411 l 1
 431 390 435 371 435 354 c 0
 435 245 345 162 209 161 c 1
 201 148 197 136 197 123 c 2
 197 119 l 1
 348 47 l 2
 409 18 439 -12 439 -61 c 0
 439 -141 331 -218 169 -218 c 0
 46 -218 -30 -163 -30 -85 c 0xe480
 -30 -22 18 23 116 62 c 1
 116 66 l 2
 116 102 130 133 158 168 c 1
 84 188 44 236 44 297 c 0
 44 408 136 492 266 492 c 0xd280
 308 492 349 482 390 463 c 1xe280
319 371 m 0
 319 422 300 448 264 448 c 0
 216 448 164 374 164 283 c 0xd280
 164 234 184 207 219 207 c 0
 267 207 319 278 319 371 c 0
141 29 m 1
 98 6 77 -22 77 -59 c 0xc480
 77 -120 128 -168 206 -168 c 0
 274 -168 319 -132 319 -90 c 0
 319 -66 300 -44 261 -26 c 2
 141 29 l 1
EndSplineSet
EndChar

StartChar: Gbreve
Encoding: 286 286 220
Width: 693
GlyphClass: 2
Flags: MW
HStem: -12 63<314.5 359.5> 281 49<388 671> 623 62<439.5 486.5> 737 71<438 505 438 510.5>
VStem: 38 139<200.5 326.5 200.5 337.5> 327 55<842 843.5> 554 72<481 481> 586 51<888 889>
LayerCount: 2
Fore
SplineSet
332 889 m 1xfd
 383 888 l 1
 382 874 382 866 382 862 c 0
 382 822 407 808 469 808 c 0
 541 808 573 826 586 888 c 1
 637 889 l 1
 618 781 565 737 456 737 c 0
 367 737 327 766 327 837 c 0
 327 850 329 868 332 889 c 1xfd
657 652 m 1
 626 481 l 1
 554 481 l 1xfe
 556 592 l 1
 544 611 l 1
 519 619 497 623 476 623 c 0
 403 623 341 599 293 556 c 0
 220 490 177 386 177 267 c 0
 177 134 253 51 376 51 c 0
 389 51 406 52 429 54 c 1
 467 261 l 1
 456 275 l 1
 388 281 l 1
 388 330 l 1
 671 330 l 1
 671 282 l 1
 608 276 l 1
 593 262 l 1
 548 30 l 1
 468 2 393 -12 326 -12 c 0
 149 -12 38 99 38 270 c 0
 38 405 98 526 202 602 c 0
 277 656 365 685 462 685 c 0
 531 685 598 674 657 652 c 1
EndSplineSet
Substitution2: "'c2sc' Capitals to Small Capitals in Latin lookup 5 subtable" gbreve.sc
EndChar

StartChar: gbreve
Encoding: 287 287 221
Width: 517
GlyphClass: 2
Flags: MW
HStem: -218 50<167 240 167 250> 161 46 411 52<425 527 425 425> 448 44<240 282> 567 71<258 325 258 330.5>
VStem: -30 107<-89.5 -53.5> 44 120<266.5 328.5 258.5 352.5> 147 55<672 673.5> 319 120<-101 -78> 406 51<718 719>
LayerCount: 2
Fore
SplineSet
152 719 m 1xc940
 203 718 l 1
 202 704 202 696 202 692 c 0
 202 652 227 638 289 638 c 0
 361 638 393 656 406 718 c 1
 457 719 l 1
 438 611 385 567 276 567 c 0
 187 567 147 596 147 667 c 0
 147 680 149 698 152 719 c 1xc940
390 463 m 1xea
 527 463 l 1
 527 411 l 1
 425 411 l 1
 431 390 435 371 435 354 c 0
 435 245 345 162 209 161 c 1
 201 148 197 136 197 123 c 2
 197 119 l 1
 348 47 l 2
 409 18 439 -12 439 -61 c 0
 439 -141 331 -218 169 -218 c 0
 46 -218 -30 -163 -30 -85 c 0xec80
 -30 -22 18 23 116 62 c 1
 116 66 l 2
 116 102 130 133 158 168 c 1
 84 188 44 236 44 297 c 0
 44 408 136 492 266 492 c 0xda
 308 492 349 482 390 463 c 1xea
319 371 m 0
 319 422 300 448 264 448 c 0
 216 448 164 374 164 283 c 0xda80
 164 234 184 207 219 207 c 0
 267 207 319 278 319 371 c 0
141 29 m 1
 98 6 77 -22 77 -59 c 0xcc80
 77 -120 128 -168 206 -168 c 0
 274 -168 319 -132 319 -90 c 0
 319 -66 300 -44 261 -26 c 2
 141 29 l 1
EndSplineSet
Substitution2: "'smcp' Lowercase to Small Capitals in Latin lookup 3 subtable" gbreve.sc
EndChar

StartChar: Gdotaccent
Encoding: 288 288 222
Width: 693
GlyphClass: 2
Flags: MW
HStem: -12 63<314.5 359.5> 281 49<388 671> 623 62<439.5 486.5> 762 137<471.5 507>
VStem: 38 139<200.5 326.5 200.5 337.5> 423 132<811.5 849 811.5 849> 554 72<481 481>
LayerCount: 2
Fore
SplineSet
423 830 m 0x14
 423 868 453 899 489 899 c 0
 525 899 555 868 555 830 c 0
 555 793 525 762 489 762 c 0
 454 762 423 792 423 830 c 0x14
657 652 m 1xea
 626 481 l 1
 554 481 l 1
 556 592 l 1
 544 611 l 1
 519 619 497 623 476 623 c 0
 403 623 341 599 293 556 c 0
 220 490 177 386 177 267 c 0
 177 134 253 51 376 51 c 0
 389 51 406 52 429 54 c 1
 467 261 l 1
 456 275 l 1
 388 281 l 1
 388 330 l 1
 671 330 l 1
 671 282 l 1
 608 276 l 1
 593 262 l 1
 548 30 l 1
 468 2 393 -12 326 -12 c 0
 149 -12 38 99 38 270 c 0
 38 405 98 526 202 602 c 0
 277 656 365 685 462 685 c 0
 531 685 598 674 657 652 c 1xea
EndSplineSet
EndChar

StartChar: gdotaccent
Encoding: 289 289 223
Width: 517
GlyphClass: 2
Flags: MW
HStem: -218 50<167 240 167 250> 161 46 411 52<425 527 425 425> 448 44<240 282> 553 137<273.5 309>
VStem: -30 107<-89.5 -53.5> 44 120<266.5 328.5 258.5 352.5> 225 132<602.5 640 602.5 640> 319 120<-101 -78>
LayerCount: 2
Fore
SplineSet
291 690 m 0x08
 327 690 357 659 357 621 c 0
 357 584 327 553 291 553 c 0
 256 553 225 583 225 621 c 0
 225 659 255 690 291 690 c 0x08
390 463 m 1xe280
 527 463 l 1
 527 411 l 1
 425 411 l 1
 431 390 435 371 435 354 c 0
 435 245 345 162 209 161 c 1
 201 148 197 136 197 123 c 2
 197 119 l 1
 348 47 l 2
 409 18 439 -12 439 -61 c 0
 439 -141 331 -218 169 -218 c 0
 46 -218 -30 -163 -30 -85 c 0xe480
 -30 -22 18 23 116 62 c 1
 116 66 l 2
 116 102 130 133 158 168 c 1
 84 188 44 236 44 297 c 0
 44 408 136 492 266 492 c 0xd280
 308 492 349 482 390 463 c 1xe280
319 371 m 0
 319 422 300 448 264 448 c 0
 216 448 164 374 164 283 c 0xd280
 164 234 184 207 219 207 c 0
 267 207 319 278 319 371 c 0
141 29 m 1
 98 6 77 -22 77 -59 c 0xc480
 77 -120 128 -168 206 -168 c 0
 274 -168 319 -132 319 -90 c 0
 319 -66 300 -44 261 -26 c 2
 141 29 l 1
EndSplineSet
EndChar

StartChar: uni0122
Encoding: 290 290 224
Width: 693
GlyphClass: 2
Flags: MW
HStem: -376 46<165 173> -12 63<314.5 359.5> 281 49<388 671> 623 62<439.5 486.5>
VStem: 38 139<200.5 326.5 200.5 337.5> 234 156<-164 -132> 554 72<481 481>
LayerCount: 2
Fore
SplineSet
165 -376 m 1
 173 -330 l 1
 250 -316 295 -270 306 -194 c 1
 245 -194 l 1
 237 -183 234 -171 234 -157 c 0
 234 -107 269 -72 316 -72 c 0
 363 -72 390 -101 390 -149 c 0
 390 -254 298 -360 165 -376 c 1
657 652 m 1
 626 481 l 1
 554 481 l 1
 556 592 l 1
 544 611 l 1
 519 619 497 623 476 623 c 0
 403 623 341 599 293 556 c 0
 220 490 177 386 177 267 c 0
 177 134 253 51 376 51 c 0
 389 51 406 52 429 54 c 1
 467 261 l 1
 456 275 l 1
 388 281 l 1
 388 330 l 1
 671 330 l 1
 671 282 l 1
 608 276 l 1
 593 262 l 1
 548 30 l 1
 468 2 393 -12 326 -12 c 0
 149 -12 38 99 38 270 c 0
 38 405 98 526 202 602 c 0
 277 656 365 685 462 685 c 0
 531 685 598 674 657 652 c 1
EndSplineSet
EndChar

StartChar: Hcircumflex
Encoding: 292 292 225
Width: 747
GlyphClass: 2
Flags: MW
HStem: 0 49<-25 256 -25 -25> 321 60<240 508 228 520> 623 48<84 360> 738 190<295 529 295 529 526 526 526 529 442 603>
VStem: 295 78<738 738>
LayerCount: 2
Fore
SplineSet
295 738 m 1
 442 928 l 1
 529 928 l 1
 603 738 l 1
 526 738 l 1
 473 863 l 1
 373 738 l 1
 295 738 l 1
84 671 m 1
 360 671 l 1
 360 623 l 1
 295 618 l 1
 282 605 l 1
 240 381 l 1
 520 381 l 1
 562 603 l 1
 549 618 l 1
 489 624 l 1
 489 671 l 1
 767 671 l 1
 767 623 l 1
 701 618 l 1
 688 605 l 1
 587 70 l 1
 596 55 l 1
 660 48 l 1
 660 0 l 1
 383 0 l 1
 383 49 l 1
 446 55 l 1
 462 70 l 1
 508 321 l 1
 228 321 l 1
 181 70 l 1
 192 53 l 1
 256 49 l 1
 256 0 l 1
 -25 0 l 1
 -25 49 l 1
 39 54 l 1
 55 70 l 1
 156 603 l 1
 146 618 l 1
 84 622 l 1
 84 671 l 1
EndSplineSet
EndChar

StartChar: hcircumflex
Encoding: 293 293 226
Width: 595
GlyphClass: 2
Flags: MW
HStem: -6 61<382.5 504> 408 86<318.5 437> 665 32<63 64> 716 20G<241 286 286 286> 796 190<242 476 242 476 473 476 389 550 473 473>
VStem: 20 124<0 0> 242 78<796 796> 328 124<41.5 114> 381 123<343.5 427.5>
LayerCount: 2
Fore
SplineSet
389 986 m 1x0a
 476 986 l 1
 550 796 l 1
 473 796 l 1
 420 921 l 1
 320 796 l 1
 242 796 l 1
 389 986 l 1x0a
241 736 m 1xf480
 286 736 l 1
 273 682 261 625 249 564 c 2
 215 395 l 1
 295 461 359 494 408 494 c 0
 466 494 504 457 504 398 c 0xf480
 504 378 500 351 493 317 c 2
 463 179 l 2
 456 146 452 122 452 106 c 0
 452 75 471 55 494 55 c 0
 514 55 536 59 560 66 c 1
 560 29 l 1
 497 6 447 -6 409 -6 c 0
 356 -6 328 18 328 65 c 0xf5
 328 79 331 97 336 118 c 2
 372 284 l 2
 378 313 381 336 381 351 c 0
 381 388 363 408 333 408 c 0
 304 408 260 387 206 342 c 1
 144 0 l 1
 20 0 l 1
 151 655 l 1
 64 665 l 1
 63 697 l 1
 241 736 l 1xf480
EndSplineSet
EndChar

StartChar: Itilde
Encoding: 296 296 227
Width: 353
GlyphClass: 2
Flags: MW
HStem: 0 49<-20 263 -20 -20> 623 48<87 369 87 369> 773 72<325 356.5 325 362.5> 819 73<184 212>
VStem: 93 55<756 756> 393 53<908 908>
LayerCount: 2
Fore
SplineSet
93 756 m 1x1c
 105 844 148 892 206 892 c 0x1c
 264 892 308 845 342 845 c 0
 371 845 387 866 393 908 c 1
 446 908 l 1
 433 820 391 773 334 773 c 0x2c
 272 773 227 819 197 819 c 0
 171 819 153 797 148 756 c 1
 93 756 l 1x1c
87 671 m 1xc0
 369 671 l 1
 369 623 l 1
 303 619 l 1
 287 605 l 1
 186 67 l 1
 198 53 l 1
 263 49 l 1
 263 0 l 1
 -20 0 l 1
 -20 49 l 1
 46 54 l 1
 61 69 l 1
 162 605 l 1
 152 619 l 1
 87 623 l 1
 87 671 l 1xc0
EndSplineSet
EndChar

StartChar: itilde
Encoding: 297 297 228
Width: 318
GlyphClass: 2
Flags: MW
HStem: -7 66<97.5 231.5> 420 36<29 29> 473 20G<200 244 244 244> 570 72<243 274.5 243 280.5> 616 73<102 130>
VStem: 11 55<553 553> 48 127<45.5 119> 311 53<705 705>
LayerCount: 2
Fore
SplineSet
311 705 m 1x11
 364 705 l 1
 351 617 309 570 252 570 c 0x11
 190 570 145 616 115 616 c 0
 89 616 71 594 66 553 c 1
 11 553 l 1
 23 641 66 689 124 689 c 0x09
 182 689 226 642 260 642 c 0
 289 642 305 663 311 705 c 1x11
200 493 m 1xe2
 244 493 l 1
 180 155 l 2
 177 138 175 124 175 114 c 0
 175 78 192 59 224 59 c 0
 239 59 263 64 293 73 c 1
 293 32 l 1
 230 7 175 -7 122 -7 c 0
 73 -7 48 20 48 71 c 0
 48 88 52 111 57 138 c 2
 111 407 l 1
 29 420 l 1
 29 456 l 1
 200 493 l 1xe2
EndSplineSet
EndChar

StartChar: Imacron
Encoding: 298 298 229
Width: 353
GlyphClass: 2
Flags: MW
HStem: 0 49<-20 263 -20 -20> 623 48<87 369 87 369> 798 68<98 441 110 429>
LayerCount: 2
Fore
SplineSet
98 798 m 1
 110 866 l 1
 441 866 l 1
 429 798 l 1
 98 798 l 1
87 671 m 1
 369 671 l 1
 369 623 l 1
 303 619 l 1
 287 605 l 1
 186 67 l 1
 198 53 l 1
 263 49 l 1
 263 0 l 1
 -20 0 l 1
 -20 49 l 1
 46 54 l 1
 61 69 l 1
 162 605 l 1
 152 619 l 1
 87 623 l 1
 87 671 l 1
EndSplineSet
EndChar

StartChar: imacron
Encoding: 299 299 230
Width: 318
GlyphClass: 2
Flags: MW
HStem: -7 66<97.5 231.5> 420 36<29 29> 473 20G<200 244 244 244> 607 68<42 385 54 373>
VStem: 48 127<45.5 119>
LayerCount: 2
Fore
SplineSet
42 607 m 1
 54 675 l 1
 385 675 l 1
 373 607 l 1
 42 607 l 1
200 493 m 1
 244 493 l 1
 180 155 l 2
 177 138 175 124 175 114 c 0
 175 78 192 59 224 59 c 0
 239 59 263 64 293 73 c 1
 293 32 l 1
 230 7 175 -7 122 -7 c 0
 73 -7 48 20 48 71 c 0
 48 88 52 111 57 138 c 2
 111 407 l 1
 29 420 l 1
 29 456 l 1
 200 493 l 1
EndSplineSet
EndChar

StartChar: Ibreve
Encoding: 300 300 231
Width: 353
GlyphClass: 2
Flags: MW
HStem: 0 49<-20 263 -20 -20> 623 48<87 369 87 369> 753 71<237 304 237 309.5>
VStem: 126 55<858 859.5> 385 51<904 905>
LayerCount: 2
Fore
SplineSet
126 853 m 0
 126 866 128 884 131 905 c 1
 182 904 l 1
 181 890 181 882 181 878 c 0
 181 838 206 824 268 824 c 0
 340 824 372 842 385 904 c 1
 436 905 l 1
 417 797 364 753 255 753 c 0
 166 753 126 782 126 853 c 0
87 671 m 1
 369 671 l 1
 369 623 l 1
 303 619 l 1
 287 605 l 1
 186 67 l 1
 198 53 l 1
 263 49 l 1
 263 0 l 1
 -20 0 l 1
 -20 49 l 1
 46 54 l 1
 61 69 l 1
 162 605 l 1
 152 619 l 1
 87 623 l 1
 87 671 l 1
EndSplineSet
EndChar

StartChar: ibreve
Encoding: 301 301 232
Width: 318
GlyphClass: 2
Flags: MW
HStem: -7 66<97.5 231.5> 420 36<29 29> 473 20G<200 244 244 244> 553 71<156 223 156 228.5>
VStem: 45 55<658 659.5> 48 127<45.5 119> 304 51<704 705>
LayerCount: 2
Fore
SplineSet
50 705 m 1x12
 101 704 l 1
 100 690 100 682 100 678 c 0
 100 638 125 624 187 624 c 0
 259 624 291 642 304 704 c 1
 355 705 l 1
 336 597 283 553 174 553 c 0
 85 553 45 582 45 653 c 0
 45 666 47 684 50 705 c 1x12
200 493 m 1xe4
 244 493 l 1
 180 155 l 2
 177 138 175 124 175 114 c 0
 175 78 192 59 224 59 c 0
 239 59 263 64 293 73 c 1
 293 32 l 1
 230 7 175 -7 122 -7 c 0
 73 -7 48 20 48 71 c 0
 48 88 52 111 57 138 c 2
 111 407 l 1
 29 420 l 1
 29 456 l 1
 200 493 l 1xe4
EndSplineSet
EndChar

StartChar: Iogonek
Encoding: 302 302 233
Width: 353
GlyphClass: 2
Flags: MW
HStem: -217 72<169.5 239.5> -13 20G<206 260 260 260> 0 49<-20 263 -20 -20> 623 48<87 369 87 369>
VStem: 109 81<-172 -91> 206 54<7 7>
LayerCount: 2
Fore
SplineSet
260 7 m 1x08
 213 -30 190 -71 190 -111 c 0
 190 -130 207 -145 236 -145 c 0
 243 -145 254 -144 268 -142 c 1
 255 -210 l 1
 235 -215 217 -217 199 -217 c 0
 140 -217 109 -192 109 -152 c 0
 109 -100 142 -42 206 7 c 1
 260 7 l 1x08
87 671 m 1x30
 369 671 l 1
 369 623 l 1
 303 619 l 1
 287 605 l 1
 186 67 l 1
 198 53 l 1
 263 49 l 1
 263 0 l 1
 -20 0 l 1
 -20 49 l 1
 46 54 l 1
 61 69 l 1
 162 605 l 1
 152 619 l 1
 87 623 l 1
 87 671 l 1x30
EndSplineSet
EndChar

StartChar: iogonek
Encoding: 303 303 234
Width: 318
GlyphClass: 2
Flags: MW
HStem: -224 72<110.5 180.5> -20 20G<147 201 201 201> -7 66<97.5 231.5> 420 36<29 29> 473 20G<200 244 244 244> 586 139<198 232.5>
VStem: 48 127<45.5 119> 50 81<-179 -98> 143 144<640 671> 147 54<0 0>
LayerCount: 2
Fore
SplineSet
201 0 m 1x01
 154 -37 131 -78 131 -118 c 0
 131 -137 148 -152 177 -152 c 0
 184 -152 195 -151 209 -149 c 1
 196 -217 l 1
 176 -222 158 -224 140 -224 c 0
 81 -224 50 -199 50 -159 c 0
 50 -107 83 -49 147 0 c 1
 201 0 l 1x01
220 725 m 0x3c80
 262 725 287 700 287 661 c 0
 287 619 254 586 211 586 c 0
 170 586 143 612 143 649 c 0
 143 693 176 725 220 725 c 0x3c80
200 493 m 1
 244 493 l 1
 180 155 l 2
 177 138 175 124 175 114 c 0
 175 78 192 59 224 59 c 0
 239 59 263 64 293 73 c 1
 293 32 l 1
 230 7 175 -7 122 -7 c 0
 73 -7 48 20 48 71 c 0x3e
 48 88 52 111 57 138 c 2
 111 407 l 1
 29 420 l 1
 29 456 l 1
 200 493 l 1
EndSplineSet
EndChar

StartChar: Idotaccent
Encoding: 304 304 235
Width: 353
GlyphClass: 2
Flags: MW
HStem: 0 49<-20 263 -20 -20> 623 48<87 369 87 369> 736 137<240.5 276>
VStem: 192 132<785.5 823 785.5 823>
LayerCount: 2
Fore
SplineSet
258 873 m 0
 294 873 324 842 324 804 c 0
 324 767 294 736 258 736 c 0
 223 736 192 766 192 804 c 0
 192 842 222 873 258 873 c 0
87 671 m 1
 369 671 l 1
 369 623 l 1
 303 619 l 1
 287 605 l 1
 186 67 l 1
 198 53 l 1
 263 49 l 1
 263 0 l 1
 -20 0 l 1
 -20 49 l 1
 46 54 l 1
 61 69 l 1
 162 605 l 1
 152 619 l 1
 87 623 l 1
 87 671 l 1
EndSplineSet
EndChar

StartChar: dotlessi
Encoding: 305 305 236
Width: 318
GlyphClass: 2
Flags: MW
HStem: -7 66<97.5 231.5> 420 36<29 29> 473 20G<200 244 244 244>
VStem: 48 127<45.5 119>
AnchorPoint: "Anchor-2" 89 0 basechar 0
AnchorPoint: "Anchor-1" 185 493 basechar 0
LayerCount: 2
Fore
SplineSet
200 493 m 1
 244 493 l 1
 180 155 l 2
 177 138 175 124 175 114 c 0
 175 78 192 59 224 59 c 0
 239 59 263 64 293 73 c 1
 293 32 l 1
 230 7 175 -7 122 -7 c 0
 73 -7 48 20 48 71 c 0
 48 88 52 111 57 138 c 2
 111 407 l 1
 29 420 l 1
 29 456 l 1
 200 493 l 1
EndSplineSet
Substitution2: "'smcp' Lowercase to Small Capitals in Latin lookup 2 subtable" i.sc
EndChar

StartChar: IJ
Encoding: 306 306 237
Width: 768
GlyphClass: 2
Flags: MW
HStem: -13 57<398 400 400 453.5 398 499> 0 49<-20 263 -20 -20> 623 48<87 369 87 369>
VStem: 313 71<192 192>
LayerCount: 2
Fore
SplineSet
538 671 m 1xb0
 820 671 l 1
 820 623 l 1
 753 617 l 1
 739 601 l 1
 682 268 l 2
 650 79 572 -13 426 -13 c 0
 370 -13 321 -4 279 14 c 1
 313 192 l 1
 384 192 l 1
 385 56 l 1
 398 44 l 1
 400 44 l 2
 507 44 528 118 555 270 c 2
 615 604 l 1
 605 619 l 1
 538 623 l 1
 538 671 l 1xb0
87 671 m 1x60
 369 671 l 1
 369 623 l 1
 303 619 l 1
 287 605 l 1
 186 67 l 1
 198 53 l 1
 263 49 l 1
 263 0 l 1
 -20 0 l 1
 -20 49 l 1
 46 54 l 1
 61 69 l 1
 162 605 l 1
 152 619 l 1
 87 623 l 1
 87 671 l 1x60
EndSplineSet
Substitution2: "'c2sc' Capitals to Small Capitals in Latin lookup 4 subtable" ij.sc
EndChar

StartChar: ij
Encoding: 307 307 238
Width: 615
GlyphClass: 2
Flags: MW
HStem: -7 66<97.5 231.5> 420 36<29 29> 473 20G<200 244 244 244 523 567 567 567> 584 139<513 547.5> 586 139<198 232.5>
VStem: 48 127<45.5 119> 143 144<640 671> 458 144<638 669>
LayerCount: 2
Fore
SplineSet
535 723 m 0x71
 577 723 602 698 602 659 c 0
 602 617 569 584 526 584 c 0
 485 584 458 611 458 648 c 0
 458 690 491 723 535 723 c 0x71
434 407 m 1
 344 420 l 1
 344 456 l 1
 523 493 l 1
 567 493 l 1
 513 155 l 2
 497 53 482 -33 414 -108 c 0
 349 -179 288 -214 240 -214 c 0
 199 -214 172 -190 172 -153 c 0
 172 -124 184 -104 206 -93 c 1
 323 -140 l 1
 355 -100 370 -23 387 90 c 2
 434 407 l 1
220 725 m 0xea
 262 725 287 700 287 661 c 0
 287 619 254 586 211 586 c 0
 170 586 143 612 143 649 c 0
 143 693 176 725 220 725 c 0xea
200 493 m 1
 244 493 l 1
 180 155 l 2
 177 138 175 124 175 114 c 0
 175 78 192 59 224 59 c 0
 239 59 263 64 293 73 c 1
 293 32 l 1
 230 7 175 -7 122 -7 c 0
 73 -7 48 20 48 71 c 0xec
 48 88 52 111 57 138 c 2
 111 407 l 1
 29 420 l 1
 29 456 l 1
 200 493 l 1
EndSplineSet
Substitution2: "'smcp' Lowercase to Small Capitals in Latin lookup 2 subtable" ij.sc
EndChar

StartChar: Jcircumflex
Encoding: 308 308 239
Width: 474
GlyphClass: 2
Flags: MW
HStem: -13 57<74 76 76 129.5 74 175> 623 48<214 496 214 496> 738 190<229 463 229 463 460 460 460 463 376 537>
VStem: -11 71<192 192> 229 78<738 738>
LayerCount: 2
Fore
SplineSet
229 738 m 1
 376 928 l 1
 463 928 l 1
 537 738 l 1
 460 738 l 1
 407 863 l 1
 307 738 l 1
 229 738 l 1
214 671 m 1
 496 671 l 1
 496 623 l 1
 429 617 l 1
 415 601 l 1
 358 268 l 2
 326 79 248 -13 102 -13 c 0
 46 -13 -3 -4 -45 14 c 1
 -11 192 l 1
 60 192 l 1
 61 56 l 1
 74 44 l 1
 76 44 l 2
 183 44 204 118 231 270 c 2
 291 604 l 1
 281 619 l 1
 214 623 l 1
 214 671 l 1
EndSplineSet
EndChar

StartChar: jcircumflex
Encoding: 309 309 240
Width: 297
GlyphClass: 2
Flags: MW
HStem: 420 36<26 26> 473 20G<205 249 249 249> 553 190<25 259 25 259 256 259 172 333 256 256>
VStem: 25 78<553 553>
LayerCount: 2
Fore
SplineSet
172 743 m 1
 259 743 l 1
 333 553 l 1
 256 553 l 1
 203 678 l 1
 103 553 l 1
 25 553 l 1
 172 743 l 1
116 407 m 1
 26 420 l 1
 26 456 l 1
 205 493 l 1
 249 493 l 1
 195 155 l 2
 179 53 164 -33 96 -108 c 0
 31 -179 -30 -214 -78 -214 c 0
 -119 -214 -146 -190 -146 -153 c 0
 -146 -124 -134 -104 -112 -93 c 1
 5 -140 l 1
 37 -100 52 -23 69 90 c 2
 116 407 l 1
EndSplineSet
EndChar

StartChar: uni0136
Encoding: 310 310 241
Width: 653
GlyphClass: 2
Flags: MW
HStem: -371 46<177 185> -7 54 0 49<-26 253 -26 -26> 293 50<231 261 231 284 221 261> 624 47<81 360 81 360>
VStem: 246 156<-159 -127>
LayerCount: 2
Fore
SplineSet
177 -371 m 1x84
 185 -325 l 1
 262 -311 307 -265 318 -189 c 1
 257 -189 l 1
 249 -178 246 -166 246 -152 c 0
 246 -102 281 -67 328 -67 c 0
 375 -67 402 -96 402 -144 c 0
 402 -249 310 -355 177 -371 c 1x84
81 671 m 1x38
 360 671 l 1
 360 624 l 1
 294 619 l 1
 281 605 l 1
 231 343 l 1
 261 343 l 1
 512 601 l 1
 506 617 l 1
 444 622 l 1
 444 671 l 1
 694 671 l 1
 694 622 l 1
 614 614 l 1
 380 377 l 1
 508 121 l 2
 534 69 555 47 616 47 c 0
 623 47 630 48 637 48 c 1
 637 1 l 1
 580 -3 541 -7 518 -7 c 0x58
 436 -7 412 27 375 103 c 2
 284 293 l 1
 221 293 l 1
 180 69 l 1
 191 53 l 1
 253 49 l 1
 253 0 l 1
 -26 0 l 1
 -26 49 l 1
 38 54 l 1
 53 69 l 1
 154 605 l 1
 144 619 l 1
 81 624 l 1
 81 671 l 1x38
EndSplineSet
EndChar

StartChar: uni0137
Encoding: 311 311 242
Width: 559
GlyphClass: 2
Flags: MW
HStem: -371 46<120 128> -7 60<370 498> 0 21G<23 142 23 23> 474 20G<439.5 478.5> 664 33<60 60> 716 20G<240 283 283 283>
VStem: 23 119<0 0> 189 156<-159 -127>
LayerCount: 2
Fore
SplineSet
120 -371 m 1x81
 128 -325 l 1
 205 -311 250 -265 261 -189 c 1
 200 -189 l 1
 192 -178 189 -166 189 -152 c 0
 189 -102 224 -67 271 -67 c 0
 318 -67 345 -96 345 -144 c 0
 345 -249 253 -355 120 -371 c 1x81
240 736 m 1x3e
 283 736 l 1
 186 258 l 1
 316 395 l 2
 376 458 418 494 461 494 c 0
 496 494 522 465 522 427 c 0
 522 387 495 356 441 340 c 1
 405 398 l 1
 358 362 327 335 313 321 c 1
 390 141 422 53 492 53 c 0
 504 53 521 56 543 61 c 1
 543 22 l 1
 478 3 430 -7 401 -7 c 0x5e
 339 -7 316 30 286 101 c 2
 223 247 l 1
 177 197 l 1
 142 0 l 1
 23 0 l 1
 149 656 l 1
 60 664 l 1
 60 697 l 1
 240 736 l 1x3e
EndSplineSet
EndChar

StartChar: Lacute
Encoding: 313 313 243
Width: 529
GlyphClass: 2
Flags: MW
HStem: 0 48<-25 450 -25 -25> 0 58<178 359 178 450> 624 47<81 360> 737 21G<228 295 228 228>
VStem: 416 72<197 197>
LayerCount: 2
Fore
SplineSet
362 927 m 1x38
 485 927 l 1
 295 737 l 1
 228 737 l 1
 362 927 l 1x38
81 671 m 1
 360 671 l 1
 360 623 l 1
 297 618 l 1
 280 605 l 1
 178 58 l 1
 359 58 l 1x78
 377 72 l 1
 416 197 l 1
 488 197 l 1
 450 0 l 1
 -25 0 l 1
 -25 48 l 1xb8
 37 54 l 1
 53 67 l 1
 154 605 l 1
 144 619 l 1
 81 624 l 1
 81 671 l 1
EndSplineSet
Substitution2: "'c2sc' Capitals to Small Capitals in Latin lookup 5 subtable" lacute.sc
EndChar

StartChar: lacute
Encoding: 314 314 244
Width: 307
GlyphClass: 2
Flags: MW
HStem: -9 64<94.5 210.5> 663 35<58 58> 716 20G<229 273 273 273>
VStem: 34 124<41 116>
LayerCount: 2
Fore
SplineSet
272 952 m 1
 395 952 l 1
 205 762 l 1
 138 762 l 1
 272 952 l 1
140 650 m 1
 58 663 l 1
 58 698 l 1
 229 736 l 1
 273 736 l 1
 169 179 l 2
 163 150 158 126 158 106 c 0
 158 75 176 55 199 55 c 0
 222 55 249 60 280 70 c 1
 280 31 l 1
 208 5 156 -9 123 -9 c 0
 66 -9 34 17 34 65 c 0
 34 78 37 95 41 118 c 2
 140 650 l 1
EndSplineSet
Substitution2: "'smcp' Lowercase to Small Capitals in Latin lookup 3 subtable" lacute.sc
EndChar

StartChar: uni013B
Encoding: 315 315 245
Width: 529
GlyphClass: 2
Flags: MW
HStem: -364 46<52 60> 0 48<-25 450 -25 -25> 0 58<178 359 178 450> 624 47<81 360>
VStem: 121 156<-152 -120> 416 72<197 197>
LayerCount: 2
Fore
SplineSet
52 -364 m 1x88
 60 -318 l 1
 137 -304 182 -258 193 -182 c 1
 132 -182 l 1
 124 -171 121 -159 121 -145 c 0
 121 -95 156 -60 203 -60 c 0
 250 -60 277 -89 277 -137 c 0
 277 -242 185 -348 52 -364 c 1x88
81 671 m 1x54
 360 671 l 1
 360 623 l 1
 297 618 l 1
 280 605 l 1
 178 58 l 1
 359 58 l 1x34
 377 72 l 1
 416 197 l 1
 488 197 l 1
 450 0 l 1
 -25 0 l 1
 -25 48 l 1
 37 54 l 1
 53 67 l 1
 154 605 l 1
 144 619 l 1
 81 624 l 1
 81 671 l 1x54
EndSplineSet
EndChar

StartChar: uni013C
Encoding: 316 316 246
Width: 307
GlyphClass: 2
Flags: MW
HStem: -373 46<-38 -30> -9 64<94.5 210.5> 663 35<58 58> 716 20G<229 273 273 273>
VStem: 31 156<-161 -129> 34 124<41 116>
LayerCount: 2
Fore
SplineSet
-38 -373 m 1x88
 -30 -327 l 1
 47 -313 92 -267 103 -191 c 1
 42 -191 l 1
 34 -180 31 -168 31 -154 c 0
 31 -104 66 -69 113 -69 c 0
 160 -69 187 -98 187 -146 c 0
 187 -251 95 -357 -38 -373 c 1x88
140 650 m 1x74
 58 663 l 1
 58 698 l 1
 229 736 l 1
 273 736 l 1
 169 179 l 2
 163 150 158 126 158 106 c 0
 158 75 176 55 199 55 c 0
 222 55 249 60 280 70 c 1
 280 31 l 1
 208 5 156 -9 123 -9 c 0
 66 -9 34 17 34 65 c 0
 34 78 37 95 41 118 c 2
 140 650 l 1x74
EndSplineSet
EndChar

StartChar: Lcaron
Encoding: 317 317 247
Width: 529
GlyphClass: 2
Flags: MW
HStem: 0 48<-25 450 -25 -25> 0 58<178 359 178 450> 624 47<81 360>
VStem: 403 155<607.5 637.5> 416 72<197 197>
LayerCount: 2
Fore
SplineSet
370 395 m 1x30
 354 425 l 1
 430 467 471 519 474 578 c 1
 414 578 l 1
 407 589 403 601 403 614 c 0
 403 661 438 698 485 698 c 0
 530 698 558 668 558 619 c 0
 558 537 492 444 370 395 c 1x30
81 671 m 1
 360 671 l 1
 360 623 l 1
 297 618 l 1
 280 605 l 1
 178 58 l 1
 359 58 l 1x68
 377 72 l 1
 416 197 l 1
 488 197 l 1
 450 0 l 1
 -25 0 l 1
 -25 48 l 1xa8
 37 54 l 1
 53 67 l 1
 154 605 l 1
 144 619 l 1
 81 624 l 1
 81 671 l 1
EndSplineSet
Substitution2: "'c2sc' Capitals to Small Capitals in Latin lookup 5 subtable" lcaron.sc
EndChar

StartChar: lcaron
Encoding: 318 318 248
Width: 307
GlyphClass: 2
Flags: MW
HStem: -9 64<94.5 210.5> 663 35<58 58> 716 20G<229 273 273 273>
VStem: 34 124<41 116> 283 155<607.5 637.5>
LayerCount: 2
Fore
SplineSet
250 395 m 1
 234 425 l 1
 310 467 351 519 354 578 c 1
 294 578 l 1
 287 589 283 601 283 614 c 0
 283 661 318 698 365 698 c 0
 410 698 438 668 438 619 c 0
 438 537 372 444 250 395 c 1
140 650 m 1
 58 663 l 1
 58 698 l 1
 229 736 l 1
 273 736 l 1
 169 179 l 2
 163 150 158 126 158 106 c 0
 158 75 176 55 199 55 c 0
 222 55 249 60 280 70 c 1
 280 31 l 1
 208 5 156 -9 123 -9 c 0
 66 -9 34 17 34 65 c 0
 34 78 37 95 41 118 c 2
 140 650 l 1
EndSplineSet
Substitution2: "'smcp' Lowercase to Small Capitals in Latin lookup 3 subtable" lcaron.sc
EndChar

StartChar: Ldot
Encoding: 319 319 249
Width: 529
GlyphClass: 2
Flags: MW
HStem: 0 48<-25 450 -25 -25> 0 58<178 359 178 450> 265 154<334 375> 624 47<81 360>
VStem: 280 152<319.5 362.5> 416 72<197 197>
LayerCount: 2
Fore
SplineSet
354 419 m 0x28
 396 419 432 385 432 341 c 0
 432 298 396 265 354 265 c 0
 314 265 280 298 280 341 c 0
 280 384 314 419 354 419 c 0x28
81 671 m 1x94
 360 671 l 1
 360 623 l 1
 297 618 l 1
 280 605 l 1
 178 58 l 1
 359 58 l 1x54
 377 72 l 1
 416 197 l 1
 488 197 l 1
 450 0 l 1
 -25 0 l 1
 -25 48 l 1
 37 54 l 1
 53 67 l 1
 154 605 l 1
 144 619 l 1
 81 624 l 1
 81 671 l 1x94
EndSplineSet
EndChar

StartChar: ldot
Encoding: 320 320 250
Width: 419
GlyphClass: 2
Flags: MW
HStem: -9 64<94.5 210.5> 259 154<302.5 344> 663 35<58 58> 716 20G<229 273 273 273>
VStem: 34 124<41 116> 248 152<313.5 356.5>
LayerCount: 2
Fore
SplineSet
323 413 m 0
 365 413 400 379 400 335 c 0
 400 292 365 259 323 259 c 0
 282 259 248 292 248 335 c 0
 248 378 282 413 323 413 c 0
140 650 m 1
 58 663 l 1
 58 698 l 1
 229 736 l 1
 273 736 l 1
 169 179 l 2
 163 150 158 126 158 106 c 0
 158 75 176 55 199 55 c 0
 222 55 249 60 280 70 c 1
 280 31 l 1
 208 5 156 -9 123 -9 c 0
 66 -9 34 17 34 65 c 0
 34 78 37 95 41 118 c 2
 140 650 l 1
EndSplineSet
EndChar

StartChar: Lslash
Encoding: 321 321 251
Width: 529
GlyphClass: 2
Flags: MW
HStem: 0 48<-25 450 -25 -25> 0 58<178 359 178 450> 624 47<81 360>
VStem: 416 72<197 197>
LayerCount: 2
Fore
SplineSet
81 671 m 1xb0
 360 671 l 1
 360 623 l 1
 297 618 l 1
 280 605 l 1
 247 430 l 1
 345 485 l 1
 371 437 l 1
 235 362 l 1
 178 58 l 1
 359 58 l 1x70
 377 72 l 1
 416 197 l 1
 488 197 l 1
 450 0 l 1
 -25 0 l 1
 -25 48 l 1
 37 54 l 1
 53 67 l 1
 94 287 l 1
 29 250 l 1
 7 299 l 1
 107 356 l 1
 154 605 l 1
 144 619 l 1
 81 624 l 1
 81 671 l 1xb0
EndSplineSet
Substitution2: "'c2sc' Capitals to Small Capitals in Latin lookup 4 subtable" lslash.sc
Position2: "'cpsp' Capital Spacing in Latin lookup 2 subtable" dx=7 dy=0 dh=14 dv=0
EndChar

StartChar: lslash
Encoding: 322 322 252
Width: 307
GlyphClass: 2
Flags: MW
HStem: -9 64<92 210.5> 31 39<280 280> 664 33<55 55> 716 20G<231 275 275 275>
VStem: 38 120<51.5 115.5>
AnchorPoint: "Anchor-1" 218 736 basechar 0
LayerCount: 2
Fore
SplineSet
231 736 m 1xb8
 275 736 l 1
 267 689 260 654 256 633 c 2
 219 440 l 1
 309 487 l 1
 331 443 l 1
 207 378 l 1
 169 179 l 2
 163 149 158 125 158 106 c 0
 158 75 176 55 199 55 c 0xb8
 222 55 249 60 280 70 c 1
 280 31 l 1x78
 207 5 154 -9 119 -9 c 0
 65 -9 38 22 38 81 c 0
 38 95 39 109 42 125 c 2
 76 311 l 1
 4 271 l 1
 -16 316 l 1
 87 371 l 1
 142 653 l 1
 55 664 l 1
 55 697 l 1
 231 736 l 1xb8
EndSplineSet
Substitution2: "'smcp' Lowercase to Small Capitals in Latin lookup 2 subtable" lslash.sc
EndChar

StartChar: Nacute
Encoding: 323 323 253
Width: 712
GlyphClass: 2
Flags: MW
HStem: 0 50<-26 202 -26 -26> 624 47<80 301> 737 21G<358 425 358 358>
LayerCount: 2
Fore
SplineSet
492 927 m 1
 615 927 l 1
 425 737 l 1
 358 737 l 1
 492 927 l 1
80 671 m 1
 301 671 l 1
 301 647 l 1
 506 162 l 1
 591 605 l 1
 579 618 l 1
 514 625 l 1
 514 671 l 1
 743 671 l 1
 743 624 l 1
 679 619 l 1
 663 606 l 1
 550 0 l 1
 447 0 l 1
 217 542 l 1
 127 72 l 1
 136 55 l 1
 202 49 l 1
 202 0 l 1
 -26 0 l 1
 -26 50 l 1
 39 55 l 1
 53 70 l 1
 155 605 l 1
 144 619 l 1
 80 624 l 1
 80 671 l 1
EndSplineSet
Substitution2: "'c2sc' Capitals to Small Capitals in Latin lookup 5 subtable" nacute.sc
EndChar

StartChar: nacute
Encoding: 324 324 254
Width: 600
GlyphClass: 2
Flags: MW
HStem: -6 61<390.5 512> 408 85<202 355> 417 33<26 26>
VStem: 29 127<0 0> 336 124<42 113> 389 123<342.5 425>
LayerCount: 2
Fore
SplineSet
382 742 m 1x90
 505 742 l 1
 315 552 l 1
 248 552 l 1
 382 742 l 1x90
202 493 m 1xd4
 241 493 l 1
 221 394 l 1
 301 459 364 493 421 493 c 0
 473 493 512 455 512 395 c 0xd4
 512 376 508 349 501 316 c 2
 471 179 l 2
 464 145 460 121 460 105 c 0
 460 75 479 55 502 55 c 0
 522 55 544 59 568 66 c 1
 568 28 l 1
 506 5 455 -6 417 -6 c 0
 364 -6 336 19 336 65 c 0xd8
 336 80 340 97 344 118 c 2
 380 284 l 2
 386 313 389 335 389 350 c 0
 389 387 370 408 340 408 c 0xd4
 311 408 268 387 215 342 c 1
 156 0 l 1
 29 0 l 1
 109 406 l 1
 26 417 l 1
 26 450 l 1xb4
 202 493 l 1xd4
EndSplineSet
Substitution2: "'smcp' Lowercase to Small Capitals in Latin lookup 3 subtable" nacute.sc
EndChar

